<svg width="105" height="100" viewBox="0 0 105 100" fill="none" xmlns="http://www.w3.org/2000/svg">
<g clip-path="url(#clip0_291_878)">
<path d="M104.301 75.8732C98.4037 76.2939 97.4734 75.3885 97.3349 75.1548C97.3124 75.1155 97.2834 75.0761 97.248 75.0417C93.1692 71.1053 88.6815 70.9626 88.6815 70.9626C79.4357 70.6133 76.6028 71.5703 76.1521 71.7524C76.0974 71.7745 76.0394 71.7893 75.9782 71.8016C71.7674 72.547 69.7232 72.1681 69.7232 72.1681C61.0859 70.9085 59.267 68.7066 58.0501 68.0596C56.2376 67.0952 56.2473 65.4469 56.2473 65.4469L54.6376 50.9046L55.9704 51.4581L58.2593 52.2282L59.634 52.5406L61.7555 52.8777L64.2955 53.045L67.0093 52.9736L68.2069 52.8063L68.4162 52.6858L67.46 52.0363L66.7099 51.4114L66.5007 50.9784L67.2926 51.0989L69.25 51.3868L71.7481 51.7484L74.2463 51.8444L76.7444 51.7952L79.6997 51.3376L82.7806 50.5183L84.1552 49.9894V49.8221L83.5725 49.7507L82.449 49.5834L77.4977 48.5723L74.2946 47.6325L73.3803 47.3668L73.3384 47.1995L74.462 47.0322L76.5416 46.4073L78.1641 45.7012L79.5516 44.9804L80.2728 44.4982L80.3822 44.2743L80.2985 44.1611L79.7706 44.1119L78.4957 44.08L76.7477 43.984L75.5533 43.8389L73.6958 43.519L71.5034 43.0221L68.9248 42.22L67.3699 41.6591L67.4536 41.5632L68.6479 41.5804L70.5055 41.5312L71.8093 41.4352L73.2515 41.2901L74.2785 41.081L75.3891 40.8399L76.6639 40.4536L78.0515 39.8755L79.5484 38.9923L80.4917 38.2714L81.1033 37.7105L81.187 37.4546L80.7975 37.4054L79.5774 37.3415L77.6909 37.2603L76.2744 37.1914L74.2495 36.9552L72.1956 36.569L69.8648 35.9908L67.2282 35.1248L65.1196 34.0817L63.8448 33.3116L63.4005 32.9598L63.6516 32.8786L64.289 33.0386L65.3707 33.1837L67.1735 33.2649H69.4495L71.6419 33.0238L73.8889 32.5096L74.7227 32.2218L75.7754 31.6608L76.6092 31.0827L76.8024 30.8268L76.6092 30.6177L75.9428 30.5045L74.9706 30.4234L71.0882 29.6853L68.4258 28.9153L66.2882 28.096L65.4705 27.6556L65.5124 27.4883L67.2186 27.417L68.1747 27.2005L69.5075 26.9594L70.3413 26.6937L70.5087 26.5485L69.9678 26.4034L68.3872 26.1623L66.0983 25.6333L63.642 24.7673L61.5205 23.8768L60.3969 23.1559L61.6042 23.1805L63.5196 23.0132L65.477 22.7008L66.8097 22.2678L68.2649 21.7634L69.3465 21.1139L69.8037 20.6096L69.72 20.2725L69.0954 20.0807L66.681 19.6944L63.2267 18.8038L61.0633 18.0338L59.1479 17.1924L58.3559 16.6142L58.3978 16.4691L59.7724 16.6142L61.147 16.5896L63.0206 16.3731L64.4758 15.9647L65.7248 15.5563L66.5586 15.052L66.4331 14.9314L65.5607 14.7395L61.939 13.753L60.1072 13.1749L58.1112 12.3089L57.4867 11.9472L57.5286 11.8021L58.1112 11.7529L59.8175 11.7283L61.1084 11.5118L61.9003 11.2461L62.0259 11.0788L61.7362 10.8131L58.739 9.10321L56.6594 7.44257L54.8694 5.66138L53.2888 3.59235L50.8647 0.00537109L48.7947 2.9896L46.1323 6.45603L43.47 8.67022L40.8076 10.4981L39.8096 11.0763L39.9481 11.2854L40.6402 11.5265L41.5545 11.6717L42.8036 11.7676H43.6921L43.8595 11.8636L43.75 12.0087L43.0289 12.4097L41.1714 13.2757L38.5348 14.127L36.1751 14.7199L35.2318 14.929L35.0644 15.0889L35.396 15.2808L36.7288 15.8737L38.0616 16.2919L39.697 16.5158L41.6672 16.6118H43.2768L42.9678 16.9636L41.3903 17.6697L39.9481 18.2798L37.8394 18.9539L35.4797 19.5468L33.4258 19.8986L31.9836 20.1717L31.5103 20.2996V20.5407L31.8419 20.8286L32.9783 21.5986L34.4206 22.1767L35.7534 22.627L37.4177 22.9148L39.3589 23.1067H41.635L40.5823 23.7168L39.1948 24.5189L37.7525 25.097L35.5344 25.7711L33.3711 26.2853L32.2057 26.5412L31.9836 26.829L32.4278 27.0209L33.0395 27.2768L34.2049 27.4687H35.6471L35.0934 27.9509L33.7606 28.6569L31.0403 29.459L28.1559 30.165L26.102 30.5168L25.3261 30.6768V31.095L26.1599 31.8011L27.5474 32.4752L29.1023 32.7925L30.5446 33.0533L32.9848 33.2132L35.5377 33.0853L38.1002 32.7925L38.8664 32.5391V32.9574L38.1002 33.5355L36.4809 34.4655L33.3196 35.6685L29.656 36.5837L25.3293 37.1889L20.7515 37.4522L20.8352 37.8384L21.4179 38.392L22.7925 39.3072L24.4376 40.1018L26.0826 40.6431L28.2685 41.2089L30.9953 41.5705L32.9107 41.6542H34.1791L34.0117 41.787L33.3872 42.0035L31.2721 42.749L29.054 43.3591L26.8617 43.7282L24.6436 43.984L22.7571 44.0972H21.3696L21.3406 44.3211L21.7559 44.818L22.6702 45.315L24.3056 46.053L25.7478 46.582L27.2448 47.015L28.2718 47.2069L28.4102 47.3028L28.0496 47.4947L26.1631 48.0237L23.945 48.6486L21.4759 49.1947L19.4799 49.5465L18.1214 49.7704L17.6224 49.8344L17.7898 50.0583L19.0099 50.6192L21.508 51.2761L24.1446 51.6943L25.5321 51.8075H28.3619L30.081 51.7115L32.4954 51.4237L34.2532 51.0719L35.132 50.9759L35.3252 51.0399L35.2962 51.2957L34.852 51.8099L33.825 52.4668L33.4934 52.6759L33.6608 52.7719L34.5493 52.9318L35.3542 53.013H37.4918L39.8644 52.8039L42.8197 52.4176L44.983 51.7927L46.2321 51.3105L46.9403 50.9735L46.8985 52.2971L46.6088 55.8348L46.2353 59.0602L45.4176 65.4444C45.4176 65.4444 45.2921 67.6487 45.1408 67.9858C43.882 70.7683 38.3803 71.5432 38.3803 71.5432C34.3143 72.0033 32.7465 71.5875 32.4665 71.4965C32.4278 71.4842 32.3892 71.4744 32.3506 71.467C22.1583 69.6858 18.6461 70.5813 18.6461 70.5813C11.1709 71.5433 9.32308 74.0477 9.32308 74.0477C8.90457 75.0097 5.96537 75.332 5.96537 75.332L0.920764 75.8289C0.814528 75.8388 0.711511 75.8683 0.621371 75.9126C-0.740384 76.6285 0.756581 76.8696 0.756581 76.8696C6.38388 77.3838 7.47521 76.6137 7.47521 76.6137C8.48607 76.1389 13.7399 73.6861 14.5158 73.322C14.5802 73.2924 14.651 73.2703 14.725 73.2555C16.7178 72.916 15.9709 73.8239 15.7552 74.0576C15.7198 74.0945 15.6908 74.1363 15.6715 74.1781C13.8816 77.8389 8.13195 79.4553 7.52672 79.6152C7.49131 79.625 7.45268 79.6373 7.42049 79.6521C5.33118 80.5279 7.47521 80.5919 7.47521 80.5919C13.8494 80.9585 17.5805 74.6185 17.9443 73.9715C17.9636 73.937 17.9765 73.9001 17.9862 73.8608C18.2888 72.5962 20.9576 72.6233 21.2988 72.6331C21.3213 72.6331 21.3471 72.6331 21.3696 72.638C28.5615 73.4056 29.817 73.8534 29.817 73.8534C32.3377 74.3676 29.817 74.6234 29.817 74.6234L26.9873 74.9408C26.9712 74.9408 26.9551 74.9457 26.939 74.9482C17.7286 76.4292 18.865 80.8477 18.865 80.8477C18.997 82.1959 19.9918 80.8477 19.9918 80.8477C22.4288 77.3813 27.1289 77.1894 27.1289 77.1894C31.0757 76.8696 27.8017 78.2793 27.8017 78.2793C25.3647 79.4356 26.205 84.1838 26.205 84.1838C26.4561 85.468 25.4484 85.9797 25.4484 85.9797C21.508 88.4227 20.069 89.3551 19.7922 89.5397C19.7568 89.5643 19.7246 89.5889 19.6956 89.6184C17.7157 91.5496 19.8469 91.2618 20.2622 91.1905C20.304 91.1831 20.3459 91.1732 20.3877 91.1585C28.8094 88.403 28.3909 85.4656 28.3909 85.4656C28.8963 80.587 29.9876 79.4331 29.9876 79.4331C33.297 75.2557 37.524 74.9088 38.2064 74.8793C38.2708 74.8768 38.3384 74.867 38.3996 74.8498C40.4181 74.3011 39.0402 75.4008 38.9018 75.5091C38.8922 75.5165 38.8857 75.5214 38.8761 75.5288L35.5312 78.4687C33.0846 80.3385 33.7156 82.3091 33.8958 82.7446C33.9184 82.7987 33.9538 82.8504 33.9956 82.8971C35.2801 84.265 35.3638 82.8971 35.3638 82.8971C35.1256 80.6066 36.967 79.2215 37.1892 79.0616C37.2052 79.0493 37.2213 79.0395 37.2342 79.0247L44.5162 72.7561C45.6076 71.7302 46.0293 72.7561 46.0293 72.7561C46.9275 77.5708 46.0229 78.5967 45.8168 78.7615C45.7782 78.791 45.7492 78.8279 45.7235 78.8624C44.0172 81.1946 41.2229 82.4395 40.93 82.565C40.9106 82.5723 40.8945 82.5797 40.8784 82.5896L32.8431 86.8113C28.5711 88.9492 29.112 92.5116 29.2182 93.0356C29.2279 93.0774 29.2408 93.1193 29.2633 93.1611C29.7462 94.0369 30.2741 93.4169 30.4383 93.1808C30.4705 93.134 30.4963 93.0824 30.5091 93.0307C31.7743 88.0291 34.2693 87.7757 34.2693 87.7757C35.3767 87.51 35.1932 87.9036 35.1932 87.9036C34.2693 90.0219 35.1932 90.8559 35.1932 90.8559C36.2749 92.0441 36.7578 91.3208 36.9059 90.9912C36.9413 90.91 36.9509 90.8214 36.9316 90.7353C36.3876 88.1619 36.6902 87.1533 36.864 86.8236C36.9059 86.7449 36.9702 86.676 37.0572 86.6194L41.1585 83.9255C42.7327 82.8996 42.1662 84.4396 42.1662 84.4396C40.3183 88.6122 41.0748 89.3822 41.0748 89.3822C41.5867 90.108 42.4752 89.5741 42.7006 89.4191C42.736 89.397 42.7649 89.3699 42.7939 89.3428C44.5742 87.5912 44.0816 86.3365 43.9561 86.088C43.9432 86.0609 43.9271 86.0363 43.9078 86.0142C42.8615 84.7127 44.5195 83.7828 44.748 83.6647C44.7641 83.6548 44.7802 83.6499 44.7995 83.6425C47.8836 82.3977 48.3021 79.3052 48.3021 79.3052C48.5532 78.6631 49.4771 79.1133 49.4771 79.1133C53.9294 80.6534 52.8348 83.6524 52.8348 83.6524C51.9624 88.3637 47.7935 89.6307 47.3331 89.7561C47.3009 89.766 47.2687 89.7758 47.2397 89.7881C38.1421 93.5006 39.8161 96.5709 39.8161 96.5709C40.2249 97.4541 40.74 96.9916 40.9235 96.7825C40.9686 96.7333 40.9976 96.6767 41.0137 96.6177C42.0116 93.3234 48.0446 91.0502 48.0446 91.0502C49.8924 90.2162 49.725 91.5004 49.725 91.5004C49.6413 93.1045 50.7327 94.3248 50.7327 94.3248C51.3153 94.8758 51.824 99.7151 51.824 99.7151C52.0365 100.121 52.4518 100.013 52.7254 99.8799C52.896 99.7962 53.0119 99.6585 53.0377 99.5059C53.7427 95.7197 52.8155 94.0049 52.6771 93.7737C52.6674 93.754 52.6546 93.7343 52.6481 93.7146C51.4119 90.8509 52.5773 90.0243 52.5773 90.0243C56.0284 87.4755 56.4759 84.7054 56.4276 83.2588C56.4147 82.8282 57.0296 82.56 57.506 82.7938C60.0364 84.0312 59.6951 84.6807 59.6951 84.6807C60.4517 88.531 58.8452 89.397 58.8452 89.397C57.2066 90.7206 58.0565 91.6825 58.0565 91.6825C58.6392 92.6149 59.5149 91.9236 59.7145 91.7465C59.7402 91.7243 59.7627 91.6997 59.7853 91.6726C63.217 87.3476 62.1836 86.9663 62.1836 86.9663C61.0537 86.2184 62.0903 86.4718 62.4508 86.5726C62.5249 86.5923 62.5925 86.6218 62.6504 86.6587C63.9703 87.4854 64.45 89.397 64.45 89.397C65.0134 90.4179 64.1764 95.1268 64.0798 95.6533C64.0733 95.6852 64.0701 95.7197 64.0733 95.7541C64.112 96.4356 64.3212 96.6398 64.3212 96.6398C65.1325 97.6805 65.5542 96.9916 65.6701 96.7284C65.6926 96.6767 65.7055 96.6226 65.7087 96.566C65.8665 92.2164 66.4621 92.1622 66.4621 92.1622C67.1993 91.8375 67.4375 91.8744 67.4375 91.8744C69.8616 91.8744 71.835 94.6347 72.2181 95.2104C72.2664 95.2818 72.334 95.3433 72.4145 95.3925C74.639 96.6964 73.6088 94.9792 73.6088 94.9792C71.3715 90.1424 68.3485 90.9838 68.3485 90.9838C67.151 91.2224 66.961 90.2187 66.9353 90.0292C66.9353 90.0096 66.9353 89.9899 66.9353 89.9702C67.048 87.724 65.5896 86.302 65.5896 86.302C60.3454 81.2168 57.9825 80.3139 57.6863 80.2155C57.6605 80.2056 57.6348 80.1958 57.609 80.1835C53.2373 78.171 52.1105 76.6113 52.1105 76.6113C49.7186 73.3712 52.3198 71.5088 52.3198 71.5088C53.366 70.7388 54.5765 71.4399 54.8308 71.6047C54.8662 71.6293 54.9048 71.649 54.9499 71.6663C60.4323 73.878 62.3124 77.8684 62.4701 78.2252C62.4798 78.2424 62.4862 78.2596 62.4959 78.2768C64.054 80.9388 67.3087 84.0017 67.7948 84.4519C67.8335 84.4888 67.8818 84.5208 67.9333 84.5479C69.7586 85.5074 69.4978 87.4116 69.3691 87.9922C69.3401 88.1275 69.3819 88.2677 69.4817 88.3809C69.8552 88.7942 70.19 88.5113 70.3542 88.3145C70.425 88.2284 70.4572 88.13 70.4572 88.0291L70.4282 86.4324C70.4185 85.9797 71.1139 85.7189 71.5678 86.0117C72.7493 86.7695 73.1871 89.0968 73.1871 89.0968C73.7441 89.8472 74.1207 89.3896 74.2591 89.1509C74.2978 89.0821 74.3203 89.0082 74.3235 88.9344C74.3847 85.2638 70.8371 84.4126 70.8371 84.4126C69.4592 84.0706 68.7445 83.303 68.5964 83.1308C68.5803 83.1111 68.5642 83.0914 68.5514 83.0693L67.4021 81.2414C67.1767 80.8846 67.5244 80.4639 68.0427 80.4762C70.4025 80.5328 72.4242 81.1725 72.8813 81.3275C72.9489 81.3496 73.0229 81.3644 73.097 81.3693C75.1799 81.5194 73.3577 80.5894 73.3577 80.5894C72.804 79.4897 67.7787 79.0493 66.5651 78.9583C66.3945 78.946 66.2335 78.8894 66.1208 78.791C64.8331 77.6913 64.2697 76.0159 64.0444 75.0933C63.9607 74.7489 64.3277 74.4315 64.7848 74.4635C71.6065 74.9433 76.6414 79.8612 76.8796 80.0974C76.8861 80.1048 76.8925 80.1097 76.9022 80.1171L79.6643 82.5797C79.8124 82.7101 79.8703 82.8873 79.8124 83.0546C78.8563 85.7337 81.8373 89.4585 82.4522 90.1867C82.523 90.2703 82.6196 90.3368 82.7355 90.3761C84.7765 91.097 83.8204 89.6381 83.8204 89.6381C81.9081 86.644 81.9919 84.233 82.1432 83.2415C82.185 82.9611 82.5134 82.7569 82.8804 82.7741C87.9121 82.9955 89.5507 84.8997 89.9499 85.5074C90.0304 85.6304 90.1688 85.7288 90.3394 85.778C92.2098 86.2971 91.0026 85.067 91.0026 85.067C87.8509 81.0987 83.6208 81.2192 83.0156 81.2586C82.9609 81.2611 82.9093 81.2611 82.8546 81.2561C81.2031 81.0815 80.6913 80.5476 80.5754 80.3926C80.5496 80.3606 80.5239 80.3286 80.4885 80.3016L79.0494 79.0666C79.0494 79.0666 79.0269 79.0469 79.014 79.0395L74.301 75.5337C74.2624 75.5066 74.2205 75.4796 74.1754 75.4599C72.9103 74.8719 74.3718 75.0097 74.3718 75.0097C78.6245 75.054 84.1552 76.4563 84.8248 76.6285C84.8731 76.6408 84.9182 76.6482 84.9697 76.6506C86.5922 76.7786 86.531 77.9939 86.531 77.9939C86.7403 78.7566 87.3906 79.6201 87.5998 79.8858C87.6417 79.9399 87.6964 79.9867 87.7608 80.026C89.0228 80.7936 89.1161 79.9596 89.1161 79.7013C89.1161 79.6595 89.1097 79.6176 89.0968 79.5783L88.8908 78.9091C88.8714 78.8451 88.836 78.7836 88.7877 78.7295L88.0795 77.9398C88.0538 77.9127 88.0248 77.8857 87.9926 77.8611C86.9946 77.1156 87.6642 76.7417 87.6642 76.7417C88.292 76.043 89.2288 76.9262 89.3994 77.0984C89.4187 77.1205 89.4413 77.1377 89.467 77.1574L91.4211 78.604C91.4211 78.604 91.4469 78.6262 91.4597 78.636C93.1531 80.1613 94.8432 80.3508 94.8432 80.3508L96.3563 80.5427C97.8049 80.3508 96.4207 79.7234 96.4207 79.7234C92.8891 78.6778 92.139 77.5954 92.0296 77.3961C92.0135 77.369 91.9974 77.3444 91.9781 77.3198C90.8255 75.9273 88.6847 75.4328 88.5012 75.3935C88.4916 75.3935 88.4787 75.3885 88.469 75.3861L85.591 74.621L81.4671 73.659C79.4261 73.1473 81.01 72.7463 81.3899 72.6651C81.4414 72.6553 81.4896 72.6479 81.5412 72.6454L86.2831 72.456C88.2759 72.2715 90.4425 73.5016 90.6163 73.6049C90.626 73.6098 90.6356 73.6147 90.6453 73.6197L94.7241 75.7281C96.8037 76.9311 99.5755 77.0762 99.5755 77.0762C102.621 77.2017 103.976 76.8942 104.289 76.8081C104.334 76.7958 104.379 76.7786 104.421 76.7589C105.895 76.0602 104.363 75.8732 104.363 75.8732H104.301Z" fill="url(#paint0_linear_291_878)"/>
<path d="M49.7766 3.09985L48.4954 5.09754L46.4157 7.57497L44.6258 8.99697L43.7115 9.71781L43.4186 9.95891H43.792H44.9155L45.9586 9.71781L47.2044 9.21347L46.831 10.296L46.0004 11.2825L45.0411 12.1485L43.4186 13.2064L41.6705 13.9789L40.1735 14.5546L39.4234 14.8203L40.547 14.9408H41.7961L43.586 14.7489L45.4564 14.3873L46.831 13.8805L47.33 13.6172L47.5811 13.6418L47.3718 14.1954L46.2483 15.3984L44.7932 16.5769L43.0451 17.7799L41.0878 18.7418L39.0082 19.5365L36.9671 20.1392L35.8018 20.3803L36.011 20.5968L37.508 20.7641H39.6745L42.0858 20.5968L43.8757 20.2352L45.2922 19.8268V20.0433L44.9992 20.4025L44.7514 20.6214L45.2922 20.5722L46.332 20.2598L47.829 19.5365L48.9525 18.5992L49.7766 17.9497L50.9935 18.6459L53.4466 19.7776L55.5295 20.4025L57.4836 20.7641H59.7307L61.395 20.5476L62.3544 20.2844L61.894 20.1146L60.3133 19.6816L58.5653 19.0568L56.9009 18.0702L54.7376 16.722L53.614 16.0233L52.6579 15.3984L52.3231 15.4698L52.4068 15.7109L52.9058 16.9139L53.907 17.8759L54.6957 18.6459L54.8631 18.9116L54.113 18.6238L52.4486 17.9005L50.9935 16.8893L50.076 15.9028L49.4934 16.6482L48.1638 17.4183L46.7892 18.0456L44.9992 18.6238L46.4157 17.5634L47.829 16.1685L48.9107 15.2041L49.4515 13.9543L49.9923 12.5101L50.076 11.403L50.7843 11.932L51.6986 12.4142L53.0313 12.8472L53.9456 13.0883L54.1967 12.9899L53.9456 12.6061L52.7416 11.3292L51.4507 9.86296L50.6169 8.68206L50.3271 7.52822L51.0354 7.81607L52.2008 8.34501L53.1987 8.63532L53.5303 8.65992L53.614 8.41882L53.0313 7.88987L51.1996 5.77164L50.076 3.96585L49.7766 3.09985Z" fill="#259462"/>
<path d="M44.835 22.041L43.045 23.8222L40.1316 26.2529L37.26 28.13L34.3047 29.5004L31.7679 30.3442L30.1422 30.7526L29.8943 30.9199L31.8098 31.0651L34.8037 30.9199L37.6753 30.4869L40.0897 29.862L42.295 29.1412L43.5859 28.659L43.5022 29.0674L43.2511 29.4536L42.8358 29.8128L43.6277 29.7415L45.2502 29.1879L46.5412 28.659L48.08 27.5027L49.078 26.2529V25.409V24.8801L47.2462 25.842L45.4563 26.553L43.6277 27.1902L42.1694 27.6232L42.9195 26.927L43.544 26.1569L44.3328 24.8555L44.8736 23.5073L45.0828 22.5454L44.835 22.041Z" fill="#259462"/>
<path d="M50.7842 20.9807L51.325 22.4741L52.323 23.7017L54.1548 24.8801L56.2763 25.6994L59.2734 26.0832H61.5623H61.8939L59.898 25.4091L57.7765 24.4471L55.4875 23.7017L53.5721 22.7619L52.3648 22.0411L50.7842 20.9807Z" fill="#259462"/>
<path d="M53.0313 26.2751H52.7834V26.5531L53.5303 27.2395L56.0285 28.6837L57.9021 29.4537L60.5226 30.15L63.2686 30.8019L66.2658 31.0652H68.5128H69.6782L68.2617 30.7281L65.7249 30.054L64.1411 29.4783L62.3544 28.9002L61.6461 28.3466L61.2308 27.9358L60.3552 27.8398L58.649 27.7685L56.6949 27.5274L54.905 27.119L53.8651 26.686L53.0313 26.2751Z" fill="#259462"/>
<path d="M42.0856 31.8843L40.3793 33.3752L38.2578 34.6766L35.6792 35.8058L32.7239 36.7456L29.2278 37.5624L26.3562 38.1652L25.4419 38.3571L25.8572 38.6941L27.7727 39.3682L30.9758 39.6339H34.3046L37.5496 39.3928L40.257 38.8885L42.5878 38.4063V38.6695L42.1274 39.3928L41.6703 40.2121L41.6284 40.3794L42.5878 40.0669L44.5419 39.3215L46.3736 38.2144L47.3716 37.3238L48.2054 36.2388L48.4533 35.4688V35.1096L47.8706 35.3975L46.2481 35.951L44.294 36.5045L42.5041 36.8416L41.255 37.0581L41.3805 36.8416L42.3785 36.4332L44.0847 35.6139L45.5399 34.4823L46.0807 33.7614L46.4155 33.1119L46.2899 32.9176L45.8328 33.0873L44.9153 33.5203L43.4602 34.0985L41.9214 34.6766L40.7142 35.1096L41.2131 34.4355L41.9214 33.449L42.4204 32.5338L42.5459 31.8843H42.0856Z" fill="#259462"/>
<path d="M52.7833 29.4536L53.1149 31.3307L54.4477 33.0873L56.2376 34.4601L58.8581 35.8083L61.646 36.9425L62.3961 37.2525H61.3981L58.4847 36.4111L55.8223 35.3999L53.7008 34.2928L51.9109 33.0898L50.7874 32.3911V33.1611L51.4119 34.5339L52.4936 35.6656L55.2396 37.2549L57.7378 38.0963L62.3993 39.0583L65.9469 39.4445H69.3916L72.1795 39.1567L73.9694 38.6745L74.6776 38.3128L72.2213 38.0471L70.3895 37.7814L67.2282 36.9425L64.524 36.0248L62.0259 34.9669L59.9881 33.8844C59.9881 33.8844 57.9503 32.7281 57.7829 32.6814C57.6154 32.6347 56.2022 31.8868 56.2022 31.8868L54.2449 30.851L53.4948 30.0096L52.7865 29.4561L52.7833 29.4536Z" fill="#259462"/>
<path d="M49.1616 39.73L46.9145 40.8838L44.6256 41.799L41.2969 42.7388L38.5927 43.1964L35.6374 43.6515L36.6353 43.0513L36.9476 42.7142L36.1782 42.9061L34.472 43.4843L31.2656 44.087L27.8564 44.5913L26.0665 44.7586L27.2318 45.1941L28.9799 45.5311H31.6004L34.0986 45.386L35.7629 45.2654L36.3038 45.1941L35.7211 45.5311L34.3046 46.3012L32.8913 47.0466L30.934 47.7675L28.9799 48.3702L26.897 49.0443L26.0665 49.3322L25.6479 49.5487H26.1083H28.2298L30.6861 49.406L33.1811 49.1157L35.3863 48.6335L38.4671 47.8413L40.9202 47.022L41.8377 46.6382L41.7959 47.5264L41.4643 48.6335L40.7979 49.5487L40.6723 49.8144H41.0876L42.5878 49.5487L44.4163 48.8746L46.6634 47.7453L47.9962 46.6382L48.4533 45.819L47.9962 45.9863L46.7471 46.5177L45.292 46.8301L44.6256 46.9015L44.2522 46.8301L44.7093 46.3479L45.0827 45.4819L45.2501 44.5667L45.3338 43.9886L47.2879 42.7856L48.6626 41.5358L49.1616 40.3795V39.73Z" fill="#259462"/>
<path d="M51.9078 42.8594L51.5762 44.0132V44.9998V46.2274L52.4067 47.1426L53.9874 48.2989L56.0284 49.0689L58.0244 49.6446H58.3592L57.0264 48.5154L55.7355 47.2877L53.9456 45.6271L52.9894 44.3257L51.9078 42.8594Z" fill="#259462"/>
<path d="M57.5671 40.8369L60.5643 42.0646L64.1441 43.0511L68.5127 43.9663L72.9649 44.7732L71.1332 45.1472L68.8443 45.3391L66.5554 45.2185L63.8093 44.7732L60.8122 43.799C60.8122 43.799 58.8967 42.596 58.6907 42.5246C58.4846 42.4533 57.5671 41.2724 57.5671 41.2724V40.8394V40.8369Z" fill="#259462"/>
<path d="M66.3076 47.071L68.8026 47.6467L71.2589 48.3208L73.213 48.9482L74.961 49.5485L73.4641 49.6444H71.0496L69.3015 49.2852L67.8046 48.5865L66.7229 47.6467L66.3076 47.071Z" fill="#259462"/>
</g>
<defs>
<linearGradient id="paint0_linear_291_878" x1="52.5552" y1="0.00537109" x2="52.5552" y2="100" gradientUnits="userSpaceOnUse">
<stop stop-color="#171717"/>
<stop offset="0.471154" stop-color="#454648"/>
<stop offset="1" stop-color="#1C5E56"/>
</linearGradient>
<clipPath id="clip0_291_878">
<rect width="105" height="100" rx="5" fill="white"/>
</clipPath>
</defs>
</svg>
