<svg width="40" height="40" viewBox="0 0 40 40" fill="none" xmlns="http://www.w3.org/2000/svg">
<g clip-path="url(#clip0_190_2)">
<path d="M39.7339 30.3491C37.4871 30.5174 37.1327 30.1552 37.08 30.0617C37.0714 30.046 37.0604 30.0302 37.0469 30.0165C35.493 28.4419 33.7834 28.3849 33.7834 28.3849C30.2612 28.2451 29.182 28.6279 29.0103 28.7007C28.9895 28.7096 28.9674 28.7155 28.9441 28.7204C27.34 29.0186 26.5612 28.8671 26.5612 28.8671C23.2708 28.3632 22.5779 27.4825 22.1143 27.2236C21.4239 26.8379 21.4275 26.1785 21.4275 26.1785L20.8144 20.3616L21.3221 20.5831L22.194 20.8911L22.7177 21.016L23.5259 21.1509L24.4935 21.2178L25.5274 21.1892L25.9836 21.1223L26.0633 21.0741L25.6991 20.8143L25.4133 20.5644L25.3336 20.3912L25.6353 20.4394L26.3809 20.5545L27.3326 20.6992L28.2843 20.7376L29.236 20.7179L30.3618 20.5348L31.5355 20.2071L32.0591 19.9956V19.9286L31.8372 19.9001L31.4091 19.8332L29.523 19.4287L28.3027 19.0528L27.9544 18.9465L27.9385 18.8796L28.3665 18.8127L29.1587 18.5627L29.7768 18.2803L30.3054 17.992L30.5801 17.7991L30.6218 17.7095L30.5899 17.6643L30.3888 17.6446L29.9031 17.6318L29.2372 17.5934L28.7822 17.5353L28.0746 17.4074L27.2394 17.2086L26.2571 16.8878L25.6647 16.6635L25.6966 16.6251L26.1516 16.632L26.8592 16.6123L27.3559 16.5739L27.9053 16.5158L28.2966 16.4322L28.7197 16.3358L29.2053 16.1813L29.7339 15.95L30.3042 15.5967L30.6635 15.3084L30.8965 15.084L30.9284 14.9817L30.78 14.962L30.3152 14.9364L29.5965 14.9039L29.0569 14.8764L28.2855 14.7819L27.5031 14.6274L26.6152 14.3961L25.6108 14.0497L24.8075 13.6325L24.3218 13.3245L24.1526 13.1837L24.2482 13.1513L24.4911 13.2152L24.9031 13.2733L25.5899 13.3058H26.457L27.2922 13.2093L28.1482 13.0036L28.4658 12.8885L28.8668 12.6641L29.1845 12.4329L29.2581 12.3305L29.1845 12.2469L28.9306 12.2016L28.5602 12.1691L27.0812 11.8739L26.067 11.5659L25.2527 11.2382L24.9412 11.0621L24.9571 10.9951L25.6071 10.9666L25.9713 10.88L26.4791 10.7836L26.7967 10.6773L26.8605 10.6192L26.6544 10.5612L26.0523 10.4647L25.1803 10.2531L24.2446 9.90674L23.4364 9.55051L23.0084 9.26217L23.4683 9.27201L24.198 9.20509L24.9436 9.08011L25.4513 8.90692L26.0057 8.70518L26.4177 8.44538L26.5919 8.24364L26.56 8.10882L26.3221 8.03207L25.4023 7.87757L24.0864 7.52133L23.2622 7.21331L22.5325 6.87675L22.2308 6.64549L22.2468 6.58743L22.7704 6.64549L23.2941 6.63565L24.0079 6.54905L24.5622 6.3857L25.038 6.22234L25.3557 6.0206L25.3079 5.97238L24.9755 5.89562L23.5958 5.50101L22.898 5.26975L22.1376 4.92335L21.8997 4.77869L21.9157 4.72063L22.1376 4.70095L22.7876 4.69111L23.2794 4.60451L23.5811 4.49823L23.6289 4.43131L23.5185 4.32503L22.3768 3.64109L21.5845 2.97683L20.9027 2.26436L20.3005 1.43675L19.377 0.00195312L18.5885 1.19565L17.5742 2.58222L16.56 3.46789L15.5458 4.19906L15.1656 4.43032L15.2183 4.51397L15.482 4.61041L15.8303 4.66847L16.3061 4.70685H16.6446L16.7084 4.74523L16.6667 4.80329L16.392 4.9637L15.6844 5.31009L14.6799 5.65059L13.781 5.88775L13.4217 5.9714L13.3579 6.03536L13.4842 6.11212L13.9919 6.34928L14.4997 6.51658L15.1227 6.60613L15.8732 6.64451H16.4864L16.3687 6.78523L15.7678 7.06767L15.2183 7.31172L14.415 7.58136L13.5161 7.81852L12.7337 7.95924L12.1842 8.06848L12.004 8.11965V8.21609L12.1303 8.33123L12.5632 8.63925L13.1126 8.8705L13.6203 9.05059L14.2544 9.16573L14.9939 9.24249H15.861L15.4599 9.48654L14.9314 9.80735L14.3819 10.0386L13.5369 10.3082L12.7128 10.5139L12.2689 10.6163L12.1842 10.7314L12.3535 10.8082L12.5865 10.9105L13.0304 10.9873H13.5799L13.3689 11.1801L12.8612 11.4626L11.8249 11.7834L10.7261 12.0658L9.94362 12.2065L9.64805 12.2705V12.4378L9.96569 12.7202L10.4943 12.9899L11.0866 13.1168L11.636 13.2211L12.5656 13.2851L13.5382 13.2339L14.5144 13.1168L14.8063 13.0155V13.1828L14.5144 13.414L13.8975 13.786L12.6932 14.2672L11.2976 14.6333L9.64928 14.8754L7.90535 14.9807L7.93724 15.1352L8.15921 15.3566L8.68288 15.7227L9.30957 16.0405L9.93626 16.257L10.769 16.4834L11.8077 16.628L12.5374 16.6615H13.0206L12.9569 16.7146L12.7189 16.8012L11.9132 17.0994L11.0682 17.3435L10.233 17.4911L9.38806 17.5934L8.66939 17.6387H8.14082L8.12978 17.7282L8.28799 17.927L8.63628 18.1258L9.25929 18.421L9.80871 18.6326L10.379 18.8058L10.7702 18.8826L10.8229 18.9209L10.6856 18.9977L9.96692 19.2093L9.12193 19.4592L8.18129 19.6777L7.42093 19.8184L6.90339 19.908L6.7133 19.9336L6.77707 20.0231L7.24187 20.2475L8.19355 20.5102L9.19797 20.6775L9.72654 20.7228H10.8045L11.4594 20.6844L12.3792 20.5693L13.0488 20.4286L13.3836 20.3902L13.4572 20.4158L13.4462 20.5181L13.2769 20.7238L12.8857 20.9865L12.7594 21.0702L12.8232 21.1086L13.1617 21.1725L13.4683 21.205H14.2826L15.1864 21.1213L16.3123 20.9668L17.1364 20.7169L17.6122 20.524L17.882 20.3892L17.8661 20.9186L17.7557 22.3337L17.6135 23.6239L17.302 26.1776C17.302 26.1776 17.2541 27.0593 17.1965 27.1941C16.717 28.3071 14.6211 28.6171 14.6211 28.6171C13.0721 28.8011 12.4749 28.6348 12.3682 28.5984C12.3535 28.5935 12.3388 28.5895 12.324 28.5866C8.44128 27.8741 7.10329 28.2323 7.10329 28.2323C4.25561 28.6171 3.55166 29.6189 3.55166 29.6189C3.39223 30.0037 2.27253 30.1326 2.27253 30.1326L0.350779 30.3314C0.310308 30.3353 0.271063 30.3471 0.236724 30.3648C-0.282039 30.6512 0.288233 30.7476 0.288233 30.7476C2.43197 30.9533 2.84771 30.6453 2.84771 30.6453C3.2328 30.4554 5.23427 29.4742 5.52983 29.3286C5.55436 29.3168 5.58134 29.3079 5.60955 29.302C6.36868 29.1662 6.08416 29.5293 6.00199 29.6228C5.9885 29.6376 5.97746 29.6543 5.97011 29.6711C5.28823 31.1354 3.0979 31.7819 2.86733 31.8459C2.85384 31.8498 2.83913 31.8547 2.82686 31.8606C2.03094 32.211 2.84771 32.2366 2.84771 32.2366C5.27597 32.3832 6.69736 29.8472 6.83594 29.5884C6.8433 29.5746 6.8482 29.5599 6.85188 29.5441C6.96716 29.0383 7.98384 29.0491 8.11384 29.0531C8.12242 29.0531 8.13223 29.0531 8.14082 29.055C10.8806 29.3621 11.3589 29.5412 11.3589 29.5412C12.3191 29.7468 11.3589 29.8492 11.3589 29.8492L10.2809 29.9761C10.2747 29.9761 10.2686 29.9781 10.2625 29.9791C6.75377 30.5715 7.18669 32.3389 7.18669 32.3389C7.23697 32.8782 7.61592 32.3389 7.61592 32.3389C8.5443 30.9523 10.3348 30.8756 10.3348 30.8756C11.8384 30.7476 10.5911 31.3115 10.5911 31.3115C9.66277 31.774 9.98286 33.6733 9.98286 33.6733C10.0785 34.187 9.69466 34.3917 9.69466 34.3917C8.19355 35.3689 7.64536 35.7419 7.53989 35.8157C7.5264 35.8255 7.51413 35.8353 7.5031 35.8472C6.74886 36.6197 7.56074 36.5045 7.71894 36.476C7.73488 36.473 7.75083 36.4691 7.76677 36.4632C10.975 35.361 10.8156 34.186 10.8156 34.186C11.0081 32.2346 11.4239 31.7731 11.4239 31.7731C12.6846 30.1021 14.2949 29.9633 14.5548 29.9515C14.5794 29.9505 14.6051 29.9466 14.6284 29.9397C15.3974 29.7203 14.8725 30.1601 14.8197 30.2034C14.8161 30.2064 14.8136 30.2084 14.8099 30.2113L13.5357 31.3873C12.6037 32.1352 12.844 32.9234 12.9127 33.0976C12.9213 33.1193 12.9348 33.1399 12.9507 33.1586C13.4401 33.7058 13.4719 33.1586 13.4719 33.1586C13.3812 32.2425 14.0827 31.6884 14.1673 31.6245C14.1734 31.6195 14.1796 31.6156 14.1845 31.6097L16.9586 29.1023C17.3743 28.6919 17.535 29.1023 17.535 29.1023C17.8771 31.0281 17.5325 31.4385 17.454 31.5044C17.4393 31.5162 17.4283 31.531 17.4185 31.5447C16.7685 32.4777 15.704 32.9756 15.5924 33.0258C15.585 33.0287 15.5789 33.0317 15.5728 33.0356L12.5117 34.7243C10.8843 35.5795 11.0903 37.0044 11.1308 37.214C11.1344 37.2308 11.1393 37.2475 11.1479 37.2642C11.3319 37.6146 11.533 37.3666 11.5956 37.2721C11.6078 37.2534 11.6176 37.2327 11.6225 37.2121C12.1045 35.2114 13.055 35.1101 13.055 35.1101C13.4768 35.0038 13.4069 35.1613 13.4069 35.1613C13.055 36.0085 13.4069 36.3421 13.4069 36.3421C13.819 36.8175 14.003 36.5281 14.0594 36.3963C14.0729 36.3638 14.0766 36.3284 14.0692 36.2939C13.8619 35.2646 13.9772 34.8611 14.0434 34.7292C14.0594 34.6977 14.0839 34.6702 14.117 34.6476L15.6794 33.57C16.2792 33.1596 16.0633 33.7757 16.0633 33.7757C15.3594 35.4447 15.6476 35.7527 15.6476 35.7527C15.8426 36.043 16.181 35.8294 16.2669 35.7674C16.2804 35.7586 16.2914 35.7478 16.3025 35.7369C16.9807 35.0363 16.793 34.5344 16.7452 34.435C16.7403 34.4242 16.7341 34.4143 16.7268 34.4055C16.3282 33.8849 16.9598 33.5129 17.0469 33.4657C17.053 33.4617 17.0591 33.4598 17.0665 33.4568C18.2414 32.9589 18.4008 31.7219 18.4008 31.7219C18.4965 31.465 18.8484 31.6451 18.8484 31.6451C20.5445 32.2612 20.1276 33.4608 20.1276 33.4608C19.7952 35.3453 18.207 35.8521 18.0317 35.9023C18.0194 35.9062 18.0071 35.9101 17.9961 35.9151C14.5303 37.4 15.168 38.6282 15.168 38.6282C15.3238 38.9815 15.52 38.7965 15.5899 38.7128C15.6071 38.6931 15.6181 38.6705 15.6243 38.6469C16.0044 37.3292 18.3027 36.4199 18.3027 36.4199C19.0067 36.0863 18.9429 36.6 18.9429 36.6C18.911 37.2416 19.3267 37.7297 19.3267 37.7297C19.5487 37.9501 19.7425 39.8858 19.7425 39.8858C19.8234 40.0482 19.9816 40.0049 20.0859 39.9518C20.1509 39.9183 20.195 39.8632 20.2048 39.8022C20.4734 38.2877 20.1202 37.6018 20.0675 37.5093C20.0638 37.5014 20.0589 37.4935 20.0564 37.4857C19.5855 36.3402 20.0295 36.0095 20.0295 36.0095C21.3442 34.99 21.5146 33.8819 21.4962 33.3033C21.4913 33.1311 21.7256 33.0238 21.9071 33.1173C22.871 33.6123 22.741 33.8721 22.741 33.8721C23.0292 35.4122 22.4172 35.7586 22.4172 35.7586C21.793 36.288 22.1168 36.6728 22.1168 36.6728C22.3388 37.0458 22.6723 36.7692 22.7484 36.6984C22.7582 36.6895 22.7668 36.6797 22.7754 36.6689C24.0827 34.9388 23.689 34.7863 23.689 34.7863C23.2586 34.4872 23.6535 34.5885 23.7908 34.6289C23.819 34.6367 23.8448 34.6485 23.8668 34.6633C24.3697 34.994 24.5524 35.7586 24.5524 35.7586C24.767 36.167 24.4482 38.0505 24.4114 38.2611C24.4089 38.2739 24.4077 38.2877 24.4089 38.3015C24.4236 38.574 24.5033 38.6557 24.5033 38.6557C24.8124 39.072 24.973 38.7965 25.0172 38.6912C25.0258 38.6705 25.0307 38.6488 25.0319 38.6262C25.092 36.8863 25.3189 36.8647 25.3189 36.8647C25.5997 36.7348 25.6905 36.7496 25.6905 36.7496C26.614 36.7496 27.3657 37.8537 27.5117 38.084C27.5301 38.1125 27.5558 38.1371 27.5865 38.1568C28.4339 38.6784 28.0415 37.9915 28.0415 37.9915C27.1891 36.0568 26.0376 36.3933 26.0376 36.3933C25.5813 36.4888 25.509 36.0873 25.4992 36.0115C25.4992 36.0036 25.4992 35.9958 25.4992 35.9879C25.5421 35.0894 24.9865 34.5206 24.9865 34.5206C22.9887 32.4865 22.0886 32.1254 21.9757 32.086C21.9659 32.0821 21.9561 32.0781 21.9463 32.0732C20.2809 31.2682 19.8516 30.6443 19.8516 30.6443C18.9404 29.3483 19.9314 28.6033 19.9314 28.6033C20.3299 28.2953 20.7911 28.5758 20.8879 28.6417C20.9014 28.6515 20.9161 28.6594 20.9333 28.6663C23.0219 29.551 23.7381 31.1472 23.7982 31.2899C23.8018 31.2968 23.8043 31.3036 23.808 31.3105C24.4015 32.3753 25.6414 33.6005 25.8266 33.7806C25.8413 33.7953 25.8597 33.8081 25.8794 33.819C26.5747 34.2028 26.4754 34.9644 26.4263 35.1967C26.4153 35.2508 26.4312 35.3069 26.4692 35.3522C26.6115 35.5175 26.7391 35.4043 26.8016 35.3256C26.8286 35.2912 26.8408 35.2518 26.8408 35.2114L26.8298 34.5728C26.8261 34.3917 27.091 34.2874 27.2639 34.4045C27.714 34.7076 27.8808 35.6385 27.8808 35.6385C28.093 35.9387 28.2365 35.7556 28.2892 35.6602C28.3039 35.6326 28.3125 35.6031 28.3137 35.5736C28.337 34.1053 26.9856 33.7648 26.9856 33.7648C26.4607 33.628 26.1884 33.321 26.132 33.2521C26.1259 33.2443 26.1197 33.2364 26.1148 33.2275L25.677 32.4964C25.5911 32.3537 25.7236 32.1854 25.921 32.1903C26.82 32.2129 27.5902 32.4688 27.7643 32.5308C27.7901 32.5397 27.8183 32.5456 27.8465 32.5475C28.64 32.6076 27.9458 32.2356 27.9458 32.2356C27.7349 31.7957 25.8205 31.6195 25.3581 31.5831C25.2931 31.5782 25.2318 31.5556 25.1889 31.5162C24.6983 31.0763 24.4837 30.4062 24.3979 30.0371C24.366 29.8994 24.5058 29.7724 24.6799 29.7852C27.2787 29.9771 29.1967 31.9443 29.2875 32.0388C29.2899 32.0417 29.2924 32.0437 29.2961 32.0466L30.3483 33.0317C30.4047 33.0839 30.4268 33.1547 30.4047 33.2216C30.0405 34.2933 31.1761 35.7832 31.4104 36.0745C31.4374 36.1079 31.4741 36.1345 31.5183 36.1503C32.2958 36.4386 31.9316 35.855 31.9316 35.855C31.2031 34.6574 31.235 33.693 31.2926 33.2964C31.3086 33.1842 31.4337 33.1026 31.5735 33.1094C33.4903 33.198 34.1146 33.9597 34.2666 34.2028C34.2973 34.252 34.35 34.2913 34.415 34.311C35.1276 34.5186 34.6677 34.0266 34.6677 34.0266C33.467 32.4393 31.8556 32.4875 31.625 32.5032C31.6041 32.5042 31.5845 32.5042 31.5637 32.5023C30.9345 32.4324 30.7395 32.2188 30.6954 32.1568C30.6856 32.1441 30.6758 32.1313 30.6623 32.1204L30.1141 31.6264C30.1141 31.6264 30.1055 31.6186 30.1006 31.6156L28.3052 30.2133C28.2904 30.2025 28.2745 30.1916 28.2573 30.1838C27.7754 29.9486 28.3321 30.0037 28.3321 30.0037C29.9522 30.0214 32.0591 30.5823 32.3142 30.6512C32.3326 30.6561 32.3498 30.6591 32.3694 30.6601C32.9875 30.7112 32.9642 31.1974 32.9642 31.1974C33.0439 31.5024 33.2917 31.8478 33.3714 31.9541C33.3873 31.9758 33.4082 31.9945 33.4327 32.0102C33.9134 32.3173 33.949 31.9836 33.949 31.8803C33.949 31.8636 33.9466 31.8469 33.9416 31.8311L33.8632 31.5634C33.8558 31.5379 33.8423 31.5133 33.8239 31.4916L33.5541 31.1757C33.5443 31.1649 33.5333 31.1541 33.521 31.1442C33.1408 30.8461 33.3959 30.6965 33.3959 30.6965C33.6351 30.417 33.9919 30.7703 34.0569 30.8392C34.0643 30.848 34.0729 30.8549 34.0827 30.8628L34.8271 31.4414C34.8271 31.4414 34.8369 31.4503 34.8418 31.4542C35.4869 32.0643 36.1308 32.1401 36.1308 32.1401L36.7072 32.2169C37.259 32.1401 36.7317 31.8892 36.7317 31.8892C35.3863 31.4709 35.1006 31.0379 35.0589 30.9582C35.0528 30.9474 35.0466 30.9376 35.0393 30.9277C34.6002 30.3707 33.7847 30.1729 33.7148 30.1572C33.7111 30.1572 33.7062 30.1552 33.7025 30.1542L32.6061 29.8482L31.0351 29.4634C30.2576 29.2587 30.861 29.0983 31.0057 29.0658C31.0253 29.0619 31.0437 29.059 31.0633 29.058L32.8698 28.9822C33.6289 28.9084 34.4543 29.4004 34.5205 29.4418C34.5242 29.4437 34.5279 29.4457 34.5315 29.4477L36.0854 30.291C36.8776 30.7722 37.9336 30.8303 37.9336 30.8303C39.0937 30.8805 39.61 30.7575 39.729 30.723C39.7462 30.7181 39.7633 30.7112 39.7793 30.7034C40.341 30.4239 39.7572 30.3491 39.7572 30.3491H39.7339Z" fill="#284E72"/>
<path d="M8.06611 33.326C8.06611 33.326 9.68127 33.268 8.10658 32.832C8.10658 32.832 4.1392 32.7297 4.07543 34.0129C4.07543 34.0129 3.94789 34.937 4.65183 34.0129C4.65183 34.0129 5.09211 33.2621 8.06734 33.326H8.06611Z" fill="#284E72"/>
<path d="M18.9624 1.23999L18.4743 2.03907L17.6821 3.03004L17.0002 3.59884L16.6519 3.88717L16.5403 3.98361H16.6826H17.1106L17.5079 3.88717L17.9826 3.68544L17.8403 4.11843L17.5239 4.51305L17.1584 4.85945L16.5403 5.2826L15.8744 5.5916L15.3041 5.82188L15.0184 5.92816L15.4464 5.97638H15.9222L16.6041 5.89962L17.3166 5.75496L17.8403 5.55224L18.0304 5.44694L18.126 5.45678L18.0463 5.6782L17.6183 6.15942L17.064 6.63079L16.3981 7.11201L15.6524 7.49679L14.8602 7.81465L14.0826 8.05575L13.6387 8.15218L13.7184 8.23878L14.2887 8.3057H15.114L16.0326 8.23878L16.7145 8.09412L17.2541 7.93077V8.01737L17.1425 8.16104L17.048 8.24863L17.2541 8.22894L17.6502 8.10397L18.2205 7.81465L18.6485 7.43971L18.9624 7.17991L19.426 7.45841L20.3605 7.91109L21.154 8.16104L21.8984 8.3057H22.7544L23.3885 8.2191L23.754 8.11381L23.5786 8.0459L22.9764 7.87271L22.3105 7.62275L21.6764 7.22813L20.8523 6.68885L20.4243 6.40938L20.0601 6.15942L19.9325 6.18796L19.9644 6.2844L20.1545 6.76561L20.5359 7.15039L20.8364 7.45841L20.9001 7.56469L20.6144 7.44955L19.9803 7.16023L19.426 6.75577L19.0765 6.36116L18.8545 6.65933L18.348 6.96735L17.8243 7.21829L17.1425 7.44955L17.6821 7.02541L18.2205 6.46744L18.6325 6.08168L18.8386 5.58176L19.0446 5.00411L19.0765 4.56127L19.3463 4.77285L19.6946 4.96573L20.2023 5.13893L20.5506 5.23536L20.6463 5.196L20.5506 5.04248L20.0919 4.53175L19.6002 3.94523L19.2825 3.47287L19.1722 3.01134L19.442 3.12648L19.8859 3.33805L20.2661 3.45418L20.3924 3.46402L20.4243 3.36758L20.2023 3.156L19.5045 2.3087L19.0765 1.58639L18.9624 1.23999Z" fill="#259462"/>
<path d="M17.0799 8.81641L16.398 9.52888L15.2881 10.5012L14.1942 11.252L13.0683 11.8001L12.1019 12.1377L11.4826 12.301L11.3882 12.368L12.1179 12.426L13.2584 12.368L14.3524 12.1948L15.2722 11.9448L16.1122 11.6565L16.604 11.4636L16.5721 11.6269L16.4765 11.7814L16.3183 11.9251L16.62 11.8966L17.2381 11.6752L17.7299 11.4636L18.3161 11.0011L18.6963 10.5012V10.1636V9.95204L17.9984 10.3368L17.3166 10.6212L16.62 10.8761L16.0644 11.0493L16.3502 10.7708L16.5881 10.4628L16.8886 9.9422L17.0946 9.40292L17.1743 9.01814L17.0799 8.81641Z" fill="#259462"/>
<path d="M19.3464 8.39233L19.5525 8.98967L19.9327 9.48073L20.6305 9.9521L21.4387 10.2798L22.5804 10.4333H23.4524H23.5787L22.8184 10.1637L22.0102 9.77891L21.1382 9.48073L20.4085 9.10481L19.9486 8.81647L19.3464 8.39233Z" fill="#37A32D"/>
<path d="M20.2023 10.51H20.1079V10.6212L20.3924 10.8958L21.3441 11.4734L22.0579 11.7814L23.0562 12.0599L24.1023 12.3207L25.244 12.426H26.1001H26.544L26.0044 12.2912L25.038 12.0216L24.4346 11.7913L23.754 11.56L23.4842 11.3386L23.326 11.1743L22.9924 11.1359L22.3424 11.1073L21.598 11.0109L20.9161 10.8476L20.52 10.6744L20.2023 10.51Z" fill="#259462"/>
<path d="M16.0326 12.7537L15.3826 13.35L14.5744 13.8706L13.5921 14.3223L12.4662 14.6982L11.1344 15.0249L10.0404 15.266L9.69214 15.3428L9.85034 15.4776L10.58 15.7472L11.8003 15.8535H13.0684L14.3046 15.7571L15.336 15.5553L16.2239 15.3625V15.4678L16.0485 15.7571L15.8744 16.0848L15.8584 16.1517L16.2239 16.0267L16.9683 15.7285L17.6661 15.2857L18.0463 14.9295L18.364 14.4955L18.4584 14.1875V14.0438L18.2364 14.1589L17.6183 14.3804L16.8739 14.6018L16.192 14.7366L15.7162 14.8232L15.764 14.7366L16.1442 14.5732L16.7942 14.2455L17.3485 13.7929L17.5545 13.5045L17.6821 13.2447L17.6343 13.167L17.4601 13.2349L17.1106 13.4081L16.5563 13.6393L15.97 13.8706L15.5101 14.0438L15.7002 13.7742L15.97 13.3795L16.1601 13.0135L16.208 12.7537H16.0326Z" fill="#259462"/>
<path d="M20.108 11.7815L20.2343 12.5323L20.7421 13.235L21.4239 13.7841L22.4222 14.3234L23.4843 14.777L23.77 14.901H23.3898L22.28 14.5645L21.2657 14.16L20.4575 13.7172L19.7757 13.236L19.3477 12.9565V13.2645L19.5856 13.8136L19.9976 14.2663L21.0438 14.902L21.9954 15.2386L23.7713 15.6234L25.1227 15.7779H26.435L27.497 15.6627L28.1789 15.4698L28.4487 15.3252L27.513 15.2189L26.8152 15.1126L25.6108 14.777L24.5807 14.41L23.629 13.9868L22.8527 13.5538C22.8527 13.5538 22.0764 13.0913 22.0126 13.0726C21.9488 13.0539 21.4104 12.7548 21.4104 12.7548L20.6648 12.3405L20.3791 12.0039L20.1092 11.7825L20.108 11.7815Z" fill="#259462"/>
<path d="M18.7283 15.8921L17.8723 16.3536L17.0003 16.7197L15.7322 17.0956L14.7021 17.2787L13.5762 17.4607L13.9564 17.2206L14.0754 17.0858L13.7823 17.1625L13.1323 17.3938L11.9108 17.6349L10.6121 17.8366L9.93018 17.9036L10.3741 18.0777L11.0401 18.2126H12.0384L12.99 18.1545L13.6241 18.1063L13.8301 18.0777L13.6081 18.2126L13.0685 18.5206L12.5301 18.8188L11.7845 19.1071L11.0401 19.3482L10.2466 19.6178L9.93018 19.733L9.77075 19.8196H9.94613H10.7543L11.6901 19.7625L12.6405 19.6464L13.4806 19.4535L14.6542 19.1366L15.5888 18.8089L15.9383 18.6554L15.9223 19.0106L15.796 19.4535L15.5422 19.8196L15.4943 19.9258H15.6525L16.224 19.8196L16.9206 19.5499L17.7766 19.0982L18.2844 18.6554L18.4585 18.3277L18.2844 18.3946L17.8085 18.6072L17.2542 18.7322L17.0003 18.7607L16.8581 18.7322L17.0322 18.5393L17.1745 18.1929L17.2383 17.8268L17.2701 17.5955L18.0146 17.1143L18.5382 16.6144L18.7283 16.1519V15.8921Z" fill="#259462"/>
<path d="M19.7743 17.1438L19.6479 17.6053V18V18.491L19.9644 18.8571L20.5665 19.3196L21.344 19.6276L22.1044 19.8579H22.232L21.7242 19.4062L21.2324 18.9151L20.5506 18.2509L20.1863 17.7303L19.7743 17.1438Z" fill="#259462"/>
<path d="M21.9304 16.3347L23.0722 16.8258L24.4359 17.2204L26.1002 17.5865L27.7963 17.9092L27.0984 18.0588L26.2265 18.1356L25.3545 18.0874L24.3084 17.9092L23.1666 17.5196C23.1666 17.5196 22.4369 17.0383 22.3584 17.0098C22.2799 16.9813 21.9304 16.5089 21.9304 16.5089V16.3357V16.3347Z" fill="#259462"/>
<path d="M25.26 18.8284L26.2105 19.0586L27.1462 19.3283L27.8906 19.5792L28.5566 19.8193L27.9863 19.8577H27.0665L26.4006 19.714L25.8303 19.4346L25.4182 19.0586L25.26 18.8284Z" fill="#259462"/>
</g>
<defs>
<clipPath id="clip0_190_2">
<rect width="40" height="40" fill="white"/>
</clipPath>
</defs>
</svg>
