<svg width="38" height="35" viewBox="0 0 38 35" fill="none" xmlns="http://www.w3.org/2000/svg">
<g clip-path="url(#clip0_203_74)">
<path d="M37.5862 26.5557C35.4609 26.7029 35.1256 26.3861 35.0757 26.3043C35.0676 26.2905 35.0571 26.2767 35.0444 26.2647C33.5745 24.8869 31.9574 24.837 31.9574 24.837C28.6255 24.7147 27.6047 25.0497 27.4422 25.1134C27.4225 25.1211 27.4016 25.1263 27.3796 25.1306C25.8622 25.3915 25.1255 25.2589 25.1255 25.2589C22.013 24.8181 21.3575 24.0474 20.919 23.8209C20.2659 23.4834 20.2693 22.9065 20.2693 22.9065L19.6893 17.8167L20.1696 18.0104L20.9944 18.2799L21.4898 18.3893L22.2543 18.5073L23.1696 18.5658L24.1476 18.5408L24.5791 18.4823L24.6545 18.4401L24.31 18.2128L24.0397 17.9941L23.9643 17.8425L24.2496 17.8847L24.955 17.9854L25.8552 18.112L26.7555 18.1456L27.6557 18.1284L28.7207 17.9682L29.8309 17.6815L30.3263 17.4964V17.4378L30.1163 17.4128L29.7114 17.3543L27.9272 17.0004L26.7729 16.6714L26.4434 16.5785L26.4283 16.5199L26.8332 16.4613L27.5826 16.2426L28.1673 15.9955L28.6673 15.7432L28.9272 15.5744L28.9666 15.4961L28.9365 15.4565L28.7462 15.4393L28.2868 15.4281L27.6569 15.3945L27.2265 15.3437L26.5571 15.2317L25.7671 15.0578L24.8378 14.7771L24.2775 14.5808L24.3077 14.5472L24.738 14.5532L25.4074 14.536L25.8773 14.5024L26.397 14.4516L26.7671 14.3784L27.1673 14.294L27.6267 14.1588L28.1267 13.9565L28.6661 13.6474L29.0061 13.3951L29.2265 13.1987L29.2566 13.1092L29.1163 13.092L28.6766 13.0696L27.9968 13.0412L27.4863 13.0171L26.7566 12.9344L26.0165 12.7992L25.1766 12.5969L24.2264 12.2938L23.4666 11.9287L23.0072 11.6591L22.8471 11.536L22.9376 11.5076L23.1673 11.5636L23.5571 11.6144L24.2067 11.6428H25.0269L25.8169 11.5584L26.6267 11.3784L26.9272 11.2777L27.3065 11.0814L27.607 10.879L27.6766 10.7895L27.607 10.7163L27.3668 10.6767L27.0165 10.6482L25.6174 10.3899L24.658 10.1204L23.8877 9.83367L23.593 9.67954L23.6081 9.62099L24.223 9.59602L24.5675 9.52024L25.0478 9.43586L25.3483 9.34286L25.4086 9.29206L25.2137 9.24126L24.6441 9.15687L23.8192 8.97174L22.9341 8.66864L22.1696 8.35694L21.7647 8.10464L22.1997 8.11325L22.89 8.0547L23.5953 7.94534L24.0756 7.79379L24.6 7.61727L24.9898 7.38995L25.1545 7.21343L25.1244 7.09547L24.8993 7.0283L24.0292 6.89311L22.7844 6.58141L22.0049 6.31189L21.3146 6.0174L21.0292 5.81505L21.0443 5.76425L21.5397 5.81505L22.035 5.80644L22.7102 5.73067L23.2346 5.58773L23.6847 5.44479L23.9851 5.26827L23.9399 5.22608L23.6255 5.15891L22.3204 4.81362L21.6603 4.61127L20.941 4.30817L20.716 4.1816L20.7311 4.13079L20.941 4.11357L21.5559 4.10496L22.0211 4.02919L22.3065 3.93619L22.3517 3.87764L22.2473 3.78464L21.1673 3.1862L20.4178 2.60497L19.7728 1.98156L19.2032 1.2574L18.3297 0.00195312L17.5837 1.04643L16.6243 2.25968L15.6649 3.03465L14.7055 3.67443L14.3459 3.87678L14.3958 3.94997L14.6452 4.03435L14.9746 4.08516L15.4248 4.11874H15.745L15.8053 4.15232L15.7658 4.20312L15.506 4.34348L14.8366 4.64658L13.8865 4.94451L13.0361 5.15203L12.6962 5.22522L12.6359 5.28119L12.7554 5.34835L13.2357 5.55587L13.7159 5.70225L14.3053 5.78061L15.0152 5.81419H15.5953L15.4839 5.93732L14.9155 6.18445L14.3958 6.398L13.6359 6.63393L12.7855 6.84145L12.0454 6.96458L11.5257 7.06016L11.3551 7.10494V7.18932L11.4746 7.29007L11.8841 7.55958L12.4039 7.76194L12.8841 7.91951L13.4839 8.02026L14.1835 8.08742H15.0036L14.6243 8.30097L14.1243 8.58168L13.6046 8.78403L12.8053 9.01996L12.0257 9.19993L11.6057 9.28948L11.5257 9.39022L11.6858 9.45739L11.9062 9.54694L12.3261 9.6141H12.8459L12.6463 9.78287L12.166 10.03L11.1858 10.3107L10.1463 10.5578L9.40616 10.681L9.12658 10.7369V10.8833L9.42704 11.1304L9.92705 11.3664L10.4874 11.4775L11.0071 11.5687L11.8865 11.6247L12.8064 11.5799L13.7299 11.4775L14.006 11.3888V11.5352L13.7299 11.7375L13.1463 12.063L12.0071 12.4841L10.6869 12.8044L9.12774 13.0162L7.47807 13.1083L7.50824 13.2435L7.71822 13.4373L8.21358 13.7576L8.80639 14.0357L9.3992 14.2251L10.1869 14.4232L11.1695 14.5498L11.8598 14.579H12.3169L12.2565 14.6255L12.0315 14.7013L11.2693 14.9622L10.47 15.1758L9.67995 15.3049L8.88064 15.3945L8.20082 15.4341H7.70081L7.69037 15.5124L7.84003 15.6864L8.16949 15.8603L8.75883 16.1186L9.27855 16.3038L9.818 16.4553L10.1881 16.5225L10.238 16.5561L10.108 16.6232L9.4282 16.8084L8.62889 17.0271L7.7391 17.2182L7.01984 17.3414L6.53027 17.4197L6.35046 17.4421L6.41078 17.5205L6.85046 17.7168L7.7507 17.9467L8.70082 18.0931L9.20082 18.1327H10.2206L10.84 18.0991L11.7101 17.9984L12.3435 17.8752L12.6602 17.8416L12.7298 17.864L12.7194 17.9536L12.5593 18.1335L12.1892 18.3635L12.0698 18.4366L12.1301 18.4702L12.4503 18.5262L12.7403 18.5546H13.5106L14.3656 18.4814L15.4306 18.3462L16.2102 18.1275L16.6603 17.9587L16.9155 17.8408L16.9004 18.304L16.796 19.5423L16.6614 20.6711L16.3668 22.9056C16.3668 22.9056 16.3215 23.6771 16.267 23.7951C15.8134 24.769 13.8308 25.0402 13.8308 25.0402C12.3656 25.2012 11.8006 25.0557 11.6997 25.0238C11.6858 25.0195 11.6718 25.0161 11.6579 25.0135C7.98504 24.3901 6.71937 24.7035 6.71937 24.7035C4.02562 25.0402 3.35972 25.9168 3.35972 25.9168C3.20891 26.2535 2.14973 26.3663 2.14973 26.3663L0.331857 26.5402C0.293574 26.5436 0.256451 26.554 0.223968 26.5695C-0.266754 26.82 0.272692 26.9044 0.272692 26.9044C2.30055 27.0844 2.69382 26.8149 2.69382 26.8149C3.05809 26.6487 4.95138 25.7902 5.23096 25.6628C5.25416 25.6524 5.27969 25.6447 5.30637 25.6395C6.02447 25.5207 5.75533 25.8384 5.6776 25.9202C5.66484 25.9331 5.6544 25.9478 5.64744 25.9624C5.00242 27.2437 2.93048 27.8094 2.71238 27.8654C2.69962 27.8688 2.6857 27.8731 2.6741 27.8783C1.92119 28.1848 2.69382 28.2072 2.69382 28.2072C4.99082 28.3355 6.33538 26.1165 6.46647 25.8901C6.47343 25.878 6.47807 25.8651 6.48155 25.8513C6.5906 25.4087 7.55232 25.4182 7.67529 25.4217C7.68341 25.4217 7.69269 25.4217 7.70081 25.4234C10.2925 25.692 10.7449 25.8488 10.7449 25.8488C11.6533 26.0287 10.7449 26.1183 10.7449 26.1183L9.72519 26.2293C9.71939 26.2293 9.71359 26.2311 9.70779 26.2319C6.38874 26.7503 6.79826 28.2968 6.79826 28.2968C6.84582 28.7687 7.20429 28.2968 7.20429 28.2968C8.08249 27.0835 9.77623 27.0164 9.77623 27.0164C11.1985 26.9044 10.0187 27.3978 10.0187 27.3978C9.1405 27.8025 9.44329 29.4644 9.44329 29.4644C9.53377 29.9139 9.17066 30.093 9.17066 30.093C7.7507 30.948 7.23213 31.2744 7.13237 31.339C7.1196 31.3476 7.108 31.3562 7.09756 31.3665C6.3841 32.0424 7.15209 31.9417 7.30174 31.9167C7.31682 31.9141 7.3319 31.9107 7.34698 31.9055C10.3818 30.9411 10.231 29.913 10.231 29.913C10.4131 28.2055 10.8064 27.8017 10.8064 27.8017C11.999 26.3396 13.5222 26.2182 13.7681 26.2078C13.7913 26.207 13.8157 26.2035 13.8377 26.1975C14.5651 26.0055 14.0686 26.3904 14.0187 26.4283C14.0152 26.4308 14.0129 26.4326 14.0094 26.4351L12.8041 27.4641C11.9224 28.1185 12.1498 28.8083 12.2148 28.9607C12.2229 28.9796 12.2356 28.9977 12.2507 29.0141C12.7136 29.4928 12.7438 29.0141 12.7438 29.0141C12.6579 28.2124 13.3215 27.7276 13.4015 27.6716C13.4073 27.6673 13.4131 27.6639 13.4178 27.6587L16.0419 25.4647C16.4352 25.1057 16.5872 25.4647 16.5872 25.4647C16.9109 27.1498 16.5849 27.5089 16.5106 27.5666C16.4967 27.5769 16.4863 27.5898 16.477 27.6019C15.8621 28.4182 14.8552 28.8539 14.7496 28.8978C14.7426 28.9004 14.7368 28.903 14.731 28.9064L11.8354 30.384C10.296 31.1323 10.4909 32.3791 10.5291 32.5625C10.5326 32.5772 10.5373 32.5918 10.5454 32.6065C10.7194 32.913 10.9097 32.696 10.9688 32.6133C10.9804 32.597 10.9897 32.5789 10.9943 32.5608C11.4503 30.8103 12.3493 30.7216 12.3493 30.7216C12.7484 30.6286 12.6823 30.7663 12.6823 30.7663C12.3493 31.5077 12.6823 31.7996 12.6823 31.7996C13.0721 32.2155 13.2461 31.9624 13.2995 31.847C13.3122 31.8186 13.3157 31.7876 13.3087 31.7574C13.1127 30.8568 13.2217 30.5037 13.2844 30.3883C13.2995 30.3608 13.3227 30.3367 13.354 30.3169L14.832 29.374C15.3992 29.0149 15.1951 29.5539 15.1951 29.5539C14.5292 31.0143 14.8018 31.2838 14.8018 31.2838C14.9862 31.5379 15.3064 31.351 15.3876 31.2968C15.4004 31.289 15.4108 31.2795 15.4213 31.2701C16.0628 30.657 15.8853 30.2178 15.8401 30.1309C15.8354 30.1214 15.8296 30.1128 15.8227 30.105C15.4456 29.6495 16.0431 29.324 16.1255 29.2827C16.1313 29.2793 16.1371 29.2775 16.144 29.275C17.2554 28.8393 17.4062 27.7569 17.4062 27.7569C17.4967 27.5322 17.8297 27.6897 17.8297 27.6897C19.4341 28.2288 19.0396 29.2784 19.0396 29.2784C18.7252 30.9274 17.2229 31.3708 17.057 31.4147C17.0454 31.4182 17.0338 31.4216 17.0234 31.4259C13.7449 32.7253 14.3482 33.7999 14.3482 33.7999C14.4955 34.109 14.6811 33.9471 14.7473 33.8739C14.7635 33.8567 14.7739 33.8369 14.7797 33.8163C15.1394 32.6633 17.3134 31.8676 17.3134 31.8676C17.9793 31.5757 17.919 32.0252 17.919 32.0252C17.8888 32.5866 18.2821 33.0137 18.2821 33.0137C18.4921 33.2066 18.6754 34.9003 18.6754 34.9003C18.7519 35.0424 18.9016 35.0045 19.0002 34.958C19.0617 34.9288 19.1034 34.8805 19.1127 34.8272C19.3668 33.502 19.0327 32.9018 18.9828 32.8209C18.9793 32.814 18.9747 32.8071 18.9723 32.8002C18.5269 31.7979 18.9468 31.5086 18.9468 31.5086C20.1905 30.6165 20.3517 29.6469 20.3343 29.1406C20.3297 28.9899 20.5512 28.8961 20.7229 28.9779C21.6348 29.411 21.5118 29.6383 21.5118 29.6383C21.7844 30.9859 21.2055 31.289 21.2055 31.289C20.6151 31.7523 20.9213 32.0889 20.9213 32.0889C21.1313 32.4153 21.4468 32.1733 21.5188 32.1113C21.5281 32.1036 21.5362 32.095 21.5443 32.0855C22.781 30.5717 22.4086 30.4383 22.4086 30.4383C22.0014 30.1765 22.3749 30.2652 22.5049 30.3005C22.5315 30.3074 22.5559 30.3177 22.5768 30.3306C23.0524 30.62 23.2253 31.289 23.2253 31.289C23.4283 31.6464 23.1267 33.2944 23.0919 33.4787C23.0895 33.4899 23.0884 33.502 23.0895 33.514C23.1035 33.7525 23.1789 33.824 23.1789 33.824C23.4712 34.1882 23.6232 33.9471 23.665 33.855C23.6731 33.8369 23.6777 33.818 23.6789 33.7982C23.7357 32.2758 23.9503 32.2569 23.9503 32.2569C24.216 32.1432 24.3019 32.1561 24.3019 32.1561C25.1754 32.1561 25.8865 33.1222 26.0246 33.3237C26.042 33.3487 26.0664 33.3702 26.0954 33.3874C26.897 33.8438 26.5258 33.2428 26.5258 33.2428C25.7195 31.5499 24.6302 31.8444 24.6302 31.8444C24.1986 31.9279 24.1302 31.5766 24.1209 31.5103C24.1209 31.5034 24.1209 31.4965 24.1209 31.4896C24.1615 30.7035 23.636 30.2058 23.636 30.2058C21.7462 28.4259 20.8946 28.1099 20.7879 28.0755C20.7786 28.072 20.7693 28.0686 20.7601 28.0643C19.1846 27.3599 18.7786 26.814 18.7786 26.814C17.9167 25.68 18.854 25.0282 18.854 25.0282C19.2311 24.7586 19.6673 25.004 19.7589 25.0617C19.7717 25.0703 19.7856 25.0772 19.8018 25.0833C21.7775 25.8574 22.455 27.254 22.5118 27.3789C22.5153 27.3849 22.5176 27.3909 22.5211 27.397C23.0826 28.3286 24.2554 29.4007 24.4306 29.5583C24.4445 29.5712 24.4619 29.5824 24.4805 29.5918C25.1383 29.9277 25.0443 30.5941 24.9979 30.7973C24.9875 30.8447 25.0026 30.8938 25.0385 30.9334C25.1731 31.078 25.2937 30.979 25.3529 30.9101C25.3784 30.88 25.39 30.8456 25.39 30.8103L25.3796 30.2514C25.3761 30.093 25.6267 30.0017 25.7903 30.1042C26.216 30.3694 26.3738 31.184 26.3738 31.184C26.5745 31.4466 26.7102 31.2864 26.7601 31.2029C26.774 31.1788 26.7821 31.153 26.7833 31.1271C26.8053 29.8424 25.5269 29.5445 25.5269 29.5445C25.0304 29.4248 24.7729 29.1561 24.7195 29.0959C24.7137 29.089 24.7079 29.0821 24.7032 29.0743L24.2891 28.4346C24.2079 28.3097 24.3332 28.1625 24.5199 28.1668C25.3703 28.1866 26.0988 28.4104 26.2636 28.4647C26.2879 28.4724 26.3146 28.4776 26.3413 28.4793C27.0919 28.5319 26.4353 28.2064 26.4353 28.2064C26.2357 27.8215 24.4248 27.6673 23.9875 27.6355C23.926 27.6312 23.868 27.6114 23.8274 27.5769C23.3633 27.192 23.1603 26.6056 23.0791 26.2827C23.0489 26.1622 23.1812 26.0511 23.3459 26.0623C25.8042 26.2302 27.6186 27.9515 27.7044 28.0342C27.7067 28.0367 27.7091 28.0385 27.7125 28.041L28.7079 28.903C28.7613 28.9486 28.7822 29.0106 28.7613 29.0692C28.4167 30.0069 29.491 31.3105 29.7126 31.5654C29.7381 31.5947 29.7729 31.6179 29.8146 31.6317C30.5501 31.884 30.2056 31.3734 30.2056 31.3734C29.5165 30.3255 29.5467 29.4816 29.6012 29.1346C29.6163 29.0364 29.7346 28.965 29.8669 28.971C31.6801 29.0485 32.2706 29.715 32.4144 29.9277C32.4434 29.9707 32.4933 30.0052 32.5548 30.0224C33.2288 30.2041 32.7938 29.7735 32.7938 29.7735C31.658 28.3846 30.1337 28.4268 29.9156 28.4406C29.8959 28.4414 29.8773 28.4414 29.8576 28.4397C29.2624 28.3786 29.078 28.1917 29.0362 28.1375C29.0269 28.1263 29.0177 28.1151 29.0049 28.1056L28.4863 27.6734C28.4863 27.6734 28.4782 27.6665 28.4736 27.6639L26.7752 26.4369C26.7613 26.4274 26.7462 26.4179 26.7299 26.411C26.274 26.2052 26.8007 26.2535 26.8007 26.2535C28.3332 26.269 30.3262 26.7598 30.5675 26.82C30.585 26.8243 30.6012 26.8269 30.6198 26.8278C31.2044 26.8726 31.1824 27.2979 31.1824 27.2979C31.2578 27.5649 31.4921 27.8671 31.5676 27.9601C31.5826 27.979 31.6024 27.9954 31.6256 28.0092C32.0803 28.2778 32.114 27.9859 32.114 27.8955C32.114 27.8809 32.1116 27.8662 32.107 27.8525L32.0328 27.6183C32.0258 27.5959 32.013 27.5743 31.9956 27.5554L31.7404 27.279C31.7311 27.2695 31.7207 27.2601 31.7091 27.2514C31.3495 26.9905 31.5908 26.8597 31.5908 26.8597C31.817 26.6151 32.1546 26.9242 32.2161 26.9845C32.223 26.9923 32.2311 26.9983 32.2404 27.0052L32.9446 27.5115C32.9446 27.5115 32.9539 27.5192 32.9585 27.5227C33.5687 28.0565 34.1778 28.1228 34.1778 28.1228L34.723 28.19C35.2451 28.1228 34.7462 27.9033 34.7462 27.9033C33.4736 27.5373 33.2033 27.1584 33.1639 27.0887C33.1581 27.0792 33.1523 27.0706 33.1453 27.062C32.73 26.5746 31.9585 26.4016 31.8924 26.3878C31.8889 26.3878 31.8843 26.3861 31.8808 26.3852L30.8437 26.1174L29.3576 25.7807C28.6221 25.6016 29.1928 25.4613 29.3297 25.4329C29.3483 25.4294 29.3657 25.4268 29.3842 25.426L31.0931 25.3597C31.8112 25.2951 32.5919 25.7256 32.6546 25.7618C32.6581 25.7635 32.6615 25.7652 32.665 25.767L34.1349 26.5049C34.8843 26.926 35.8831 26.9768 35.8831 26.9768C36.9806 27.0207 37.469 26.913 37.5815 26.8829C37.5978 26.8786 37.614 26.8726 37.6291 26.8657C38.1604 26.6211 37.6082 26.5557 37.6082 26.5557H37.5862Z" fill="#284E72"/>
<path d="M7.62994 29.1603C7.62994 29.1603 9.15779 29.1095 7.66822 28.728C7.66822 28.728 3.9153 28.6385 3.85497 29.7613C3.85497 29.7613 3.73432 30.5698 4.40022 29.7613C4.40022 29.7613 4.81669 29.1043 7.6311 29.1603H7.62994Z" fill="#284E72"/>
<path d="M17.9376 1.08496L17.4759 1.78415L16.7265 2.65125L16.0814 3.14895L15.752 3.40125L15.6464 3.48563H15.781H16.1859L16.5617 3.40125L17.0107 3.22473L16.8761 3.6036L16.5768 3.94889L16.2311 4.25198L15.6464 4.62225L15.0165 4.89262L14.477 5.09411L14.2067 5.18711L14.6116 5.2293H15.0617L15.7067 5.16214L16.3808 5.03556L16.8761 4.85818L17.0559 4.76604L17.1464 4.77466L17.071 4.9684L16.6661 5.38946L16.1418 5.80191L15.5118 6.22298L14.8065 6.55966L14.0571 6.83778L13.3216 7.04875L12.9016 7.13313L12.977 7.20891L13.5165 7.26746H14.2972L15.1661 7.20891L15.8111 7.08233L16.3216 6.93939V7.01517L16.216 7.14088L16.1267 7.21752L16.3216 7.2003L16.6963 7.09094L17.2357 6.83778L17.6406 6.50972L17.9376 6.28239L18.3761 6.52608L19.2601 6.92217L20.0107 7.14088L20.7149 7.26746H21.5246L22.1244 7.19168L22.4701 7.09955L22.3042 7.04014L21.7346 6.88859L21.1047 6.66988L20.5049 6.32458L19.7253 5.85272L19.3204 5.60817L18.9759 5.38946L18.8552 5.41443L18.8854 5.49882L19.0652 5.91988L19.426 6.25656L19.7102 6.52608L19.7706 6.61907L19.5003 6.51833L18.9005 6.26517L18.3761 5.91127L18.0455 5.56598L17.8355 5.82689L17.3564 6.0964L16.861 6.31597L16.216 6.51833L16.7265 6.1472L17.2357 5.65898L17.6255 5.32144L17.8204 4.88401L18.0153 4.37856L18.0455 3.99108L18.3007 4.17621L18.6302 4.34498L19.1105 4.49653L19.4399 4.58091L19.5304 4.54647L19.4399 4.41214L19.0061 3.96525L18.5409 3.45205L18.2404 3.03873L18.136 2.63489L18.3912 2.73564L18.8112 2.92077L19.1708 3.02237L19.2903 3.03098L19.3204 2.9466L19.1105 2.76147L18.4504 2.02009L18.0455 1.38806L17.9376 1.08496Z" fill="#259462"/>
<path d="M16.1567 7.71436L15.5117 8.33777L14.4618 9.18851L13.427 9.84551L12.362 10.3251L11.4479 10.6205L10.862 10.7634L10.7727 10.822L11.463 10.8728L12.5419 10.822L13.5767 10.6704L14.4467 10.4517L15.2414 10.1994L15.7066 10.0306L15.6765 10.1736L15.586 10.3088L15.4363 10.4345L15.7217 10.4095L16.3064 10.2158L16.7716 10.0306L17.3261 9.62594L17.6857 9.18851V8.89316V8.70803L17.0256 9.04471L16.3806 9.29356L15.7217 9.51658L15.1962 9.66813L15.4665 9.42444L15.6915 9.15493L15.9758 8.69942L16.1707 8.22756L16.2461 7.89088L16.1567 7.71436Z" fill="#259462"/>
<path d="M18.3005 7.34326L18.4954 7.86593L18.8551 8.29561L19.5152 8.70806L20.2797 8.9948L21.3597 9.12913H22.1846H22.304L21.5848 8.89319L20.8203 8.55651L19.9954 8.29561L19.3052 7.96668L18.8701 7.71438L18.3005 7.34326Z" fill="#259462"/>
<path d="M19.1103 9.19629H19.021V9.29359L19.2901 9.53383L20.1904 10.0393L20.8656 10.3088L21.8099 10.5525L22.7994 10.7807L23.8795 10.8728H24.6892H25.1092L24.5988 10.7548L23.6846 10.5189L23.1138 10.3174L22.47 10.1151L22.2148 9.92131L22.0651 9.77751L21.7496 9.74393L21.1347 9.71896L20.4305 9.63457L19.7855 9.49164L19.4108 9.34009L19.1103 9.19629Z" fill="#259462"/>
<path d="M15.1662 11.1597L14.5513 11.6815L13.7868 12.137L12.8576 12.5322L11.7926 12.8611L10.5327 13.147L9.49793 13.358L9.16846 13.4251L9.31811 13.5431L10.0084 13.779L11.1627 13.872H12.3622L13.5316 13.7877L14.5072 13.6111L15.3472 13.4424V13.5345L15.1813 13.7877L15.0165 14.0744L15.0014 14.1329L15.3472 14.0236L16.0513 13.7627L16.7114 13.3752L17.0711 13.0635L17.3715 12.6838L17.4609 12.4142V12.2885L17.2509 12.3893L16.6662 12.583L15.962 12.7768L15.317 12.8947L14.8669 12.9705L14.9121 12.8947L15.2717 12.7518L15.8866 12.4651L16.411 12.069L16.6059 11.8167L16.7265 11.5893L16.6813 11.5213L16.5165 11.5807L16.1859 11.7323L15.6615 11.9346L15.107 12.137L14.672 12.2885L14.8518 12.0526L15.107 11.7073L15.2868 11.387L15.3321 11.1597H15.1662Z" fill="#259462"/>
<path d="M19.021 10.3088L19.1405 10.9658L19.6208 11.5806L20.2658 12.0611L21.2101 12.533L22.2148 12.9299L22.4851 13.0384H22.1255L21.0756 12.7439L20.1162 12.39L19.3516 12.0026L18.7066 11.5815L18.3018 11.337V11.6065L18.5268 12.087L18.9166 12.483L19.9062 13.0393L20.8064 13.3338L22.4862 13.6705L23.7647 13.8057H25.006L26.0106 13.7049L26.6556 13.5361L26.9109 13.4096L26.0257 13.3166L25.3656 13.2236L24.2264 12.9299L23.2519 12.6088L22.3517 12.2385L21.6173 11.8596C21.6173 11.8596 20.883 11.4549 20.8227 11.4386C20.7623 11.4222 20.253 11.1604 20.253 11.1604L19.5477 10.7979L19.2774 10.5034L19.0222 10.3097L19.021 10.3088Z" fill="#259462"/>
<path d="M17.716 13.9055L16.9063 14.3094L16.0815 14.6297L14.8819 14.9586L13.9074 15.1188L12.8425 15.2781L13.2021 15.068L13.3146 14.95L13.0374 15.0172L12.4225 15.2195L11.2671 15.4305L10.0385 15.607L9.39349 15.6655L9.81344 15.818L10.4434 15.9359H11.3877L12.2879 15.8851L12.8877 15.8429L13.0826 15.818L12.8726 15.9359L12.3622 16.2054L11.8529 16.4663L11.1476 16.7186L10.4434 16.9296L9.6928 17.1655L9.39349 17.2663L9.24268 17.3421H9.40857H10.1731L11.0582 17.2921L11.9573 17.1905L12.752 17.0217L13.8622 16.7445L14.7462 16.4577L15.0768 16.3234L15.0617 16.6343L14.9422 17.0217L14.7021 17.3421L14.6569 17.4351H14.8065L15.3471 17.3421L16.0061 17.1061L16.8158 16.7109L17.2961 16.3234L17.4608 16.0367L17.2961 16.0952L16.846 16.2812L16.3216 16.3906L16.0815 16.4155L15.9469 16.3906L16.1116 16.2218L16.2462 15.9187L16.3065 15.5984L16.3367 15.396L17.0409 14.975L17.5362 14.5375L17.716 14.1328V13.9055Z" fill="#259462"/>
<path d="M18.7054 15.0007L18.5859 15.4046V15.7499V16.1795L18.8852 16.4999L19.4549 16.9046L20.1904 17.1741L20.9096 17.3756H21.0303L20.55 16.9803L20.0848 16.5507L19.4398 15.9694L19.0952 15.5139L18.7054 15.0007Z" fill="#259462"/>
<path d="M20.7449 14.293L21.8249 14.7226L23.115 15.0679L24.6892 15.3883L26.2936 15.6707L25.6335 15.8016L24.8087 15.8687L23.9839 15.8265L22.9943 15.6707L21.9143 15.3297C21.9143 15.3297 21.224 14.9086 21.1497 14.8837C21.0755 14.8587 20.7449 14.4454 20.7449 14.4454V14.2938V14.293Z" fill="#259462"/>
<path d="M23.8948 16.4751L24.7939 16.6766L25.679 16.9125L26.3832 17.1321L27.0131 17.3422L26.4737 17.3758H25.6036L24.9737 17.2501L24.4342 17.0055L24.0444 16.6766L23.8948 16.4751Z" fill="#259462"/>
</g>
<defs>
<clipPath id="clip0_203_74">
<rect width="37.8378" height="35" rx="5" fill="white"/>
</clipPath>
</defs>
</svg>
