<svg width="40" height="40" viewBox="0 0 40 40" fill="none" xmlns="http://www.w3.org/2000/svg">
<g clip-path="url(#clip0_196_39)">
<circle cx="19.5" cy="14.5001" r="14.5" fill="#C5DAEF"/>
<path d="M39.7339 30.3492C37.4871 30.5175 37.1327 30.1553 37.08 30.0619C37.0714 30.0461 37.0604 30.0304 37.0469 30.0166C35.493 28.4421 33.7834 28.385 33.7834 28.385C30.2612 28.2452 29.182 28.628 29.0103 28.7009C28.9895 28.7097 28.9674 28.7156 28.9441 28.7206C27.34 29.0187 26.5612 28.8672 26.5612 28.8672C23.2708 28.3633 22.5779 27.4826 22.1143 27.2238C21.4239 26.838 21.4275 26.1787 21.4275 26.1787L20.8144 20.3618L21.3221 20.5832L22.194 20.8912L22.7177 21.0162L23.5259 21.151L24.4935 21.2179L25.5274 21.1894L25.9836 21.1225L26.0633 21.0742L25.6991 20.8144L25.4133 20.5645L25.3336 20.3913L25.6353 20.4395L26.3809 20.5546L27.3326 20.6993L28.2843 20.7377L29.236 20.718L30.3618 20.535L31.5355 20.2073L32.0591 19.9957V19.9288L31.8372 19.9002L31.4091 19.8333L29.523 19.4288L28.3027 19.0529L27.9544 18.9466L27.9385 18.8797L28.3665 18.8128L29.1587 18.5629L29.7768 18.2804L30.3054 17.9921L30.5801 17.7992L30.6218 17.7097L30.5899 17.6644L30.3888 17.6447L29.9031 17.6319L29.2372 17.5935L28.7822 17.5355L28.0746 17.4075L27.2394 17.2088L26.2571 16.8879L25.6647 16.6636L25.6966 16.6252L26.1516 16.6321L26.8592 16.6124L27.3559 16.574L27.9053 16.516L28.2966 16.4323L28.7197 16.3359L29.2053 16.1814L29.7339 15.9501L30.3042 15.5968L30.6635 15.3085L30.8965 15.0841L30.9284 14.9818L30.78 14.9621L30.3152 14.9365L29.5965 14.904L29.0569 14.8765L28.2855 14.782L27.5031 14.6275L26.6152 14.3962L25.6108 14.0499L24.8075 13.6326L24.3218 13.3246L24.1526 13.1839L24.2482 13.1514L24.4911 13.2153L24.9031 13.2734L25.5899 13.3059H26.457L27.2922 13.2094L28.1482 13.0038L28.4658 12.8886L28.8668 12.6643L29.1845 12.433L29.2581 12.3307L29.1845 12.247L28.9306 12.2017L28.5602 12.1693L27.0812 11.874L26.067 11.566L25.2527 11.2383L24.9412 11.0622L24.9571 10.9953L25.6071 10.9667L25.9713 10.8801L26.4791 10.7837L26.7967 10.6774L26.8605 10.6193L26.6544 10.5613L26.0523 10.4648L25.1803 10.2533L24.2446 9.90687L23.4364 9.55063L23.0084 9.26229L23.4683 9.27213L24.198 9.20521L24.9436 9.08024L25.4513 8.90704L26.0057 8.7053L26.4177 8.4455L26.5919 8.24377L26.56 8.10895L26.3221 8.03219L25.4023 7.87769L24.0864 7.52145L23.2622 7.21343L22.5325 6.87688L22.2308 6.64562L22.2468 6.58756L22.7704 6.64562L23.2941 6.63578L24.0079 6.54918L24.5622 6.38582L25.038 6.22246L25.3557 6.02072L25.3079 5.9725L24.9755 5.89574L23.5958 5.50113L22.898 5.26987L22.1376 4.92347L21.8997 4.77881L21.9157 4.72075L22.1376 4.70107L22.7876 4.69123L23.2794 4.60463L23.5811 4.49835L23.6289 4.43143L23.5185 4.32515L22.3768 3.64121L21.5845 2.97696L20.9027 2.26448L20.3005 1.43687L19.377 0.0020752L18.5885 1.19577L17.5742 2.58234L16.56 3.46801L15.5458 4.19919L15.1656 4.43045L15.2183 4.51409L15.482 4.61053L15.8303 4.66859L16.3061 4.70697H16.6446L16.7084 4.74535L16.6667 4.80341L16.392 4.96382L15.6844 5.31022L14.6799 5.65071L13.781 5.88787L13.4217 5.97152L13.3579 6.03548L13.4842 6.11224L13.9919 6.34941L14.4997 6.5167L15.1227 6.60625L15.8732 6.64463H16.4864L16.3687 6.78536L15.7678 7.06779L15.2183 7.31184L14.415 7.58148L13.5161 7.81864L12.7337 7.95937L12.1842 8.0686L12.004 8.11977V8.21621L12.1303 8.33135L12.5632 8.63937L13.1126 8.87063L13.6203 9.05071L14.2544 9.16585L14.9939 9.24261H15.861L15.4599 9.48666L14.9314 9.80747L14.3819 10.0387L13.5369 10.3084L12.7128 10.514L12.2689 10.6164L12.1842 10.7315L12.3535 10.8083L12.5865 10.9106L13.0304 10.9874H13.5799L13.3689 11.1803L12.8612 11.4627L11.8249 11.7835L10.7261 12.0659L9.94362 12.2067L9.64805 12.2706V12.4379L9.96569 12.7204L10.4943 12.99L11.0866 13.1169L11.636 13.2213L12.5656 13.2852L13.5382 13.234L14.5144 13.1169L14.8063 13.0156V13.1829L14.5144 13.4141L13.8975 13.7861L12.6932 14.2673L11.2976 14.6334L9.64928 14.8755L7.90535 14.9808L7.93724 15.1353L8.15921 15.3567L8.68288 15.7228L9.30957 16.0407L9.93626 16.2571L10.769 16.4835L11.8077 16.6281L12.5374 16.6616H13.0206L12.9569 16.7147L12.7189 16.8013L11.9132 17.0995L11.0682 17.3436L10.233 17.4912L9.38806 17.5935L8.66939 17.6388H8.14082L8.12978 17.7284L8.28799 17.9271L8.63628 18.1259L9.25929 18.4211L9.80871 18.6327L10.379 18.8059L10.7702 18.8827L10.8229 18.9211L10.6856 18.9978L9.96692 19.2094L9.12193 19.4594L8.18129 19.6778L7.42093 19.8185L6.90339 19.9081L6.7133 19.9337L6.77707 20.0232L7.24187 20.2476L8.19355 20.5104L9.19797 20.6776L9.72654 20.7229H10.8045L11.4594 20.6845L12.3792 20.5694L13.0488 20.4287L13.3836 20.3903L13.4572 20.4159L13.4462 20.5182L13.2769 20.7239L12.8857 20.9866L12.7594 21.0703L12.8232 21.1087L13.1617 21.1726L13.4683 21.2051H14.2826L15.1864 21.1215L16.3123 20.967L17.1364 20.717L17.6122 20.5241L17.882 20.3893L17.8661 20.9187L17.7557 22.3339L17.6135 23.624L17.302 26.1777C17.302 26.1777 17.2541 27.0594 17.1965 27.1942C16.717 28.3072 14.6211 28.6172 14.6211 28.6172C13.0721 28.8012 12.4749 28.6349 12.3682 28.5985C12.3535 28.5936 12.3388 28.5897 12.324 28.5867C8.44128 27.8742 7.10329 28.2325 7.10329 28.2325C4.25561 28.6172 3.55166 29.619 3.55166 29.619C3.39223 30.0038 2.27253 30.1327 2.27253 30.1327L0.350779 30.3315C0.310308 30.3354 0.271063 30.3472 0.236724 30.365C-0.282039 30.6513 0.288233 30.7478 0.288233 30.7478C2.43197 30.9534 2.84771 30.6454 2.84771 30.6454C3.2328 30.4555 5.23427 29.4744 5.52983 29.3287C5.55436 29.3169 5.58134 29.3081 5.60955 29.3021C6.36868 29.1663 6.08416 29.5295 6.00199 29.623C5.9885 29.6377 5.97746 29.6544 5.97011 29.6712C5.28823 31.1355 3.0979 31.782 2.86733 31.846C2.85384 31.8499 2.83913 31.8549 2.82686 31.8608C2.03094 32.2111 2.84771 32.2367 2.84771 32.2367C5.27597 32.3833 6.69736 29.8473 6.83594 29.5885C6.8433 29.5747 6.8482 29.56 6.85188 29.5442C6.96716 29.0384 7.98384 29.0492 8.11384 29.0532C8.12242 29.0532 8.13223 29.0532 8.14082 29.0551C10.8806 29.3622 11.3589 29.5413 11.3589 29.5413C12.3191 29.747 11.3589 29.8493 11.3589 29.8493L10.2809 29.9762C10.2747 29.9762 10.2686 29.9782 10.2625 29.9792C6.75377 30.5716 7.18669 32.339 7.18669 32.339C7.23697 32.8783 7.61592 32.339 7.61592 32.339C8.5443 30.9525 10.3348 30.8757 10.3348 30.8757C11.8384 30.7478 10.5911 31.3116 10.5911 31.3116C9.66277 31.7742 9.98286 33.6734 9.98286 33.6734C10.0785 34.1871 9.69466 34.3918 9.69466 34.3918C8.19355 35.369 7.64536 35.742 7.53989 35.8158C7.5264 35.8256 7.51413 35.8355 7.5031 35.8473C6.74886 36.6198 7.56074 36.5046 7.71894 36.4761C7.73488 36.4732 7.75083 36.4692 7.76677 36.4633C10.975 35.3611 10.8156 34.1861 10.8156 34.1861C11.0081 32.2347 11.4239 31.7732 11.4239 31.7732C12.6846 30.1022 14.2949 29.9634 14.5548 29.9516C14.5794 29.9507 14.6051 29.9467 14.6284 29.9398C15.3974 29.7204 14.8725 30.1603 14.8197 30.2036C14.8161 30.2065 14.8136 30.2085 14.8099 30.2114L13.5357 31.3874C12.6037 32.1353 12.844 32.9236 12.9127 33.0978C12.9213 33.1194 12.9348 33.1401 12.9507 33.1588C13.4401 33.7059 13.4719 33.1588 13.4719 33.1588C13.3812 32.2426 14.0827 31.6885 14.1673 31.6246C14.1734 31.6197 14.1796 31.6157 14.1845 31.6098L16.9586 29.1024C17.3743 28.692 17.535 29.1024 17.535 29.1024C17.8771 31.0282 17.5325 31.4386 17.454 31.5045C17.4393 31.5163 17.4283 31.5311 17.4185 31.5449C16.7685 32.4778 15.704 32.9757 15.5924 33.0259C15.585 33.0289 15.5789 33.0318 15.5728 33.0358L12.5117 34.7244C10.8843 35.5796 11.0903 37.0046 11.1308 37.2142C11.1344 37.2309 11.1393 37.2476 11.1479 37.2644C11.3319 37.6147 11.533 37.3667 11.5956 37.2722C11.6078 37.2535 11.6176 37.2329 11.6225 37.2122C12.1045 35.2116 13.055 35.1102 13.055 35.1102C13.4768 35.0039 13.4069 35.1614 13.4069 35.1614C13.055 36.0087 13.4069 36.3423 13.4069 36.3423C13.819 36.8176 14.003 36.5283 14.0594 36.3964C14.0729 36.3639 14.0766 36.3285 14.0692 36.2941C13.8619 35.2647 13.9772 34.8612 14.0434 34.7294C14.0594 34.6979 14.0839 34.6703 14.117 34.6477L15.6794 33.5701C16.2792 33.1598 16.0633 33.7758 16.0633 33.7758C15.3594 35.4448 15.6476 35.7528 15.6476 35.7528C15.8426 36.0431 16.181 35.8296 16.2669 35.7676C16.2804 35.7587 16.2914 35.7479 16.3025 35.7371C16.9807 35.0364 16.793 34.5345 16.7452 34.4351C16.7403 34.4243 16.7341 34.4145 16.7268 34.4056C16.3282 33.885 16.9598 33.513 17.0469 33.4658C17.053 33.4619 17.0591 33.4599 17.0665 33.4569C18.2414 32.959 18.4008 31.722 18.4008 31.722C18.4965 31.4652 18.8484 31.6452 18.8484 31.6452C20.5445 32.2613 20.1276 33.4609 20.1276 33.4609C19.7952 35.3454 18.207 35.8522 18.0317 35.9024C18.0194 35.9063 18.0071 35.9103 17.9961 35.9152C14.5303 37.4002 15.168 38.6283 15.168 38.6283C15.3238 38.9816 15.52 38.7966 15.5899 38.7129C15.6071 38.6932 15.6181 38.6706 15.6243 38.647C16.0044 37.3293 18.3027 36.42 18.3027 36.42C19.0067 36.0864 18.9429 36.6001 18.9429 36.6001C18.911 37.2417 19.3267 37.7298 19.3267 37.7298C19.5487 37.9503 19.7425 39.886 19.7425 39.886C19.8234 40.0483 19.9816 40.005 20.0859 39.9519C20.1509 39.9184 20.195 39.8633 20.2048 39.8023C20.4734 38.2878 20.1202 37.6019 20.0675 37.5094C20.0638 37.5015 20.0589 37.4937 20.0564 37.4858C19.5855 36.3403 20.0295 36.0097 20.0295 36.0097C21.3442 34.9901 21.5146 33.8821 21.4962 33.3034C21.4913 33.1312 21.7256 33.0239 21.9071 33.1174C22.871 33.6124 22.741 33.8722 22.741 33.8722C23.0292 35.4123 22.4172 35.7587 22.4172 35.7587C21.793 36.2881 22.1168 36.6729 22.1168 36.6729C22.3388 37.0459 22.6723 36.7694 22.7484 36.6985C22.7582 36.6897 22.7668 36.6798 22.7754 36.669C24.0827 34.939 23.689 34.7864 23.689 34.7864C23.2586 34.4873 23.6535 34.5886 23.7908 34.629C23.819 34.6369 23.8448 34.6487 23.8668 34.6634C24.3697 34.9941 24.5524 35.7587 24.5524 35.7587C24.767 36.1671 24.4482 38.0506 24.4114 38.2612C24.4089 38.274 24.4077 38.2878 24.4089 38.3016C24.4236 38.5742 24.5033 38.6559 24.5033 38.6559C24.8124 39.0721 24.973 38.7966 25.0172 38.6913C25.0258 38.6706 25.0307 38.649 25.0319 38.6263C25.092 36.8865 25.3189 36.8648 25.3189 36.8648C25.5997 36.7349 25.6905 36.7497 25.6905 36.7497C26.614 36.7497 27.3657 37.8538 27.5117 38.0841C27.5301 38.1126 27.5558 38.1372 27.5865 38.1569C28.4339 38.6785 28.0415 37.9916 28.0415 37.9916C27.1891 36.0569 26.0376 36.3934 26.0376 36.3934C25.5813 36.4889 25.509 36.0874 25.4992 36.0116C25.4992 36.0037 25.4992 35.9959 25.4992 35.988C25.5421 35.0895 24.9865 34.5207 24.9865 34.5207C22.9887 32.4866 22.0886 32.1255 21.9757 32.0861C21.9659 32.0822 21.9561 32.0782 21.9463 32.0733C20.2809 31.2683 19.8516 30.6444 19.8516 30.6444C18.9404 29.3484 19.9314 28.6034 19.9314 28.6034C20.3299 28.2954 20.7911 28.5759 20.8879 28.6418C20.9014 28.6517 20.9161 28.6595 20.9333 28.6664C23.0219 29.5511 23.7381 31.1473 23.7982 31.29C23.8018 31.2969 23.8043 31.3038 23.808 31.3107C24.4015 32.3754 25.6414 33.6006 25.8266 33.7807C25.8413 33.7955 25.8597 33.8083 25.8794 33.8191C26.5747 34.2029 26.4754 34.9646 26.4263 35.1968C26.4153 35.2509 26.4312 35.307 26.4692 35.3523C26.6115 35.5176 26.7391 35.4044 26.8016 35.3257C26.8286 35.2913 26.8408 35.2519 26.8408 35.2116L26.8298 34.5729C26.8261 34.3918 27.091 34.2875 27.2639 34.4046C27.714 34.7077 27.8808 35.6387 27.8808 35.6387C28.093 35.9388 28.2365 35.7558 28.2892 35.6603C28.3039 35.6327 28.3125 35.6032 28.3137 35.5737C28.337 34.1055 26.9856 33.765 26.9856 33.765C26.4607 33.6282 26.1884 33.3211 26.132 33.2523C26.1259 33.2444 26.1197 33.2365 26.1148 33.2277L25.677 32.4965C25.5911 32.3538 25.7236 32.1855 25.921 32.1904C26.82 32.2131 27.5902 32.4689 27.7643 32.5309C27.7901 32.5398 27.8183 32.5457 27.8465 32.5476C28.64 32.6077 27.9458 32.2357 27.9458 32.2357C27.7349 31.7958 25.8205 31.6197 25.3581 31.5833C25.2931 31.5783 25.2318 31.5557 25.1889 31.5163C24.6983 31.0764 24.4837 30.4063 24.3979 30.0373C24.366 29.8995 24.5058 29.7725 24.6799 29.7853C27.2787 29.9772 29.1967 31.9444 29.2875 32.0389C29.2899 32.0418 29.2924 32.0438 29.2961 32.0468L30.3483 33.0318C30.4047 33.084 30.4268 33.1548 30.4047 33.2217C30.0405 34.2934 31.1761 35.7833 31.4104 36.0746C31.4374 36.1081 31.4741 36.1346 31.5183 36.1504C32.2958 36.4387 31.9316 35.8552 31.9316 35.8552C31.2031 34.6575 31.235 33.6931 31.2926 33.2965C31.3086 33.1844 31.4337 33.1027 31.5735 33.1096C33.4903 33.1981 34.1146 33.9598 34.2666 34.2029C34.2973 34.2521 34.35 34.2914 34.415 34.3111C35.1276 34.5188 34.6677 34.0267 34.6677 34.0267C33.467 32.4394 31.8556 32.4876 31.625 32.5034C31.6041 32.5044 31.5845 32.5044 31.5637 32.5024C30.9345 32.4325 30.7395 32.219 30.6954 32.157C30.6856 32.1442 30.6758 32.1314 30.6623 32.1206L30.1141 31.6266C30.1141 31.6266 30.1055 31.6187 30.1006 31.6157L28.3052 30.2134C28.2904 30.2026 28.2745 30.1918 28.2573 30.1839C27.7754 29.9487 28.3321 30.0038 28.3321 30.0038C29.9522 30.0215 32.0591 30.5824 32.3142 30.6513C32.3326 30.6562 32.3498 30.6592 32.3694 30.6602C32.9875 30.7114 32.9642 31.1975 32.9642 31.1975C33.0439 31.5026 33.2917 31.848 33.3714 31.9542C33.3873 31.9759 33.4082 31.9946 33.4327 32.0103C33.9134 32.3174 33.949 31.9838 33.949 31.8804C33.949 31.8637 33.9466 31.847 33.9416 31.8312L33.8632 31.5636C33.8558 31.538 33.8423 31.5134 33.8239 31.4917L33.5541 31.1758C33.5443 31.165 33.5333 31.1542 33.521 31.1444C33.1408 30.8462 33.3959 30.6966 33.3959 30.6966C33.6351 30.4171 33.9919 30.7704 34.0569 30.8393C34.0643 30.8481 34.0729 30.855 34.0827 30.8629L34.8271 31.4415C34.8271 31.4415 34.8369 31.4504 34.8418 31.4543C35.4869 32.0645 36.1308 32.1402 36.1308 32.1402L36.7072 32.217C37.259 32.1402 36.7317 31.8893 36.7317 31.8893C35.3863 31.4711 35.1006 31.0381 35.0589 30.9584C35.0528 30.9475 35.0466 30.9377 35.0393 30.9279C34.6002 30.3709 33.7847 30.1731 33.7148 30.1573C33.7111 30.1573 33.7062 30.1553 33.7025 30.1544L32.6061 29.8483L31.0351 29.4635C30.2576 29.2588 30.861 29.0984 31.0057 29.066C31.0253 29.062 31.0437 29.0591 31.0633 29.0581L32.8698 28.9823C33.6289 28.9085 34.4543 29.4006 34.5205 29.4419C34.5242 29.4439 34.5279 29.4458 34.5315 29.4478L36.0854 30.2911C36.8776 30.7724 37.9336 30.8304 37.9336 30.8304C39.0937 30.8806 39.61 30.7576 39.729 30.7232C39.7462 30.7182 39.7633 30.7114 39.7793 30.7035C40.341 30.424 39.7572 30.3492 39.7572 30.3492H39.7339Z" fill="#284E72"/>
<path d="M8.06611 33.326C8.06611 33.326 9.68127 33.268 8.10658 32.832C8.10658 32.832 4.1392 32.7297 4.07543 34.0129C4.07543 34.0129 3.94789 34.937 4.65183 34.0129C4.65183 34.0129 5.09211 33.2621 8.06734 33.326H8.06611Z" fill="#284E72"/>
<path d="M18.9624 1.24011L18.4743 2.03919L17.6821 3.03016L17.0002 3.59896L16.6519 3.88729L16.5403 3.98373H16.6826H17.1106L17.5079 3.88729L17.9826 3.68556L17.8403 4.11855L17.5239 4.51317L17.1584 4.85957L16.5403 5.28272L15.8744 5.59172L15.3041 5.822L15.0184 5.92828L15.4464 5.9765H15.9222L16.6041 5.89974L17.3166 5.75508L17.8403 5.55236L18.0304 5.44706L18.126 5.45691L18.0463 5.67832L17.6183 6.15954L17.064 6.63092L16.3981 7.11213L15.6524 7.49691L14.8602 7.81477L14.0826 8.05587L13.6387 8.15231L13.7184 8.23891L14.2887 8.30582H15.114L16.0326 8.23891L16.7145 8.09425L17.2541 7.93089V8.01749L17.1425 8.16116L17.048 8.24875L17.2541 8.22907L17.6502 8.10409L18.2205 7.81477L18.6485 7.43983L18.9624 7.18003L19.426 7.45853L20.3605 7.91121L21.154 8.16116L21.8984 8.30582H22.7544L23.3885 8.21922L23.754 8.11393L23.5786 8.04603L22.9764 7.87283L22.3105 7.62287L21.6764 7.22825L20.8523 6.68898L20.4243 6.4095L20.0601 6.15954L19.9325 6.18808L19.9644 6.28452L20.1545 6.76574L20.5359 7.15051L20.8364 7.45853L20.9001 7.56481L20.6144 7.44967L19.9803 7.16035L19.426 6.75589L19.0765 6.36128L18.8545 6.65945L18.348 6.96747L17.8243 7.21841L17.1425 7.44967L17.6821 7.02553L18.2205 6.46756L18.6325 6.0818L18.8386 5.58188L19.0446 5.00423L19.0765 4.56139L19.3463 4.77297L19.6946 4.96585L20.2023 5.13905L20.5506 5.23549L20.6463 5.19612L20.5506 5.04261L20.0919 4.53187L19.6002 3.94535L19.2825 3.473L19.1722 3.01146L19.442 3.1266L19.8859 3.33818L20.2661 3.4543L20.3924 3.46414L20.4243 3.3677L20.2023 3.15612L19.5045 2.30883L19.0765 1.58651L18.9624 1.24011Z" fill="#259462"/>
<path d="M17.0799 8.81653L16.398 9.529L15.2881 10.5013L14.1942 11.2521L13.0683 11.8003L12.1019 12.1378L11.4826 12.3012L11.3882 12.3681L12.1179 12.4261L13.2584 12.3681L14.3524 12.1949L15.2722 11.9449L16.1122 11.6566L16.604 11.4637L16.5721 11.6271L16.4765 11.7816L16.3183 11.9252L16.62 11.8967L17.2381 11.6753L17.7299 11.4637L18.3161 11.0012L18.6963 10.5013V10.1637V9.95216L17.9984 10.3369L17.3166 10.6213L16.62 10.8762L16.0644 11.0494L16.3502 10.7709L16.5881 10.4629L16.8886 9.94232L17.0946 9.40304L17.1743 9.01827L17.0799 8.81653Z" fill="#259462"/>
<path d="M19.3464 8.39246L19.5525 8.98979L19.9327 9.48085L20.6305 9.95223L21.4387 10.2799L22.5804 10.4334H23.4524H23.5787L22.8184 10.1638L22.0102 9.77903L21.1382 9.48085L20.4085 9.10493L19.9486 8.8166L19.3464 8.39246Z" fill="#37A32D"/>
<path d="M20.2023 10.5101H20.1079V10.6213L20.3924 10.8959L21.3441 11.4735L22.0579 11.7816L23.0562 12.0601L24.1023 12.3208L25.244 12.4261H26.1001H26.544L26.0044 12.2913L25.038 12.0217L24.4346 11.7914L23.754 11.5601L23.4842 11.3387L23.326 11.1744L22.9924 11.136L22.3424 11.1075L21.598 11.011L20.9161 10.8477L20.52 10.6745L20.2023 10.5101Z" fill="#259462"/>
<path d="M16.0326 12.7539L15.3826 13.3503L14.5744 13.8708L13.5921 14.3225L12.4662 14.6985L11.1344 15.0252L10.0404 15.2663L9.69214 15.343L9.85034 15.4778L10.58 15.7475L11.8003 15.8538H13.0684L14.3046 15.7573L15.336 15.5556L16.2239 15.3627V15.468L16.0485 15.7573L15.8744 16.085L15.8584 16.1519L16.2239 16.027L16.9683 15.7288L17.6661 15.2859L18.0463 14.9297L18.364 14.4957L18.4584 14.1877V14.044L18.2364 14.1592L17.6183 14.3806L16.8739 14.602L16.192 14.7368L15.7162 14.8234L15.764 14.7368L16.1442 14.5735L16.7942 14.2458L17.3485 13.7931L17.5545 13.5048L17.6821 13.245L17.6343 13.1672L17.4601 13.2351L17.1106 13.4083L16.5563 13.6396L15.97 13.8708L15.5101 14.044L15.7002 13.7744L15.97 13.3798L16.1601 13.0137L16.208 12.7539H16.0326Z" fill="#259462"/>
<path d="M20.108 11.7816L20.2343 12.5325L20.7421 13.2351L21.4239 13.7842L22.4222 14.3235L23.4843 14.7772L23.77 14.9012H23.3898L22.28 14.5646L21.2657 14.1601L20.4575 13.7173L19.7757 13.2361L19.3477 12.9566V13.2646L19.5856 13.8137L19.9976 14.2664L21.0438 14.9021L21.9954 15.2387L23.7713 15.6235L25.1227 15.778H26.435L27.497 15.6628L28.1789 15.47L28.4487 15.3253L27.513 15.219L26.8152 15.1127L25.6108 14.7772L24.5807 14.4101L23.629 13.9869L22.8527 13.5539C22.8527 13.5539 22.0764 13.0914 22.0126 13.0727C21.9488 13.054 21.4104 12.7549 21.4104 12.7549L20.6648 12.3406L20.3791 12.004L20.1092 11.7826L20.108 11.7816Z" fill="#259462"/>
<path d="M18.7283 15.8921L17.8723 16.3536L17.0003 16.7197L15.7322 17.0956L14.7021 17.2787L13.5762 17.4607L13.9564 17.2206L14.0754 17.0858L13.7823 17.1625L13.1323 17.3938L11.9108 17.6349L10.6121 17.8366L9.93018 17.9036L10.3741 18.0777L11.0401 18.2126H12.0384L12.99 18.1545L13.6241 18.1063L13.8301 18.0777L13.6081 18.2126L13.0685 18.5206L12.5301 18.8188L11.7845 19.1071L11.0401 19.3482L10.2466 19.6178L9.93018 19.733L9.77075 19.8196H9.94613H10.7543L11.6901 19.7625L12.6405 19.6464L13.4806 19.4535L14.6542 19.1366L15.5888 18.8089L15.9383 18.6554L15.9223 19.0106L15.796 19.4535L15.5422 19.8196L15.4943 19.9258H15.6525L16.224 19.8196L16.9206 19.5499L17.7766 19.0982L18.2844 18.6554L18.4585 18.3277L18.2844 18.3946L17.8085 18.6072L17.2542 18.7322L17.0003 18.7607L16.8581 18.7322L17.0322 18.5393L17.1745 18.1929L17.2383 17.8268L17.2701 17.5955L18.0146 17.1143L18.5382 16.6144L18.7283 16.1519V15.8921Z" fill="#259462"/>
<path d="M19.7743 17.1438L19.6479 17.6053V18V18.491L19.9644 18.8571L20.5665 19.3196L21.344 19.6276L22.1044 19.8579H22.232L21.7242 19.4062L21.2324 18.9151L20.5506 18.2509L20.1863 17.7303L19.7743 17.1438Z" fill="#259462"/>
<path d="M21.9304 16.335L23.0722 16.826L24.4359 17.2206L26.1002 17.5867L27.7963 17.9095L27.0984 18.0591L26.2265 18.1358L25.3545 18.0876L24.3084 17.9095L23.1666 17.5198C23.1666 17.5198 22.4369 17.0386 22.3584 17.01C22.2799 16.9815 21.9304 16.5091 21.9304 16.5091V16.3359V16.335Z" fill="#259462"/>
<path d="M25.26 18.8286L26.2105 19.0589L27.1462 19.3285L27.8906 19.5795L28.5566 19.8196L27.9863 19.858H27.0665L26.4006 19.7143L25.8303 19.4348L25.4182 19.0589L25.26 18.8286Z" fill="#259462"/>
</g>
<defs>
<clipPath id="clip0_196_39">
<rect width="40" height="40" fill="white"/>
</clipPath>
</defs>
</svg>
