<svg width="28" height="27" viewBox="0 0 28 27" fill="none" xmlns="http://www.w3.org/2000/svg">
<path d="M7.19375 0C5.01594 1.21158 3.20102 2.98252 1.9364 5.12996C0.67178 7.2774 0.00330274 9.72349 0 12.2156C0 15.9287 1.475 19.4896 4.1005 22.1151C6.72601 24.7406 10.287 26.2156 14 26.2156C17.027 26.214 19.972 25.2314 22.3935 23.415C24.815 21.5986 26.5826 19.0463 27.4312 16.1406C26.2185 17.425 24.7568 18.4487 23.1353 19.1493C21.5137 19.85 19.7664 20.2128 18 20.2156C14.5522 20.2156 11.2456 18.846 8.80761 16.408C6.36964 13.97 5 10.6634 5 7.21562C5.00219 4.64649 5.76557 2.1356 7.19375 0Z" fill="black"/>
</svg>
