<svg width="282" height="52" viewBox="0 0 282 52" fill="none" xmlns="http://www.w3.org/2000/svg">
<path d="M122.187 29.107C120.803 29.107 119.478 28.9258 118.209 28.5635C116.941 28.1846 115.92 27.6988 115.146 27.1059L116.505 24.0918C117.246 24.6189 118.119 25.0553 119.124 25.4012C120.145 25.7306 121.174 25.8953 122.212 25.8953C123.002 25.8953 123.636 25.8212 124.114 25.673C124.608 25.5083 124.97 25.2859 125.201 25.0059C125.432 24.7259 125.547 24.4048 125.547 24.0424C125.547 23.5813 125.366 23.2189 125.003 22.9554C124.641 22.6754 124.163 22.4531 123.57 22.2884C122.978 22.1072 122.319 21.9425 121.594 21.7943C120.886 21.6296 120.169 21.4319 119.445 21.2013C118.736 20.9708 118.086 20.6743 117.493 20.3119C116.9 19.9496 116.414 19.472 116.035 18.8791C115.673 18.2861 115.492 17.5285 115.492 16.6062C115.492 15.618 115.755 14.7204 116.282 13.9133C116.826 13.0898 117.633 12.4392 118.704 11.9616C119.791 11.4675 121.149 11.2205 122.78 11.2205C123.867 11.2205 124.937 11.3522 125.992 11.6157C127.046 11.8628 127.976 12.2416 128.783 12.7522L127.548 15.7909C126.741 15.3297 125.934 14.9921 125.127 14.778C124.32 14.5474 123.529 14.4321 122.755 14.4321C121.981 14.4321 121.347 14.5227 120.853 14.7039C120.359 14.8851 120.005 15.1239 119.791 15.4203C119.576 15.7003 119.469 16.0297 119.469 16.4085C119.469 16.8532 119.651 17.2156 120.013 17.4956C120.375 17.7591 120.853 17.9732 121.446 18.1379C122.039 18.3026 122.689 18.4673 123.398 18.632C124.122 18.7967 124.839 18.9861 125.547 19.2002C126.272 19.4143 126.93 19.7026 127.523 20.0649C128.116 20.4272 128.594 20.9049 128.956 21.4978C129.335 22.0907 129.524 22.8401 129.524 23.746C129.524 24.7177 129.253 25.6071 128.709 26.4141C128.166 27.2211 127.35 27.8717 126.263 28.3658C125.193 28.8599 123.834 29.107 122.187 29.107Z" fill="#284E72"/>
<path d="M91.6121 28.8104V11.5168H94.9225L105.126 23.9682H103.52V11.5168H107.473V28.8104H104.187L93.959 16.3591H95.5649V28.8104H91.6121Z" fill="#284E72"/>
<path d="M65.4829 28.8104L73.1909 11.5168H77.1437L84.8764 28.8104H80.6766L74.3521 13.5427H75.9332L69.584 28.8104H65.4829ZM69.3369 25.1047L70.3992 22.0659H79.2931L80.3801 25.1047H69.3369Z" fill="#284E72"/>
<path d="M47.8081 28.8104V11.5168H51.8103V25.5494H60.4818V28.8104H47.8081Z" fill="#284E72"/>
<path d="M21.6794 28.8104L29.3874 11.5168H33.3403L41.073 28.8104H36.8731L30.5486 13.5427H32.1297L25.7805 28.8104H21.6794ZM25.5334 25.1047L26.5958 22.0659H35.4896L36.5766 25.1047H25.5334Z" fill="#284E72"/>
<path d="M0.121094 28.8104V11.5168H8.57025C10.7443 11.5168 12.3748 11.9286 13.4619 12.7521C14.5654 13.5756 15.1171 14.6626 15.1171 16.0132C15.1171 16.919 14.8948 17.7096 14.4501 18.3849C14.0054 19.0437 13.396 19.5542 12.6219 19.9166C11.8478 20.2789 10.9584 20.4601 9.95374 20.4601L10.4231 19.4472C11.5102 19.4472 12.4737 19.6284 13.3136 19.9907C14.1536 20.3366 14.8042 20.8554 15.2653 21.5471C15.743 22.2389 15.9818 23.0871 15.9818 24.0918C15.9818 25.5741 15.3971 26.7352 14.2277 27.5752C13.0584 28.3987 11.3372 28.8104 9.06435 28.8104H0.121094ZM4.09862 25.7964H8.76789C9.80551 25.7964 10.5878 25.6317 11.1149 25.3023C11.6584 24.9564 11.9302 24.4129 11.9302 23.6718C11.9302 22.9471 11.6584 22.4118 11.1149 22.0659C10.5878 21.7036 9.80551 21.5224 8.76789 21.5224H3.80216V18.6072H8.07615C9.04788 18.6072 9.78904 18.4425 10.2996 18.1131C10.8267 17.7672 11.0902 17.2484 11.0902 16.5567C11.0902 15.8814 10.8267 15.3791 10.2996 15.0497C9.78904 14.7038 9.04788 14.5309 8.07615 14.5309H4.09862V25.7964Z" fill="#284E72"/>
<path d="M262.607 28.8104L270.315 11.5168H274.268L282 28.8104H277.8L271.476 13.5427H273.057L266.708 28.8104H262.607ZM266.461 25.1047L267.523 22.0659H276.417L277.504 25.1047H266.461Z" fill="#284E72"/>
<path d="M241.771 28.8104V11.5168H249.257C250.805 11.5168 252.139 11.7721 253.259 12.2827C254.379 12.7768 255.244 13.4933 255.853 14.4321C256.463 15.3708 256.768 16.4908 256.768 17.792C256.768 19.0766 256.463 20.1883 255.853 21.1271C255.244 22.0495 254.379 22.7577 253.259 23.2518C252.139 23.7459 250.805 23.9929 249.257 23.9929H243.995L245.774 22.2389V28.8104H241.771ZM252.765 28.8104L248.442 22.5353H252.716L257.089 28.8104H252.765ZM245.774 22.6836L243.995 20.806H249.035C250.27 20.806 251.192 20.5425 251.802 20.0154C252.411 19.4719 252.716 18.7307 252.716 17.792C252.716 16.8367 252.411 16.0955 251.802 15.5685C251.192 15.0414 250.27 14.7779 249.035 14.7779H243.995L245.774 12.8756V22.6836Z" fill="#284E72"/>
<path d="M228.724 28.8104V11.5168H232.726V28.8104H228.724Z" fill="#284E72"/>
<path d="M204.893 28.8104V11.5168H213.342C215.516 11.5168 217.146 11.9286 218.233 12.7521C219.337 13.5756 219.889 14.6626 219.889 16.0132C219.889 16.919 219.666 17.7096 219.222 18.3849C218.777 19.0437 218.167 19.5542 217.393 19.9166C216.619 20.2789 215.73 20.4601 214.725 20.4601L215.195 19.4472C216.282 19.4472 217.245 19.6284 218.085 19.9907C218.925 20.3366 219.576 20.8554 220.037 21.5471C220.514 22.2389 220.753 23.0871 220.753 24.0918C220.753 25.5741 220.169 26.7352 218.999 27.5752C217.83 28.3987 216.109 28.8104 213.836 28.8104H204.893ZM208.87 25.7964H213.539C214.577 25.7964 215.359 25.6317 215.886 25.3023C216.43 24.9564 216.702 24.4129 216.702 23.6718C216.702 22.9471 216.43 22.4118 215.886 22.0659C215.359 21.7036 214.577 21.5224 213.539 21.5224H208.574V18.6072H212.848C213.819 18.6072 214.561 18.4425 215.071 18.1131C215.598 17.7672 215.862 17.2484 215.862 16.5567C215.862 15.8814 215.598 15.3791 215.071 15.0497C214.561 14.7038 213.819 14.5309 212.848 14.5309H208.87V25.7964Z" fill="#284E72"/>
<path d="M191.845 28.8104V11.5168H195.847V28.8104H191.845Z" fill="#284E72"/>
<path d="M176.831 29.107C175.448 29.107 174.122 28.9258 172.854 28.5635C171.586 28.1846 170.565 27.6988 169.791 27.1059L171.149 24.0918C171.89 24.6189 172.763 25.0553 173.768 25.4012C174.789 25.7306 175.819 25.8953 176.856 25.8953C177.647 25.8953 178.281 25.8212 178.758 25.673C179.253 25.5083 179.615 25.2859 179.846 25.0059C180.076 24.7259 180.191 24.4048 180.191 24.0424C180.191 23.5813 180.01 23.2189 179.648 22.9554C179.286 22.6754 178.808 22.4531 178.215 22.2884C177.622 22.1072 176.963 21.9425 176.239 21.7943C175.53 21.6296 174.814 21.4319 174.089 21.2013C173.381 20.9708 172.73 20.6743 172.138 20.3119C171.545 19.9496 171.059 19.472 170.68 18.8791C170.318 18.2861 170.136 17.5285 170.136 16.6062C170.136 15.618 170.4 14.7204 170.927 13.9133C171.47 13.0898 172.278 12.4392 173.348 11.9616C174.435 11.4675 175.794 11.2205 177.424 11.2205C178.511 11.2205 179.582 11.3522 180.636 11.6157C181.69 11.8628 182.621 12.2416 183.428 12.7522L182.193 15.7909C181.385 15.3297 180.578 14.9921 179.771 14.778C178.964 14.5474 178.174 14.4321 177.4 14.4321C176.626 14.4321 175.992 14.5227 175.497 14.7039C175.003 14.8851 174.649 15.1239 174.435 15.4203C174.221 15.7003 174.114 16.0297 174.114 16.4085C174.114 16.8532 174.295 17.2156 174.657 17.4956C175.02 17.7591 175.497 17.9732 176.09 18.1379C176.683 18.3026 177.334 18.4673 178.042 18.632C178.767 18.7967 179.483 18.9861 180.191 19.2002C180.916 19.4143 181.575 19.7026 182.168 20.0649C182.761 20.4272 183.238 20.9049 183.601 21.4978C183.98 22.0907 184.169 22.8401 184.169 23.746C184.169 24.7177 183.897 25.6071 183.354 26.4141C182.81 27.2211 181.995 27.8717 180.908 28.3658C179.837 28.8599 178.479 29.107 176.831 29.107Z" fill="#284E72"/>
<g clip-path="url(#clip0_145_237)">
<path d="M174.413 39.3089C171.605 39.5269 171.162 39.0578 171.096 38.9367C171.086 38.9163 171.072 38.8959 171.055 38.8781C169.113 36.8387 166.976 36.7648 166.976 36.7648C162.574 36.5838 161.226 37.0796 161.011 37.1739C160.985 37.1854 160.957 37.1931 160.928 37.1994C158.923 37.5856 157.95 37.3893 157.95 37.3893C153.838 36.7367 152.972 35.596 152.392 35.2607C151.53 34.7611 151.534 33.9071 151.534 33.9071L150.768 26.3729L151.402 26.6597L152.492 27.0586L153.147 27.2205L154.157 27.3951L155.366 27.4818L156.658 27.4448L157.228 27.3582L157.328 27.2957L156.873 26.9592L156.515 26.6354L156.416 26.4111L156.793 26.4736L157.725 26.6227L158.914 26.8101L160.104 26.8598L161.293 26.8343L162.7 26.5972L164.167 26.1728L164.821 25.8987V25.812L164.544 25.7751L164.009 25.6884L161.652 25.1645L160.127 24.6776L159.691 24.54L159.671 24.4533L160.206 24.3666L161.196 24.0429L161.969 23.6771L162.629 23.3036L162.973 23.0538L163.025 22.9378L162.985 22.8792L162.734 22.8537L162.127 22.8371L161.294 22.7874L160.726 22.7122L159.841 22.5465L158.798 22.289L157.57 21.8735L156.83 21.5829L156.87 21.5332L157.438 21.5421L158.323 21.5166L158.943 21.4669L159.63 21.3917L160.119 21.2834L160.648 21.1584L161.255 20.9583L161.915 20.6588L162.628 20.2012L163.077 19.8277L163.368 19.5371L163.408 19.4046L163.223 19.3791L162.642 19.3459L161.744 19.3039L161.069 19.2682L160.105 19.1458L159.127 18.9457L158.018 18.6462L156.762 18.1975L155.758 17.6571L155.151 17.2581L154.94 17.0759L155.059 17.0338L155.363 17.1166L155.878 17.1919L156.736 17.2339H157.82L158.864 17.109L159.933 16.8426L160.33 16.6935L160.832 16.4029L161.229 16.1033L161.321 15.9708L161.229 15.8624L160.911 15.8038L160.448 15.7617L158.6 15.3794L157.332 14.9804L156.315 14.556L155.925 14.3278L155.945 14.2411L156.758 14.2042L157.213 14.092L157.847 13.9671L158.244 13.8294L158.324 13.7542L158.067 13.679L157.314 13.5541L156.224 13.2801L155.055 12.8314L154.045 12.37L153.51 11.9965L154.085 12.0093L154.997 11.9226L155.928 11.7607L156.563 11.5364L157.256 11.2751L157.771 10.9386L157.988 10.6773L157.949 10.5027L157.651 10.4033L156.502 10.2032L154.857 9.74175L153.827 9.3428L152.915 8.90688L152.538 8.60734L152.558 8.53214L153.212 8.60734L153.867 8.5946L154.759 8.48243L155.452 8.27085L156.046 8.05926L156.443 7.79797L156.384 7.73551L155.968 7.63609L154.244 7.12497L153.372 6.82544L152.422 6.37677L152.124 6.18941L152.144 6.1142L152.422 6.08871L153.234 6.07596L153.849 5.9638L154.226 5.82614L154.285 5.73947L154.147 5.60181L152.72 4.71595L151.73 3.85559L150.878 2.93277L150.126 1.86082L148.971 0.00244141L147.986 1.54855L146.718 3.34447L145.451 4.49162L144.183 5.43866L143.708 5.73819L143.774 5.84653L144.103 5.97145L144.539 6.04665L145.133 6.09636H145.556L145.636 6.14607L145.584 6.22127L145.241 6.42903L144.356 6.8777L143.101 7.31871L141.978 7.62589L141.528 7.73423L141.449 7.81708L141.607 7.9165L142.241 8.22369L142.876 8.44037L143.654 8.55636L144.592 8.60607H145.359L145.212 8.78834L144.461 9.15415L143.774 9.47026L142.77 9.8195L141.647 10.1267L140.669 10.309L139.982 10.4504L139.757 10.5167V10.6416L139.915 10.7908L140.456 11.1897L141.142 11.4892L141.777 11.7225L142.569 11.8716L143.493 11.971H144.577L144.076 12.2871L143.415 12.7027L142.729 13.0022L141.673 13.3514L140.643 13.6178L140.088 13.7504L139.982 13.8995L140.193 13.999L140.485 14.1315L141.04 14.2309H141.726L141.463 14.4808L140.828 14.8466L139.533 15.2621L138.16 15.6279L137.182 15.8102L136.812 15.893V16.1097L137.209 16.4755L137.87 16.8248L138.61 16.9892L139.297 17.1243L140.459 17.2071L141.674 17.1409L142.894 16.9892L143.259 16.8579V17.0746L142.894 17.3741L142.123 17.8559L140.618 18.4792L138.874 18.9534L136.814 19.2669L134.634 19.4033L134.674 19.6034L134.952 19.8902L135.606 20.3644L136.389 20.7761L137.172 21.0565L138.213 21.3496L139.511 21.537L140.423 21.5803H141.027L140.948 21.6492L140.65 21.7613L139.643 22.1475L138.587 22.4636L137.543 22.6548L136.487 22.7874L135.589 22.846H134.929L134.915 22.962L135.113 23.2195L135.548 23.477L136.326 23.8593L137.013 24.1334L137.726 24.3577L138.215 24.4571L138.281 24.5068L138.109 24.6063L137.211 24.8803L136.155 25.2041L134.979 25.487L134.029 25.6693L133.382 25.7853L133.144 25.8184L133.224 25.9344L133.805 26.225L134.994 26.5653L136.25 26.782L136.91 26.8407H138.258L139.076 26.791L140.226 26.6418L141.063 26.4596L141.481 26.4098L141.573 26.443L141.559 26.5755L141.348 26.8419L140.859 27.1823L140.701 27.2906L140.781 27.3403L141.204 27.4232L141.587 27.4652H142.604L143.734 27.3569L145.141 27.1568L146.171 26.833L146.766 26.5832L147.103 26.4086L147.083 27.0943L146.945 28.9272L146.767 30.5982L146.378 33.9058C146.378 33.9058 146.318 35.0479 146.246 35.2225C145.647 36.6641 143.027 37.0656 143.027 37.0656C141.092 37.3039 140.345 37.0885 140.212 37.0414C140.193 37.035 140.175 37.0299 140.157 37.0261C135.304 36.1033 133.632 36.5672 133.632 36.5672C130.073 37.0656 129.193 38.3632 129.193 38.3632C128.994 38.8615 127.595 39.0285 127.595 39.0285L125.193 39.286C125.142 39.2911 125.093 39.3064 125.05 39.3293C124.402 39.7002 125.115 39.8251 125.115 39.8251C127.794 40.0915 128.313 39.6926 128.313 39.6926C128.795 39.4466 131.296 38.1758 131.665 37.9871C131.696 37.9718 131.73 37.9604 131.765 37.9527C132.714 37.7768 132.358 38.2472 132.256 38.3682C132.239 38.3874 132.225 38.409 132.216 38.4307C131.363 40.3273 128.626 41.1647 128.338 41.2476C128.321 41.2527 128.303 41.2591 128.287 41.2667C127.293 41.7205 128.313 41.7536 128.313 41.7536C131.348 41.9435 133.125 38.6589 133.298 38.3236C133.307 38.3058 133.313 38.2867 133.318 38.2663C133.462 37.6111 134.732 37.6252 134.895 37.6302C134.906 37.6302 134.918 37.6302 134.929 37.6328C138.353 38.0305 138.95 38.2625 138.95 38.2625C140.151 38.5289 138.95 38.6614 138.95 38.6614L137.603 38.8258C137.596 38.8258 137.588 38.8284 137.58 38.8297C133.195 39.597 133.736 41.8862 133.736 41.8862C133.799 42.5847 134.273 41.8862 134.273 41.8862C135.433 40.0902 137.671 39.9908 137.671 39.9908C139.55 39.8251 137.991 40.5555 137.991 40.5555C136.831 41.1545 137.231 43.6145 137.231 43.6145C137.35 44.2799 136.871 44.545 136.871 44.545C134.994 45.8107 134.309 46.2938 134.178 46.3894C134.161 46.4021 134.145 46.4149 134.132 46.4302C133.189 47.4307 134.204 47.2816 134.401 47.2446C134.421 47.2408 134.441 47.2357 134.461 47.2281C138.471 45.8005 138.271 44.2786 138.271 44.2786C138.512 41.7511 139.032 41.1533 139.032 41.1533C140.607 38.989 142.62 38.8093 142.945 38.794C142.975 38.7927 143.008 38.7876 143.037 38.7787C143.998 38.4944 143.342 39.0642 143.276 39.1203C143.271 39.1241 143.268 39.1266 143.264 39.1305L141.671 40.6536C140.506 41.6223 140.807 42.6433 140.892 42.8689C140.903 42.8969 140.92 42.9237 140.94 42.9479C141.551 43.6566 141.591 42.9479 141.591 42.9479C141.478 41.7613 142.355 41.0437 142.46 40.9608C142.468 40.9544 142.476 40.9493 142.482 40.9417L145.949 37.694C146.468 37.1625 146.669 37.694 146.669 37.694C147.097 40.1884 146.666 40.7199 146.568 40.8053C146.55 40.8206 146.536 40.8397 146.524 40.8576C145.711 42.0659 144.381 42.7108 144.241 42.7759C144.232 42.7797 144.225 42.7835 144.217 42.7886L140.391 44.9758C138.357 46.0835 138.615 47.9291 138.665 48.2006C138.67 48.2223 138.676 48.2439 138.687 48.2656C138.917 48.7194 139.168 48.3982 139.246 48.2758C139.262 48.2516 139.274 48.2248 139.28 48.1981C139.882 45.6068 141.07 45.4755 141.07 45.4755C141.597 45.3378 141.51 45.5418 141.51 45.5418C141.07 46.6392 141.51 47.0713 141.51 47.0713C142.025 47.6869 142.255 47.3122 142.326 47.1414C142.342 47.0993 142.347 47.0535 142.338 47.0088C142.079 45.6756 142.223 45.153 142.306 44.9822C142.326 44.9414 142.356 44.9057 142.398 44.8764L144.35 43.4807C145.1 42.9492 144.83 43.7471 144.83 43.7471C143.95 45.9089 144.31 46.3078 144.31 46.3078C144.554 46.6838 144.977 46.4072 145.084 46.3269C145.101 46.3155 145.115 46.3014 145.129 46.2874C145.976 45.3799 145.742 44.7298 145.682 44.6011C145.676 44.5871 145.668 44.5743 145.659 44.5629C145.161 43.8886 145.95 43.4068 146.059 43.3456C146.067 43.3405 146.075 43.338 146.084 43.3341C147.552 42.6892 147.751 41.087 147.751 41.087C147.871 40.7543 148.311 40.9876 148.311 40.9876C150.431 41.7855 149.909 43.3392 149.909 43.3392C149.494 45.7801 147.509 46.4365 147.29 46.5015C147.275 46.5066 147.259 46.5117 147.246 46.5181C142.914 48.4415 143.711 50.0322 143.711 50.0322C143.906 50.4898 144.151 50.2502 144.238 50.1418C144.26 50.1163 144.274 50.087 144.281 50.0564C144.756 48.3497 147.629 47.172 147.629 47.172C148.509 46.7399 148.429 47.4052 148.429 47.4052C148.389 48.2363 148.909 48.8685 148.909 48.8685C149.186 49.154 149.428 51.6612 149.428 51.6612C149.529 51.8715 149.727 51.8154 149.857 51.7466C149.939 51.7032 149.994 51.6319 150.006 51.5528C150.342 49.5912 149.9 48.7028 149.834 48.583C149.83 48.5728 149.824 48.5626 149.821 48.5524C149.232 47.0687 149.787 46.6405 149.787 46.6405C151.43 45.32 151.643 43.8848 151.62 43.1353C151.614 42.9122 151.907 42.7733 152.133 42.8944C153.338 43.5355 153.176 43.872 153.176 43.872C153.536 45.8668 152.771 46.3155 152.771 46.3155C151.991 47.0012 152.395 47.4996 152.395 47.4996C152.673 47.9826 153.09 47.6245 153.185 47.5327C153.197 47.5212 153.208 47.5085 153.219 47.4945C154.852 45.2537 154.36 45.0561 154.36 45.0561C153.822 44.6687 154.316 44.7999 154.488 44.8522C154.523 44.8624 154.555 44.8777 154.583 44.8968C155.211 45.3251 155.439 46.3155 155.439 46.3155C155.708 46.8444 155.309 49.284 155.263 49.5568C155.26 49.5734 155.259 49.5912 155.26 49.609C155.279 49.9621 155.378 50.0679 155.378 50.0679C155.764 50.6071 155.965 50.2502 156.02 50.1138C156.031 50.087 156.037 50.059 156.039 50.0297C156.114 47.7762 156.397 47.7481 156.397 47.7481C156.748 47.5799 156.862 47.599 156.862 47.599C158.016 47.599 158.956 49.0291 159.138 49.3274C159.161 49.3643 159.193 49.3962 159.231 49.4217C160.291 50.0972 159.8 49.2075 159.8 49.2075C158.735 46.7017 157.296 47.1376 157.296 47.1376C156.725 47.2612 156.635 46.7412 156.623 46.643C156.623 46.6328 156.623 46.6226 156.623 46.6124C156.676 45.4487 155.982 44.712 155.982 44.712C153.485 42.0774 152.36 41.6096 152.219 41.5586C152.207 41.5535 152.195 41.5484 152.182 41.542C150.101 40.4994 149.565 39.6913 149.565 39.6913C148.426 38.0126 149.664 37.0478 149.664 37.0478C150.162 36.6488 150.739 37.0121 150.86 37.0975C150.877 37.1102 150.895 37.1204 150.916 37.1293C153.527 38.2752 154.422 40.3426 154.497 40.5274C154.501 40.5364 154.505 40.5453 154.509 40.5542C155.251 41.9333 156.801 43.5202 157.032 43.7535C157.05 43.7726 157.073 43.7892 157.098 43.8032C157.967 44.3003 157.843 45.2868 157.781 45.5877C157.768 45.6578 157.788 45.7304 157.835 45.789C158.013 46.0032 158.172 45.8566 158.25 45.7546C158.284 45.71 158.3 45.659 158.3 45.6068L158.286 44.7795C158.281 44.545 158.612 44.4099 158.828 44.5616C159.391 44.9542 159.599 46.16 159.599 46.16C159.864 46.5487 160.044 46.3116 160.11 46.188C160.128 46.1523 160.139 46.1141 160.14 46.0758C160.169 44.1741 158.48 43.7331 158.48 43.7331C157.824 43.5559 157.484 43.1582 157.414 43.069C157.406 43.0588 157.398 43.0486 157.392 43.0372L156.845 42.0901C156.738 41.9053 156.903 41.6873 157.15 41.6937C158.273 41.723 159.236 42.0544 159.454 42.1347C159.486 42.1462 159.521 42.1538 159.556 42.1564C160.548 42.2341 159.681 41.7523 159.681 41.7523C159.417 41.1826 157.024 40.9544 156.446 40.9073C156.365 40.9009 156.289 40.8716 156.235 40.8206C155.622 40.2509 155.354 39.3828 155.246 38.9049C155.207 38.7264 155.381 38.562 155.599 38.5786C158.847 38.8271 161.244 41.3751 161.357 41.4974C161.36 41.5012 161.363 41.5038 161.368 41.5076L162.683 42.7835C162.754 42.8511 162.781 42.9428 162.754 43.0295C162.298 44.4176 163.718 46.3473 164.01 46.7246C164.044 46.7679 164.09 46.8024 164.145 46.8227C165.117 47.1962 164.662 46.4404 164.662 46.4404C163.751 44.8892 163.791 43.64 163.863 43.1264C163.883 42.9811 164.04 42.8753 164.214 42.8842C166.61 42.9989 167.39 43.9855 167.58 44.3003C167.618 44.364 167.684 44.415 167.766 44.4405C168.656 44.7094 168.081 44.0721 168.081 44.0721C166.581 42.0162 164.567 42.0786 164.279 42.099C164.253 42.1003 164.228 42.1003 164.202 42.0978C163.416 42.0073 163.172 41.7307 163.117 41.6504C163.105 41.6338 163.092 41.6172 163.076 41.6032L162.39 40.9634C162.39 40.9634 162.38 40.9532 162.374 40.9493L160.13 39.133C160.111 39.119 160.091 39.105 160.07 39.0948C159.467 38.7901 160.163 38.8615 160.163 38.8615C162.188 38.8845 164.821 39.611 165.14 39.7002C165.163 39.7066 165.185 39.7104 165.209 39.7117C165.982 39.778 165.952 40.4076 165.952 40.4076C166.052 40.8028 166.362 41.2501 166.461 41.3878C166.481 41.4158 166.507 41.4401 166.538 41.4605C167.139 41.8581 167.183 41.426 167.183 41.2922C167.183 41.2705 167.18 41.2489 167.174 41.2285L167.076 40.8818C167.067 40.8486 167.05 40.8168 167.027 40.7887L166.69 40.3796C166.677 40.3656 166.664 40.3515 166.648 40.3388C166.173 39.9526 166.492 39.7589 166.492 39.7589C166.791 39.3969 167.237 39.8544 167.318 39.9437C167.327 39.9551 167.338 39.9641 167.35 39.9743L168.281 40.7237C168.281 40.7237 168.293 40.7352 168.299 40.7403C169.105 41.5306 169.91 41.6287 169.91 41.6287L170.63 41.7281C171.32 41.6287 170.661 41.3037 170.661 41.3037C168.98 40.762 168.622 40.2011 168.57 40.0979C168.563 40.0839 168.555 40.0711 168.546 40.0584C167.997 39.337 166.978 39.0808 166.89 39.0604C166.886 39.0604 166.88 39.0578 166.875 39.0565L165.505 38.6601L163.541 38.1618C162.57 37.8966 163.324 37.6889 163.505 37.6468C163.529 37.6417 163.552 37.6379 163.577 37.6366L165.834 37.5385C166.783 37.4429 167.815 38.0802 167.897 38.1337C167.902 38.1363 167.907 38.1388 167.911 38.1414L169.853 39.2337C170.843 39.857 172.163 39.9322 172.163 39.9322C173.613 39.9972 174.258 39.8379 174.407 39.7933C174.428 39.7869 174.45 39.778 174.47 39.7678C175.172 39.4058 174.442 39.3089 174.442 39.3089H174.413Z" fill="#284E72"/>
<path d="M134.835 43.1648C134.835 43.1648 136.854 43.0896 134.886 42.525C134.886 42.525 129.927 42.3924 129.848 44.0545C129.848 44.0545 129.688 45.2514 130.568 44.0545C130.568 44.0545 131.118 43.082 134.837 43.1648H134.835Z" fill="#284E72"/>
<path d="M148.454 1.60596L147.844 2.64094L146.853 3.92448L146.001 4.6612L145.566 5.03466L145.426 5.15957H145.604H146.139L146.636 5.03466L147.229 4.77337L147.051 5.33419L146.656 5.84531L146.199 6.29398L145.426 6.84206L144.594 7.24229L143.881 7.54055L143.524 7.67821L144.059 7.74066H144.654L145.506 7.64124L146.397 7.45387L147.051 7.1913L147.289 7.05492L147.408 7.06767L147.309 7.35445L146.774 7.97774L146.081 8.58828L145.249 9.21156L144.317 9.70994L143.327 10.1216L142.355 10.4339L141.8 10.5588L141.9 10.671L142.612 10.7577H143.644L144.792 10.671L145.644 10.4836L146.319 10.272V10.3842L146.179 10.5703L146.061 10.6837L146.319 10.6582L146.814 10.4964L147.526 10.1216L148.061 9.63601L148.454 9.29951L149.033 9.66023L150.201 10.2465L151.193 10.5703L152.123 10.7577H153.193L153.985 10.6455L154.442 10.5091L154.223 10.4212L153.47 10.1968L152.638 9.87309L151.846 9.36197L150.816 8.66348L150.281 8.30149L149.825 7.97774L149.666 8.0147L149.706 8.13962L149.943 8.7629L150.42 9.26127L150.796 9.66023L150.875 9.79788L150.518 9.64875L149.726 9.27402L149.033 8.75015L148.596 8.23903L148.319 8.62524L147.686 9.0242L147.031 9.34922L146.179 9.64875L146.853 9.0994L147.526 8.37669L148.041 7.87704L148.299 7.22954L148.556 6.48135L148.596 5.90777L148.933 6.18181L149.369 6.43164L150.003 6.65597L150.438 6.78088L150.558 6.72989L150.438 6.53106L149.865 5.86953L149.251 5.10986L148.854 4.49805L148.716 3.90026L149.053 4.04939L149.608 4.32343L150.083 4.47383L150.241 4.48658L150.281 4.36167L150.003 4.08763L149.131 2.99018L148.596 2.05462L148.454 1.60596Z" fill="white"/>
<path d="M146.101 11.4192L145.249 12.342L143.862 13.6013L142.494 14.5739L141.087 15.2838L139.88 15.721L139.106 15.9326L138.988 16.0193L139.9 16.0945L141.325 16.0193L142.692 15.7949L143.842 15.4712L144.892 15.0977L145.506 14.8479L145.466 15.0595L145.347 15.2596L145.149 15.4457L145.526 15.4087L146.299 15.1219L146.913 14.8479L147.646 14.2488L148.121 13.6013V13.1641V12.8901L147.249 13.3885L146.397 13.7568L145.526 14.087L144.832 14.3113L145.189 13.9506L145.486 13.5516L145.862 12.8773L146.119 12.1789L146.219 11.6805L146.101 11.4192Z" fill="white"/>
<path d="M148.933 10.8699L149.191 11.6436L149.666 12.2796L150.538 12.8901L151.548 13.3146L152.975 13.5134H154.065H154.223L153.272 13.1642L152.262 12.6658L151.173 12.2796L150.261 11.7927L149.686 11.4192L148.933 10.8699Z" fill="white"/>
<path d="M150.003 13.6128H149.885V13.7568L150.241 14.1124L151.43 14.8606L152.322 15.2596L153.57 15.6203L154.877 15.9581L156.304 16.0945H157.374H157.929L157.254 15.9198L156.047 15.5706L155.292 15.2723L154.442 14.9728L154.105 14.686L153.907 14.4732L153.49 14.4234L152.678 14.3865L151.747 14.2616L150.895 14.05L150.4 13.8257L150.003 13.6128Z" fill="white"/>
<path d="M144.792 16.519L143.98 17.2915L142.969 17.9657L141.742 18.5508L140.335 19.0377L138.67 19.4608L137.303 19.7731L136.868 19.8725L137.065 20.0472L137.977 20.3964L139.502 20.5341H141.087L142.632 20.4092L143.921 20.1479L145.031 19.898V20.0344L144.812 20.4092L144.594 20.8336L144.574 20.9203L145.031 20.7584L145.961 20.3722L146.833 19.7986L147.309 19.3372L147.706 18.7751L147.824 18.3762V18.1901L147.546 18.3392L146.774 18.626L145.843 18.9128L144.991 19.0874L144.396 19.1996L144.456 19.0874L144.931 18.8758L145.744 18.4514L146.436 17.865L146.694 17.4916L146.853 17.1551L146.794 17.0544L146.576 17.1423L146.139 17.3667L145.446 17.6662L144.714 17.9657L144.139 18.1901L144.376 17.8408L144.714 17.3297L144.951 16.8555L145.011 16.519H144.792Z" fill="white"/>
<path d="M149.885 15.2598L150.043 16.2323L150.678 17.1424L151.53 17.8536L152.777 18.5521L154.105 19.1397L154.462 19.3003H153.987L152.6 18.8644L151.332 18.3405L150.322 17.7669L149.47 17.1436L148.935 16.7817V17.1806L149.232 17.8918L149.747 18.4782L151.055 19.3016L152.244 19.7375L154.463 20.2358L156.152 20.436H157.792L159.12 20.2868L159.972 20.037L160.309 19.8496L159.14 19.712L158.268 19.5743L156.762 19.1397L155.475 18.6643L154.286 18.1162L153.315 17.5553C153.315 17.5553 152.345 16.9563 152.265 16.9321C152.186 16.9078 151.513 16.5204 151.513 16.5204L150.581 15.9837L150.224 15.5478L149.887 15.261L149.885 15.2598Z" fill="white"/>
<path d="M148.161 20.5837L147.091 21.1815L146.001 21.6557L144.416 22.1426L143.129 22.3797L141.722 22.6155L142.197 22.3045L142.346 22.1298L141.979 22.2293L141.167 22.5288L139.64 22.8411L138.017 23.1024L137.165 23.189L137.72 23.4147L138.552 23.5893H139.8L140.989 23.5141L141.782 23.4516L142.039 23.4147L141.762 23.5893L141.087 23.9882L140.414 24.3744L139.483 24.7479L138.552 25.0602L137.561 25.4094L137.165 25.5585L136.966 25.6707H137.185H138.195L139.365 25.5968L140.552 25.4464L141.602 25.1966L143.069 24.7861L144.237 24.3617L144.674 24.1628L144.654 24.623L144.496 25.1966L144.179 25.6707L144.119 25.8084H144.317L145.031 25.6707L145.902 25.3215L146.971 24.7364L147.606 24.1628L147.824 23.7384L147.606 23.8251L147.011 24.1004L146.318 24.2623L146.001 24.2992L145.823 24.2623L146.041 24.0124L146.219 23.5638L146.299 23.0896L146.338 22.7901L147.269 22.1668L147.923 21.5193L148.161 20.9202V20.5837Z" fill="white"/>
<path d="M149.468 22.2051L149.31 22.8029V23.314V23.95L149.706 24.4242L150.458 25.0232L151.43 25.4222L152.38 25.7205H152.54L151.905 25.1354L151.291 24.4994L150.438 23.639L149.983 22.9647L149.468 22.2051Z" fill="white"/>
<path d="M152.163 21.1572L153.59 21.7933L155.294 22.3044L157.374 22.7785L159.494 23.1966L158.621 23.3903L157.532 23.4898L156.442 23.4273L155.135 23.1966L153.708 22.6919C153.708 22.6919 152.796 22.0686 152.698 22.0316C152.599 21.9946 152.163 21.3828 152.163 21.3828V21.1585V21.1572Z" fill="white"/>
<path d="M156.324 24.3872L157.512 24.6855L158.681 25.0347L159.612 25.3597L160.444 25.6707L159.731 25.7204H158.582L157.749 25.5344L157.037 25.1724L156.522 24.6855L156.324 24.3872Z" fill="white"/>
</g>
<line x1="8.74228e-08" y1="32.4045" x2="282" y2="32.4046" stroke="#284E72" stroke-width="2"/>
<defs>
<clipPath id="clip0_145_237">
<rect width="49.9913" height="51.8091" fill="white" transform="translate(124.755)"/>
</clipPath>
</defs>
</svg>
