<svg width="311" height="57" viewBox="0 0 311 57" fill="none" xmlns="http://www.w3.org/2000/svg">
<path d="M134.299 32.0233C132.777 32.0233 131.319 31.824 129.923 31.4254C128.528 31.0086 127.405 30.474 126.553 29.8217L128.048 26.5057C128.863 27.0856 129.824 27.5657 130.929 27.9463C132.052 28.3087 133.185 28.4899 134.327 28.4899C135.196 28.4899 135.894 28.4083 136.419 28.2453C136.963 28.0641 137.362 27.8194 137.615 27.5114C137.869 27.2033 137.996 26.85 137.996 26.4514C137.996 25.944 137.797 25.5453 137.398 25.2554C136.999 24.9474 136.474 24.7027 135.821 24.5215C135.169 24.3222 134.444 24.141 133.647 23.9779C132.868 23.7967 132.08 23.5793 131.282 23.3256C130.503 23.0719 129.787 22.7458 129.135 22.3471C128.483 21.9485 127.948 21.423 127.531 20.7706C127.133 20.1183 126.934 19.2848 126.934 18.2701C126.934 17.1828 127.223 16.1953 127.803 15.3074C128.401 14.4014 129.289 13.6856 130.467 13.1601C131.663 12.6165 133.158 12.3447 134.952 12.3447C136.148 12.3447 137.325 12.4897 138.485 12.7796C139.645 13.0514 140.669 13.4682 141.557 14.0299L140.198 17.3731C139.31 16.8657 138.422 16.4943 137.534 16.2587C136.646 16.005 135.776 15.8782 134.925 15.8782C134.073 15.8782 133.375 15.9778 132.832 16.1772C132.288 16.3765 131.898 16.6392 131.663 16.9654C131.427 17.2734 131.31 17.6358 131.31 18.0526C131.31 18.5419 131.509 18.9405 131.908 19.2485C132.306 19.5385 132.832 19.774 133.484 19.9552C134.136 20.1364 134.852 20.3176 135.631 20.4988C136.429 20.68 137.217 20.8884 137.996 21.124C138.793 21.3596 139.518 21.6767 140.17 22.0753C140.823 22.474 141.348 22.9994 141.747 23.6518C142.164 24.3041 142.372 25.1286 142.372 26.1252C142.372 27.1943 142.073 28.1728 141.475 29.0607C140.877 29.9486 139.98 30.6643 138.784 31.2079C137.606 31.7515 136.111 32.0233 134.299 32.0233Z" fill="#284E72"/>
<path d="M100.661 31.6972V12.6709H104.303L115.529 26.3698H113.762V12.6709H118.111V31.6972H114.496L103.243 17.9983H105.01V31.6972H100.661Z" fill="#284E72"/>
<path d="M71.9138 31.6972L80.3941 12.6709H84.743L93.2504 31.6972H88.6298L81.6716 14.8997H83.4111L76.4258 31.6972H71.9138ZM76.154 27.6201L77.3227 24.2769H87.1077L88.3036 27.6201H76.154Z" fill="#284E72"/>
<path d="M52.4683 31.6972V12.6709H56.8715V28.1094H66.4118V31.6972H52.4683Z" fill="#284E72"/>
<path d="M23.7217 31.6972L32.202 12.6709H36.5508L45.0583 31.6972H40.4376L33.4794 14.8997H35.219L28.2336 31.6972H23.7217ZM27.9618 27.6201L29.1306 24.2769H38.9155L40.1115 27.6201H27.9618Z" fill="#284E72"/>
<path d="M0.00317383 31.6972V12.6709H9.29887C11.6907 12.6709 13.4847 13.1239 14.6806 14.0299C15.8946 14.9359 16.5017 16.1319 16.5017 17.6177C16.5017 18.6143 16.2571 19.4841 15.7678 20.227C15.2786 20.9519 14.6081 21.5136 13.7565 21.9122C12.9048 22.3109 11.9263 22.5102 10.821 22.5102L11.3374 21.3958C12.5333 21.3958 13.5934 21.5951 14.5175 21.9938C15.4416 22.3743 16.1574 22.9451 16.6648 23.7061C17.1902 24.4672 17.453 25.4004 17.453 26.5057C17.453 28.1365 16.8097 29.414 15.5232 30.3382C14.2366 31.2442 12.3431 31.6972 9.84248 31.6972H0.00317383ZM4.37922 28.3812H9.51631C10.6579 28.3812 11.5186 28.2 12.0984 27.8376C12.6964 27.457 12.9954 26.8591 12.9954 26.0437C12.9954 25.2464 12.6964 24.6575 12.0984 24.2769C11.5186 23.8783 10.6579 23.679 9.51631 23.679H4.05305V20.4717H8.75526C9.82436 20.4717 10.6398 20.2905 11.2015 19.9281C11.7813 19.5475 12.0713 18.9768 12.0713 18.2157C12.0713 17.4728 11.7813 16.9201 11.2015 16.5577C10.6398 16.1772 9.82436 15.9869 8.75526 15.9869H4.37922V28.3812Z" fill="#284E72"/>
<path d="M288.788 31.6972L297.268 12.6709H301.617L310.124 31.6972H305.504L298.545 14.8997H300.285L293.3 31.6972H288.788ZM293.028 27.6201L294.197 24.2769H303.981L305.177 27.6201H293.028Z" fill="#284E72"/>
<path d="M265.865 31.6972V12.6709H274.101C275.804 12.6709 277.272 12.9518 278.504 13.5135C279.736 14.0571 280.687 14.8453 281.358 15.8782C282.028 16.911 282.364 18.1432 282.364 19.5747C282.364 20.9881 282.028 22.2112 281.358 23.2441C280.687 24.2588 279.736 25.038 278.504 25.5816C277.272 26.1252 275.804 26.397 274.101 26.397H268.311L270.268 24.4672V31.6972H265.865ZM277.96 31.6972L273.204 24.7934H277.906L282.717 31.6972H277.96ZM270.268 24.9564L268.311 22.8907H273.856C275.215 22.8907 276.23 22.6008 276.9 22.021C277.571 21.423 277.906 20.6076 277.906 19.5747C277.906 18.5237 277.571 17.7083 276.9 17.1285C276.23 16.5486 275.215 16.2587 273.856 16.2587H268.311L270.268 14.1658V24.9564Z" fill="#284E72"/>
<path d="M251.51 31.6972V12.6709H255.914V31.6972H251.51Z" fill="#284E72"/>
<path d="M225.291 31.6972V12.6709H234.587C236.979 12.6709 238.772 13.1239 239.968 14.0299C241.182 14.9359 241.79 16.1319 241.79 17.6177C241.79 18.6143 241.545 19.4841 241.056 20.227C240.566 20.9519 239.896 21.5136 239.044 21.9122C238.193 22.3109 237.214 22.5102 236.109 22.5102L236.625 21.3958C237.821 21.3958 238.881 21.5951 239.805 21.9938C240.729 22.3743 241.445 22.9451 241.953 23.7061C242.478 24.4672 242.741 25.4004 242.741 26.5057C242.741 28.1365 242.098 29.414 240.811 30.3382C239.524 31.2442 237.631 31.6972 235.13 31.6972H225.291ZM229.667 28.3812H234.804C235.946 28.3812 236.806 28.2 237.386 27.8376C237.984 27.457 238.283 26.8591 238.283 26.0437C238.283 25.2464 237.984 24.6575 237.386 24.2769C236.806 23.8783 235.946 23.679 234.804 23.679H229.341V20.4717H234.043C235.112 20.4717 235.928 20.2905 236.489 19.9281C237.069 19.5475 237.359 18.9768 237.359 18.2157C237.359 17.4728 237.069 16.9201 236.489 16.5577C235.928 16.1772 235.112 15.9869 234.043 15.9869H229.667V28.3812Z" fill="#284E72"/>
<path d="M210.936 31.6972V12.6709H215.34V31.6972H210.936Z" fill="#284E72"/>
<path d="M194.419 32.0233C192.897 32.0233 191.438 31.824 190.043 31.4254C188.647 31.0086 187.524 30.474 186.672 29.8217L188.167 26.5057C188.983 27.0856 189.943 27.5657 191.048 27.9463C192.172 28.3087 193.304 28.4899 194.446 28.4899C195.316 28.4899 196.013 28.4083 196.539 28.2453C197.082 28.0641 197.481 27.8194 197.735 27.5114C197.988 27.2033 198.115 26.85 198.115 26.4514C198.115 25.944 197.916 25.5453 197.517 25.2554C197.119 24.9474 196.593 24.7027 195.941 24.5215C195.289 24.3222 194.564 24.141 193.766 23.9779C192.987 23.7967 192.199 23.5793 191.402 23.3256C190.623 23.0719 189.907 22.7458 189.255 22.3471C188.602 21.9485 188.068 21.423 187.651 20.7706C187.252 20.1183 187.053 19.2848 187.053 18.2701C187.053 17.1828 187.343 16.1953 187.923 15.3074C188.521 14.4014 189.409 13.6856 190.586 13.1601C191.782 12.6165 193.277 12.3447 195.071 12.3447C196.267 12.3447 197.445 12.4897 198.605 12.7796C199.764 13.0514 200.788 13.4682 201.676 14.0299L200.317 17.3731C199.429 16.8657 198.541 16.4943 197.653 16.2587C196.765 16.005 195.896 15.8782 195.044 15.8782C194.192 15.8782 193.495 15.9778 192.951 16.1772C192.407 16.3765 192.018 16.6392 191.782 16.9654C191.547 17.2734 191.429 17.6358 191.429 18.0526C191.429 18.5419 191.628 18.9405 192.027 19.2485C192.426 19.5385 192.951 19.774 193.603 19.9552C194.256 20.1364 194.971 20.3176 195.751 20.4988C196.548 20.68 197.336 20.8884 198.115 21.124C198.913 21.3596 199.637 21.6767 200.29 22.0753C200.942 22.474 201.468 22.9994 201.866 23.6518C202.283 24.3041 202.491 25.1286 202.491 26.1252C202.491 27.1943 202.192 28.1728 201.594 29.0607C200.996 29.9486 200.099 30.6643 198.904 31.2079C197.726 31.7515 196.231 32.0233 194.419 32.0233Z" fill="#284E72"/>
<g clip-path="url(#clip0_205_91)">
<path d="M191.758 43.2474C188.669 43.4871 188.182 42.9711 188.109 42.8379C188.097 42.8154 188.082 42.793 188.064 42.7734C185.927 40.5297 183.577 40.4483 183.577 40.4483C178.734 40.2492 177.25 40.7947 177.014 40.8985C176.985 40.9111 176.954 40.9195 176.922 40.9265C174.717 41.3514 173.646 41.1355 173.646 41.1355C169.122 40.4175 168.169 39.1624 167.532 38.7936C166.582 38.2439 166.587 37.3043 166.587 37.3043L165.744 29.0152L166.442 29.3308L167.641 29.7697L168.361 29.9478L169.472 30.1399L170.803 30.2352L172.224 30.1946L172.852 30.0992L172.961 30.0305L172.461 29.6603L172.068 29.3041L171.958 29.0573L172.373 29.126L173.398 29.2901L174.707 29.4962L176.015 29.5509L177.324 29.5229L178.872 29.262L180.486 28.7951L181.206 28.4936V28.3982L180.9 28.3575L180.312 28.2622L177.718 27.6858L176.041 27.1501L175.562 26.9987L175.54 26.9033L176.128 26.808L177.218 26.4518L178.067 26.0493L178.794 25.6385L179.172 25.3636L179.229 25.236L179.185 25.1715L178.909 25.1434L178.241 25.1252L177.325 25.0705L176.7 24.9878L175.727 24.8055L174.579 24.5222L173.228 24.065L172.413 23.7453L172.457 23.6906L173.083 23.7004L174.056 23.6724L174.739 23.6177L175.494 23.535L176.032 23.4158L176.614 23.2783L177.282 23.0582L178.008 22.7286L178.793 22.2252L179.287 21.8143L179.607 21.4946L179.651 21.3488L179.447 21.3207L178.808 21.2843L177.82 21.238L177.078 21.1987L176.017 21.0641L174.941 20.8439L173.72 20.5144L172.339 20.0208L171.235 19.4262L170.567 18.9873L170.334 18.7867L170.466 18.7405L170.8 18.8316L171.366 18.9143L172.31 18.9606H173.503L174.651 18.8232L175.828 18.5301L176.265 18.366L176.816 18.0463L177.253 17.7168L177.354 17.5709L177.253 17.4517L176.904 17.3872L176.395 17.3409L174.361 16.9202L172.966 16.4813L171.847 16.0143L171.418 15.7633L171.44 15.668L172.334 15.6273L172.835 15.5039L173.533 15.3665L173.97 15.215L174.057 15.1323L173.774 15.0496L172.946 14.9121L171.747 14.6106L170.461 14.117L169.349 13.6094L168.761 13.1985L169.393 13.2125L170.397 13.1172L171.422 12.9391L172.12 12.6923L172.882 12.4048L173.449 12.0346L173.688 11.7471L173.644 11.555L173.317 11.4456L172.052 11.2254L170.243 10.7178L169.11 10.2789L168.107 9.79928L167.692 9.46973L167.714 9.38699L168.434 9.46973L169.154 9.45571L170.135 9.3323L170.897 9.09952L171.552 8.86673L171.988 8.57926L171.923 8.51055L171.466 8.40116L169.569 7.83884L168.609 7.50929L167.564 7.01567L167.236 6.80953L167.258 6.7268L167.564 6.69875L168.457 6.68473L169.133 6.56132L169.548 6.40987L169.614 6.31452L169.462 6.16307L167.892 5.18846L166.803 4.24189L165.865 3.22661L165.037 2.04726L163.768 0.00268555L162.683 1.7037L161.289 3.67956L159.894 4.94165L158.5 5.98357L157.977 6.31311L158.049 6.43231L158.412 6.56974L158.891 6.65247L159.545 6.70717H160.011L160.098 6.76186L160.041 6.84459L159.663 7.07317L158.69 7.56679L157.309 8.05199L156.073 8.38995L155.579 8.50914L155.491 8.60029L155.665 8.70967L156.363 9.04763L157.061 9.28603L157.918 9.41364L158.95 9.46833H159.793L159.631 9.66886L158.805 10.0713L158.049 10.4191L156.945 10.8033L155.709 11.1413L154.633 11.3418L153.878 11.4975L153.63 11.5704V11.7078L153.803 11.8719L154.399 12.3108L155.154 12.6404L155.852 12.897L156.724 13.0611L157.741 13.1704H158.933L158.382 13.5182L157.655 13.9754L156.899 14.3049L155.738 14.6892L154.604 14.9822L153.994 15.1281L153.878 15.2922L154.11 15.4015L154.431 15.5474L155.041 15.6568H155.797L155.507 15.9316L154.808 16.3341L153.384 16.7912L151.873 17.1937L150.797 17.3942L150.39 17.4854V17.7238L150.827 18.1262L151.554 18.5105L152.368 18.6914L153.124 18.84L154.402 18.9312L155.739 18.8582L157.082 18.6914L157.483 18.5469V18.7853L157.082 19.1149L156.233 19.6449L154.577 20.3307L152.658 20.8523L150.392 21.1973L147.994 21.3474L148.038 21.5675L148.343 21.883L149.063 22.4047L149.925 22.8577L150.787 23.1662L151.932 23.4887L153.36 23.6948L154.363 23.7425H155.028L154.94 23.8182L154.613 23.9416L153.505 24.3665L152.343 24.7143L151.195 24.9247L150.033 25.0705L149.045 25.135H148.318L148.303 25.2626L148.52 25.5459L148.999 25.8292L149.856 26.2499L150.611 26.5514L151.395 26.7982L151.933 26.9075L152.006 26.9622L151.817 27.0716L150.829 27.3731L149.667 27.7293L148.374 28.0406L147.328 28.2412L146.616 28.3688L146.355 28.4052L146.443 28.5328L147.082 28.8526L148.39 29.227L149.772 29.4654L150.498 29.5299H151.981L152.881 29.4752L154.146 29.3111L155.066 29.1106L155.527 29.0559L155.628 29.0924L155.613 29.2382L155.38 29.5313L154.842 29.9057L154.668 30.0249L154.756 30.0796L155.222 30.1707L155.643 30.217H156.763L158.006 30.0978L159.554 29.8777L160.687 29.5215L161.341 29.2466L161.712 29.0545L161.69 29.8089L161.538 31.8255L161.343 33.6639L160.915 37.3029C160.915 37.3029 160.849 38.5594 160.769 38.7515C160.11 40.3375 157.228 40.7793 157.228 40.7793C155.098 41.0415 154.277 40.8045 154.131 40.7526C154.11 40.7456 154.09 40.74 154.07 40.7358C148.731 39.7205 146.891 40.231 146.891 40.231C142.976 40.7793 142.008 42.2068 142.008 42.2068C141.789 42.7551 140.249 42.9388 140.249 42.9388L137.607 43.2221C137.551 43.2277 137.497 43.2445 137.45 43.2698C136.736 43.6779 137.521 43.8153 137.521 43.8153C140.468 44.1084 141.04 43.6695 141.04 43.6695C141.569 43.3988 144.321 42.0007 144.728 41.7931C144.762 41.7763 144.799 41.7637 144.837 41.7553C145.881 41.5618 145.49 42.0792 145.377 42.2124C145.358 42.2335 145.343 42.2573 145.333 42.2812C144.396 44.3678 141.384 45.2891 141.067 45.3803C141.048 45.3859 141.028 45.3929 141.011 45.4013C139.917 45.9005 141.04 45.937 141.04 45.937C144.379 46.1459 146.333 42.5322 146.524 42.1634C146.534 42.1437 146.541 42.1227 146.546 42.1003C146.704 41.3795 148.102 41.3949 148.281 41.4005C148.293 41.4005 148.306 41.4005 148.318 41.4033C152.085 41.8408 152.743 42.096 152.743 42.096C154.063 42.3891 152.743 42.535 152.743 42.535L151.26 42.7159C151.252 42.7159 151.244 42.7187 151.235 42.7201C146.411 43.5643 147.006 46.0828 147.006 46.0828C147.075 46.8513 147.596 46.0828 147.596 46.0828C148.873 44.107 151.335 43.9976 151.335 43.9976C153.402 43.8153 151.687 44.6188 151.687 44.6188C150.411 45.2779 150.851 47.9844 150.851 47.9844C150.982 48.7164 150.454 49.0081 150.454 49.0081C148.39 50.4006 147.637 50.9321 147.492 51.0372C147.473 51.0513 147.456 51.0653 147.441 51.0821C146.404 52.1829 147.52 52.0188 147.738 51.9782C147.76 51.974 147.782 51.9684 147.804 51.96C152.215 50.3894 151.996 48.715 151.996 48.715C152.26 45.9342 152.832 45.2765 152.832 45.2765C154.566 42.8954 156.78 42.6976 157.137 42.6808C157.171 42.6794 157.206 42.6738 157.238 42.664C158.296 42.3513 157.574 42.9781 157.501 43.0398C157.496 43.044 157.493 43.0468 157.488 43.051L155.736 44.7268C154.454 45.7926 154.785 46.9158 154.879 47.164C154.891 47.1949 154.91 47.2243 154.932 47.251C155.604 48.0307 155.648 47.251 155.648 47.251C155.523 45.9454 156.488 45.1559 156.604 45.0648C156.613 45.0577 156.621 45.0521 156.628 45.0437L160.442 41.4706C161.014 40.8859 161.235 41.4706 161.235 41.4706C161.705 44.215 161.232 44.7997 161.124 44.8937C161.103 44.9105 161.088 44.9315 161.075 44.9512C160.181 46.2806 158.717 46.9901 158.564 47.0617C158.554 47.0659 158.545 47.0701 158.537 47.0757L154.328 49.4821C152.09 50.7007 152.373 52.7312 152.429 53.0299C152.434 53.0538 152.441 53.0776 152.453 53.1014C152.706 53.6007 152.982 53.2473 153.068 53.1127C153.085 53.086 153.099 53.0566 153.105 53.0271C153.768 50.1762 155.075 50.0318 155.075 50.0318C155.655 49.8803 155.559 50.1047 155.559 50.1047C155.075 51.3121 155.559 51.7875 155.559 51.7875C156.125 52.4648 156.378 52.0525 156.456 51.8646C156.475 51.8183 156.48 51.7678 156.469 51.7188C156.184 50.2519 156.343 49.677 156.434 49.4891C156.456 49.4442 156.49 49.4049 156.535 49.3727L158.684 47.8371C159.508 47.2524 159.211 48.1302 159.211 48.1302C158.243 50.5086 158.64 50.9475 158.64 50.9475C158.908 51.3612 159.373 51.0569 159.491 50.9685C159.51 50.9559 159.525 50.9405 159.54 50.925C160.473 49.9266 160.215 49.2114 160.149 49.0698C160.142 49.0544 160.134 49.0403 160.124 49.0277C159.576 48.2859 160.444 47.7558 160.564 47.6885C160.572 47.6829 160.581 47.6801 160.591 47.6759C162.206 46.9663 162.425 45.2036 162.425 45.2036C162.557 44.8376 163.041 45.0942 163.041 45.0942C165.373 45.9721 164.8 47.6815 164.8 47.6815C164.343 50.3669 162.159 51.0891 161.918 51.1606C161.901 51.1662 161.884 51.1718 161.869 51.1789C157.103 53.295 157.98 55.045 157.98 55.045C158.195 55.5485 158.464 55.2848 158.56 55.1657C158.584 55.1376 158.599 55.1053 158.608 55.0717C159.13 53.194 162.291 51.8982 162.291 51.8982C163.258 51.4229 163.171 52.1549 163.171 52.1549C163.127 53.0692 163.699 53.7647 163.699 53.7647C164.004 54.0789 164.27 56.8372 164.27 56.8372C164.382 57.0686 164.599 57.0069 164.742 56.9312C164.832 56.8835 164.892 56.805 164.906 56.718C165.275 54.5598 164.79 53.5824 164.717 53.4506C164.712 53.4394 164.705 53.4282 164.702 53.417C164.054 51.7847 164.665 51.3135 164.665 51.3135C166.473 49.8607 166.707 48.2817 166.682 47.4571C166.675 47.2117 166.997 47.0589 167.247 47.1921C168.572 47.8974 168.393 48.2677 168.393 48.2677C168.789 50.4623 167.948 50.9559 167.948 50.9559C167.09 51.7103 167.535 52.2586 167.535 52.2586C167.84 52.7901 168.299 52.3961 168.403 52.2951C168.417 52.2825 168.429 52.2685 168.44 52.253C170.238 49.7878 169.697 49.5704 169.697 49.5704C169.105 49.1441 169.648 49.2885 169.837 49.346C169.875 49.3573 169.911 49.3741 169.941 49.3951C170.633 49.8663 170.884 50.9559 170.884 50.9559C171.179 51.5379 170.741 54.2219 170.69 54.522C170.687 54.5402 170.685 54.5598 170.687 54.5795C170.707 54.9679 170.816 55.0843 170.816 55.0843C171.241 55.6775 171.462 55.2848 171.523 55.1348C171.535 55.1054 171.541 55.0745 171.543 55.0422C171.626 52.5629 171.938 52.5321 171.938 52.5321C172.324 52.347 172.449 52.368 172.449 52.368C173.718 52.368 174.752 53.9414 174.953 54.2696C174.978 54.3102 175.014 54.3453 175.056 54.3733C176.221 55.1166 175.681 54.1377 175.681 54.1377C174.509 51.3808 172.926 51.8604 172.926 51.8604C172.299 51.9964 172.199 51.4243 172.186 51.3163C172.186 51.3051 172.186 51.2939 172.186 51.2826C172.245 50.0023 171.481 49.1918 171.481 49.1918C168.734 46.2932 167.496 45.7785 167.341 45.7224C167.327 45.7168 167.314 45.7112 167.3 45.7042C165.01 44.5571 164.42 43.668 164.42 43.668C163.167 41.8212 164.53 40.7596 164.53 40.7596C165.078 40.3207 165.712 40.7204 165.845 40.8143C165.864 40.8284 165.884 40.8396 165.908 40.8494C168.779 42.1101 169.764 44.3846 169.847 44.588C169.852 44.5978 169.855 44.6076 169.86 44.6174C170.676 46.1347 172.381 47.8806 172.636 48.1372C172.656 48.1583 172.681 48.1765 172.708 48.1919C173.665 48.7388 173.528 49.8242 173.46 50.1552C173.445 50.2323 173.467 50.3122 173.52 50.3767C173.715 50.6123 173.89 50.4511 173.976 50.3389C174.014 50.2898 174.03 50.2337 174.03 50.1762L174.015 49.2661C174.01 49.0081 174.374 48.8594 174.612 49.0263C175.231 49.4582 175.46 50.7848 175.46 50.7848C175.752 51.2125 175.949 50.9517 176.022 50.8157C176.042 50.7764 176.054 50.7343 176.056 50.6923C176.088 48.6 174.229 48.1148 174.229 48.1148C173.508 47.9199 173.133 47.4823 173.056 47.3842C173.047 47.373 173.039 47.3618 173.032 47.3491L172.43 46.3072C172.312 46.1039 172.494 45.8641 172.766 45.8711C174.002 45.9033 175.061 46.2679 175.3 46.3563C175.336 46.3689 175.374 46.3773 175.413 46.3801C176.504 46.4657 175.55 45.9356 175.55 45.9356C175.26 45.3088 172.627 45.0577 171.992 45.0059C171.902 44.9988 171.818 44.9666 171.759 44.9105C171.085 44.2837 170.789 43.3287 170.671 42.8028C170.628 42.6065 170.82 42.4256 171.059 42.4438C174.632 42.7173 177.27 45.5205 177.395 45.6551C177.398 45.6593 177.401 45.6621 177.406 45.6663L178.853 47.0701C178.931 47.1444 178.961 47.2454 178.931 47.3407C178.43 48.8678 179.991 50.9909 180.314 51.406C180.351 51.4537 180.401 51.4916 180.462 51.514C181.531 51.9249 181.03 51.0933 181.03 51.0933C180.029 49.3867 180.072 48.0124 180.152 47.4473C180.174 47.2874 180.346 47.171 180.538 47.1809C183.174 47.3071 184.032 48.3925 184.241 48.7388C184.283 48.8089 184.356 48.865 184.445 48.8931C185.425 49.189 184.792 48.4878 184.792 48.4878C183.141 46.2259 180.926 46.2946 180.609 46.317C180.58 46.3184 180.553 46.3184 180.524 46.3156C179.659 46.2161 179.391 45.9118 179.33 45.8234C179.317 45.8052 179.303 45.7869 179.285 45.7715L178.531 45.0676C178.531 45.0676 178.519 45.0563 178.513 45.0521L176.044 43.0538C176.024 43.0384 176.002 43.023 175.978 43.0118C175.315 42.6766 176.081 42.7551 176.081 42.7551C178.309 42.7804 181.206 43.5797 181.556 43.6779C181.582 43.6849 181.605 43.6891 181.632 43.6905C182.482 43.7634 182.45 44.4561 182.45 44.4561C182.56 44.8909 182.9 45.3831 183.01 45.5345C183.032 45.5654 183.061 45.592 183.094 45.6145C183.755 46.052 183.804 45.5766 183.804 45.4294C183.804 45.4055 183.801 45.3817 183.794 45.3592L183.686 44.9778C183.676 44.9414 183.657 44.9063 183.632 44.8754L183.261 44.4253C183.248 44.4099 183.233 44.3944 183.216 44.3804C182.693 43.9555 183.044 43.7424 183.044 43.7424C183.372 43.3441 183.863 43.8475 183.953 43.9457C183.963 43.9583 183.975 43.9681 183.988 43.9794L185.012 44.8039C185.012 44.8039 185.025 44.8165 185.032 44.8222C185.919 45.6916 186.804 45.7996 186.804 45.7996L187.597 45.909C188.355 45.7996 187.63 45.442 187.63 45.442C185.781 44.846 185.388 44.229 185.33 44.1154C185.322 44.1 185.313 44.0859 185.303 44.0719C184.7 43.2782 183.578 42.9963 183.482 42.9739C183.477 42.9739 183.47 42.9711 183.465 42.9697L181.958 42.5336L179.798 41.9853C178.728 41.6936 179.558 41.465 179.757 41.4187C179.784 41.4131 179.809 41.4089 179.836 41.4075L182.32 41.2995C183.364 41.1944 184.499 41.8955 184.59 41.9544C184.595 41.9572 184.6 41.96 184.605 41.9628L186.742 43.1646C187.831 43.8503 189.283 43.9331 189.283 43.9331C190.878 44.0046 191.588 43.8293 191.752 43.7802C191.775 43.7732 191.799 43.7634 191.821 43.7522C192.593 43.3539 191.79 43.2474 191.79 43.2474H191.758Z" fill="#284E72"/>
<path d="M148.215 47.4894C148.215 47.4894 150.436 47.4067 148.271 46.7855C148.271 46.7855 142.816 46.6396 142.728 48.4683C142.728 48.4683 142.553 49.785 143.521 48.4683C143.521 48.4683 144.126 47.3983 148.217 47.4894H148.215Z" fill="#284E72"/>
<path d="M163.198 1.76697L162.526 2.90565L161.437 4.31778L160.5 5.12832L160.021 5.5392L159.867 5.67663H160.063H160.651L161.198 5.5392L161.85 5.25173L161.655 5.86875L161.22 6.43108L160.717 6.92469L159.867 7.52769L158.952 7.96802L158.167 8.29616L157.775 8.44761L158.363 8.51632H159.017L159.955 8.40694L160.935 8.2008L161.655 7.91192L161.916 7.76187L162.048 7.7759L161.938 8.09142L161.349 8.77715L160.587 9.44886L159.672 10.1346L158.646 10.6829L157.557 11.1359L156.488 11.4794L155.877 11.6168L155.987 11.7402L156.771 11.8356H157.906L159.169 11.7402L160.107 11.5341L160.849 11.3013V11.4247L160.695 11.6295L160.565 11.7543L160.849 11.7262L161.393 11.5481L162.177 11.1359L162.766 10.6016L163.198 10.2314L163.835 10.6282L165.12 11.2733L166.211 11.6295L167.235 11.8356H168.412L169.283 11.7122L169.786 11.5622L169.545 11.4654L168.717 11.2186L167.801 10.8624L166.929 10.3001L165.796 9.5316L165.208 9.13334L164.707 8.77715L164.531 8.81782L164.575 8.95525L164.837 9.64098L165.361 10.1893L165.774 10.6282L165.862 10.7797L165.469 10.6156L164.597 10.2033L163.835 9.62696L163.354 9.06463L163.049 9.48953L162.353 9.92846L161.633 10.286L160.695 10.6156L161.437 10.0112L162.177 9.21608L162.744 8.66637L163.027 7.95399L163.311 7.13083L163.354 6.49979L163.725 6.80129L164.204 7.07614L164.902 7.32295L165.381 7.46038L165.513 7.40428L165.381 7.18552L164.751 6.45772L164.074 5.62194L163.638 4.94883L163.486 4.29114L163.857 4.45521L164.467 4.75671L164.99 4.92218L165.164 4.93621L165.208 4.79878L164.902 4.49728L163.943 3.28988L163.354 2.26058L163.198 1.76697Z" fill="white"/>
<path d="M160.609 12.5634L159.672 13.5786L158.146 14.9641L156.641 16.0341L155.093 16.8152L153.765 17.2962L152.913 17.529L152.783 17.6243L153.787 17.7071L155.355 17.6243L156.859 17.3775L158.124 17.0213L159.279 16.6104L159.955 16.3356L159.911 16.5684L159.78 16.7885L159.562 16.9933L159.977 16.9526L160.827 16.6371L161.503 16.3356L162.309 15.6765L162.832 14.9641V14.4831V14.1816L161.872 14.7299L160.935 15.1352L159.977 15.4984L159.213 15.7452L159.606 15.3484L159.933 14.9094L160.346 14.1676L160.63 13.3991L160.739 12.8508L160.609 12.5634Z" fill="white"/>
<path d="M163.726 11.959L164.009 12.8102L164.532 13.5099L165.491 14.1817L166.602 14.6486L168.172 14.8674H169.371H169.545L168.499 14.4832L167.388 13.9349L166.189 13.5099L165.186 12.9743L164.554 12.5634L163.726 11.959Z" fill="white"/>
<path d="M164.903 14.9768H164.773V15.1353L165.164 15.5265L166.472 16.3497L167.454 16.7886L168.827 17.1855L170.265 17.5571L171.835 17.7071H173.012H173.622L172.88 17.515L171.552 17.1308L170.722 16.8026L169.786 16.4731L169.415 16.1576L169.198 15.9234L168.739 15.8687L167.845 15.828L166.822 15.6906L165.884 15.4578L165.339 15.211L164.903 14.9768Z" fill="white"/>
<path d="M159.169 18.1741L158.276 19.0239L157.164 19.7657L155.814 20.4094L154.266 20.9451L152.434 21.4106L150.93 21.7542L150.451 21.8636L150.669 22.0557L151.672 22.4399L153.35 22.5914H155.094L156.793 22.4539L158.211 22.1665L159.432 21.8916V22.0417L159.191 22.4539L158.952 22.9209L158.93 23.0163L159.432 22.8382L160.456 22.4133L161.415 21.7822L161.938 21.2746L162.375 20.6562L162.505 20.2172V20.0125L162.2 20.1766L161.35 20.4921L160.326 20.8076L159.389 20.9997L158.734 21.1231L158.8 20.9997L159.323 20.767L160.216 20.3L160.979 19.6549L161.262 19.244L161.437 18.8738L161.372 18.763L161.132 18.8598L160.652 19.1066L159.889 19.4362L159.083 19.7657L158.451 20.0125L158.712 19.6283L159.083 19.0659L159.345 18.5443L159.41 18.1741H159.169Z" fill="white"/>
<path d="M164.773 16.7886L164.946 17.8585L165.645 18.8598L166.582 19.6423L167.955 20.4108L169.415 21.0572L169.808 21.2339H169.285L167.759 20.7543L166.365 20.178L165.253 19.5469L164.316 18.8612L163.727 18.4629V18.9019L164.054 19.6844L164.621 20.3294L166.059 21.2353L167.368 21.7149L169.81 22.2632L171.668 22.4834H173.472L174.933 22.3193L175.87 22.0445L176.241 21.8383L174.955 21.6869L173.995 21.5354L172.339 21.0572L170.923 20.5342L169.614 19.9312L168.547 19.3141C168.547 19.3141 167.479 18.6551 167.392 18.6284C167.304 18.6018 166.564 18.1755 166.564 18.1755L165.538 17.5851L165.145 17.1055L164.774 16.79L164.773 16.7886Z" fill="white"/>
<path d="M162.876 22.646L161.699 23.3037L160.5 23.8253L158.756 24.361L157.34 24.6219L155.792 24.8813L156.314 24.5391L156.478 24.347L156.075 24.4564L155.181 24.7859L153.502 25.1295L151.716 25.417L150.778 25.5123L151.389 25.7605L152.304 25.9527H153.677L154.986 25.8699L155.857 25.8012L156.141 25.7605L155.835 25.9527L155.094 26.3916L154.353 26.8165L153.328 27.2274L152.304 27.5709L151.213 27.9552L150.778 28.1192L150.559 28.2426H150.8H151.911L153.198 28.1613L154.505 27.9958L155.66 27.721L157.274 27.2694L158.559 26.8025L159.039 26.5837L159.018 27.0899L158.844 27.721L158.495 28.2426L158.429 28.3941H158.647L159.432 28.2426L160.39 27.8584L161.567 27.2147L162.265 26.5837L162.505 26.1167L162.265 26.2121L161.611 26.515L160.849 26.6931L160.5 26.7338L160.304 26.6931L160.544 26.4182L160.739 25.9246L160.827 25.403L160.871 25.0734L161.894 24.3877L162.614 23.6753L162.876 23.0162V22.646Z" fill="white"/>
<path d="M164.314 24.4298L164.14 25.0875V25.6498V26.3496L164.575 26.8712L165.403 27.5303L166.473 27.9693L167.518 28.2974H167.693L166.995 27.6537L166.319 26.954L165.381 26.0074L164.881 25.2656L164.314 24.4298Z" fill="white"/>
<path d="M167.279 23.2771L168.848 23.9769L170.724 24.5392L173.012 25.0608L175.344 25.5208L174.385 25.734L173.186 25.8433L171.987 25.7746L170.548 25.5208L168.978 24.9655C168.978 24.9655 167.975 24.2798 167.867 24.2391C167.759 24.1984 167.279 23.5253 167.279 23.5253V23.2785V23.2771Z" fill="white"/>
<path d="M171.857 26.8306L173.164 27.1587L174.45 27.5429L175.474 27.9005L176.39 28.2427L175.605 28.2974H174.341L173.425 28.0927L172.641 27.6944L172.074 27.1587L171.857 26.8306Z" fill="white"/>
</g>
<line x1="0.00156093" y1="35.5" x2="310.002" y2="35" stroke="#284E72" stroke-width="2"/>
<defs>
<clipPath id="clip0_205_91">
<rect width="55" height="57" fill="white" transform="translate(137.124)"/>
</clipPath>
</defs>
</svg>
