<svg width="286" height="53" viewBox="0 0 286 53" fill="none" xmlns="http://www.w3.org/2000/svg">
<path d="M123.575 29.5201C122.175 29.5201 120.832 29.3363 119.548 28.9689C118.265 28.5847 117.231 28.0919 116.447 27.4906L117.823 24.4338C118.573 24.9683 119.457 25.411 120.474 25.7617C121.508 26.0958 122.55 26.2628 123.6 26.2628C124.4 26.2628 125.042 26.1877 125.526 26.0373C126.026 25.8703 126.393 25.6448 126.626 25.3608C126.86 25.0769 126.976 24.7512 126.976 24.3837C126.976 23.916 126.793 23.5485 126.426 23.2812C126.059 22.9973 125.576 22.7718 124.976 22.6047C124.375 22.421 123.708 22.2539 122.975 22.1036C122.258 21.9366 121.533 21.7361 120.799 21.5023C120.082 21.2684 119.423 20.9677 118.823 20.6003C118.223 20.2328 117.731 19.7484 117.348 19.147C116.981 18.5457 116.797 17.7773 116.797 16.8419C116.797 15.8397 117.064 14.9293 117.598 14.1108C118.148 13.2756 118.965 12.6158 120.049 12.1314C121.149 11.6303 122.525 11.3798 124.175 11.3798C125.276 11.3798 126.36 11.5134 127.427 11.7807C128.494 12.0312 129.436 12.4154 130.253 12.9332L129.002 16.0151C128.185 15.5474 127.368 15.2049 126.551 14.9878C125.734 14.7539 124.934 14.637 124.15 14.637C123.367 14.637 122.725 14.7289 122.225 14.9126C121.724 15.0964 121.366 15.3386 121.149 15.6392C120.932 15.9232 120.824 16.2573 120.824 16.6415C120.824 17.0925 121.007 17.4599 121.374 17.7439C121.741 18.0112 122.225 18.2283 122.825 18.3954C123.425 18.5624 124.084 18.7294 124.801 18.8965C125.534 19.0635 126.259 19.2556 126.976 19.4728C127.71 19.6899 128.377 19.9822 128.977 20.3497C129.577 20.7172 130.061 21.2016 130.428 21.8029C130.811 22.4043 131.003 23.1643 131.003 24.083C131.003 25.0685 130.728 25.9705 130.178 26.789C129.627 27.6075 128.802 28.2673 127.702 28.7684C126.618 29.2695 125.242 29.5201 123.575 29.5201Z" fill="white"/>
<path d="M92.6228 29.2194V11.6804H95.9741L106.303 24.3085H104.678V11.6804H108.679V29.2194H105.353L94.9987 16.5913H96.6244V29.2194H92.6228Z" fill="white"/>
<path d="M66.1714 29.2194L73.9745 11.6804H77.9761L85.8042 29.2194H81.5525L75.1499 13.735H76.7506L70.323 29.2194H66.1714ZM70.0729 25.4611L71.1484 22.3792H80.1519L81.2524 25.4611H70.0729Z" fill="white"/>
<path d="M48.2786 29.2194V11.6804H52.3302V25.9121H61.1087V29.2194H48.2786Z" fill="white"/>
<path d="M21.8274 29.2194L29.6305 11.6804H33.6321L41.4602 29.2194H37.2085L30.806 13.735H32.4066L25.979 29.2194H21.8274ZM25.7289 25.4611L26.8044 22.3792H35.8079L36.9084 25.4611H25.7289Z" fill="white"/>
<path d="M0.00317383 29.2194V11.6804H8.55657C10.7574 11.6804 12.4081 12.098 13.5085 12.9332C14.6256 13.7684 15.1842 14.8708 15.1842 16.2406C15.1842 17.1593 14.9591 17.9611 14.5089 18.6459C14.0587 19.3141 13.4418 19.8319 12.6582 20.1994C11.8745 20.5668 10.9742 20.7506 9.95712 20.7506L10.4323 19.7233C11.5327 19.7233 12.5081 19.907 13.3585 20.2745C14.2088 20.6253 14.8674 21.1515 15.3343 21.853C15.8178 22.5546 16.0595 23.4148 16.0595 24.4338C16.0595 25.9371 15.4676 27.1147 14.2838 27.9666C13.1 28.8018 11.3577 29.2194 9.05676 29.2194H0.00317383ZM4.02977 26.1626H8.75665C9.80706 26.1626 10.599 25.9956 11.1326 25.6615C11.6828 25.3107 11.9579 24.7595 11.9579 24.0078C11.9579 23.2729 11.6828 22.73 11.1326 22.3792C10.599 22.0117 9.80706 21.828 8.75665 21.828H3.72965V18.8714H8.05637C9.04009 18.8714 9.79039 18.7044 10.3073 18.3703C10.8408 18.0195 11.1076 17.4933 11.1076 16.7918C11.1076 16.1069 10.8408 15.5975 10.3073 15.2634C9.79039 14.9126 9.04009 14.7372 8.05637 14.7372H4.02977V26.1626Z" fill="white"/>
<path d="M266.213 29.2194L274.031 11.6804H278.04L285.882 29.2194H281.623L275.208 13.735H276.812L270.373 29.2194H266.213ZM270.122 25.4611L271.199 22.3792H280.22L281.322 25.4611H270.122Z" fill="white"/>
<path d="M245.083 29.2194V11.6804H252.674C254.245 11.6804 255.598 11.9393 256.733 12.4571C257.869 12.9583 258.746 13.6849 259.364 14.637C259.982 15.5891 260.291 16.725 260.291 18.0446C260.291 19.3475 259.982 20.475 259.364 21.4271C258.746 22.3625 257.869 23.0808 256.733 23.5819C255.598 24.083 254.245 24.3336 252.674 24.3336H247.338L249.142 22.5546V29.2194H245.083ZM256.232 29.2194L251.848 22.8553H256.182L260.617 29.2194H256.232ZM249.142 23.0056L247.338 21.1014H252.449C253.702 21.1014 254.637 20.8341 255.255 20.2996C255.873 19.7484 256.182 18.9967 256.182 18.0446C256.182 17.0758 255.873 16.3241 255.255 15.7896C254.637 15.255 253.702 14.9878 252.449 14.9878H247.338L249.142 13.0585V23.0056Z" fill="white"/>
<path d="M231.85 29.2194V11.6804H235.909V29.2194H231.85Z" fill="white"/>
<path d="M207.68 29.2194V11.6804H216.249C218.454 11.6804 220.108 12.098 221.21 12.9332C222.329 13.7684 222.889 14.8708 222.889 16.2406C222.889 17.1593 222.663 17.9611 222.212 18.6459C221.761 19.3141 221.143 19.8319 220.358 20.1994C219.573 20.5668 218.671 20.7506 217.652 20.7506L218.128 19.7233C219.231 19.7233 220.208 19.907 221.06 20.2745C221.912 20.6253 222.572 21.1515 223.039 21.853C223.524 22.5546 223.766 23.4148 223.766 24.4338C223.766 25.9371 223.173 27.1147 221.987 27.9666C220.801 28.8018 219.055 29.2194 216.75 29.2194H207.68ZM211.714 26.1626H216.45C217.502 26.1626 218.295 25.9956 218.83 25.6615C219.381 25.3107 219.657 24.7595 219.657 24.0078C219.657 23.2729 219.381 22.73 218.83 22.3792C218.295 22.0117 217.502 21.828 216.45 21.828H211.413V18.8714H215.748C216.734 18.8714 217.485 18.7044 218.003 18.3703C218.538 18.0195 218.805 17.4933 218.805 16.7918C218.805 16.1069 218.538 15.5975 218.003 15.2634C217.485 14.9126 216.734 14.7372 215.748 14.7372H211.714V26.1626Z" fill="white"/>
<path d="M194.448 29.2194V11.6804H198.507V29.2194H194.448Z" fill="white"/>
<path d="M179.221 29.5201C177.818 29.5201 176.473 29.3363 175.187 28.9689C173.901 28.5847 172.865 28.0919 172.08 27.4906L173.458 24.4338C174.21 24.9683 175.095 25.411 176.114 25.7617C177.15 26.0958 178.194 26.2628 179.246 26.2628C180.048 26.2628 180.691 26.1877 181.176 26.0373C181.677 25.8703 182.044 25.6448 182.278 25.3608C182.512 25.0769 182.629 24.7512 182.629 24.3837C182.629 23.916 182.445 23.5485 182.078 23.2812C181.71 22.9973 181.226 22.7718 180.624 22.6047C180.023 22.421 179.355 22.2539 178.62 22.1036C177.902 21.9366 177.175 21.7361 176.44 21.5023C175.722 21.2684 175.062 20.9677 174.461 20.6003C173.859 20.2328 173.367 19.7484 172.982 19.147C172.615 18.5457 172.431 17.7773 172.431 16.8419C172.431 15.8397 172.698 14.9293 173.233 14.1108C173.784 13.2756 174.603 12.6158 175.688 12.1314C176.791 11.6303 178.169 11.3798 179.823 11.3798C180.925 11.3798 182.011 11.5134 183.08 11.7807C184.149 12.0312 185.093 12.4154 185.911 12.9332L184.658 16.0151C183.84 15.5474 183.021 15.2049 182.203 14.9878C181.384 14.7539 180.583 14.637 179.797 14.637C179.012 14.637 178.369 14.7289 177.868 14.9126C177.367 15.0964 177.008 15.3386 176.791 15.6392C176.574 15.9232 176.465 16.2573 176.465 16.6415C176.465 17.0925 176.649 17.4599 177.016 17.7439C177.384 18.0112 177.868 18.2283 178.47 18.3954C179.071 18.5624 179.731 18.7294 180.449 18.8965C181.184 19.0635 181.911 19.2556 182.629 19.4728C183.364 19.6899 184.032 19.9822 184.633 20.3497C185.235 20.7172 185.719 21.2016 186.086 21.8029C186.471 22.4043 186.663 23.1643 186.663 24.083C186.663 25.0685 186.387 25.9705 185.836 26.789C185.285 27.6075 184.458 28.2673 183.355 28.7684C182.27 29.2695 180.892 29.5201 179.221 29.5201Z" fill="white"/>
<g clip-path="url(#clip0_194_3)">
<path d="M176.634 40.2121C173.77 40.4351 173.318 39.9552 173.251 39.8313C173.24 39.8105 173.226 39.7896 173.209 39.7713C171.228 37.685 169.048 37.6093 169.048 37.6093C164.558 37.4242 163.182 37.9314 162.963 38.0279C162.937 38.0397 162.908 38.0475 162.879 38.054C160.834 38.4491 159.841 38.2483 159.841 38.2483C155.646 37.5807 154.763 36.4136 154.172 36.0706C153.292 35.5595 153.296 34.6858 153.296 34.6858L152.515 26.978L153.162 27.2714L154.273 27.6795L154.941 27.8451L155.971 28.0238L157.205 28.1125L158.523 28.0746L159.105 27.986L159.206 27.9221L158.742 27.5778L158.378 27.2466L158.276 27.0171L158.661 27.081L159.611 27.2336L160.824 27.4253L162.038 27.4761L163.251 27.45L164.686 27.2075L166.182 26.7733L166.85 26.4929V26.4043L166.567 26.3664L166.021 26.2778L163.617 25.7418L162.061 25.2437L161.617 25.1029L161.597 25.0142L162.142 24.9255L163.152 24.5943L163.94 24.2201L164.614 23.838L164.964 23.5824L165.018 23.4638L164.977 23.4038L164.721 23.3777L164.101 23.3608L163.252 23.3099L162.672 23.233L161.77 23.0635L160.706 22.8001L159.453 22.375L158.698 22.0777L158.739 22.0268L159.319 22.0359L160.221 22.0098L160.854 21.959L161.555 21.8821L162.053 21.7712L162.593 21.6434L163.212 21.4387L163.886 21.1323L164.613 20.6641L165.071 20.2821L165.368 19.9848L165.408 19.8492L165.219 19.8231L164.627 19.7892L163.711 19.7461L163.023 19.7096L162.039 19.5844L161.042 19.3797L159.91 19.0733L158.629 18.6143L157.605 18.0614L156.986 17.6533L156.77 17.4668L156.892 17.4238L157.202 17.5085L157.727 17.5854L158.603 17.6285H159.708L160.773 17.5007L161.864 17.2282L162.269 17.0756L162.78 16.7783L163.185 16.4719L163.279 16.3362L163.185 16.2254L162.862 16.1654L162.389 16.1224L160.504 15.7312L159.211 15.323L158.173 14.8888L157.776 14.6554L157.796 14.5667L158.625 14.5289L159.089 14.4142L159.736 14.2864L160.141 14.1456L160.222 14.0686L159.96 13.9917L159.192 13.8639L158.08 13.5835L156.888 13.1245L155.857 12.6525L155.312 12.2704L155.898 12.2835L156.828 12.1948L157.779 12.0292L158.426 11.7997L159.133 11.5324L159.658 11.1881L159.88 10.9208L159.839 10.7422L159.536 10.6405L158.363 10.4357L156.686 9.9637L155.635 9.55555L154.705 9.10959L154.32 8.80316L154.341 8.72622L155.008 8.80316L155.676 8.79012L156.586 8.67537L157.292 8.45891L157.899 8.24245L158.304 7.97513L158.243 7.91123L157.819 7.80952L156.06 7.28663L155.171 6.98019L154.201 6.52119L153.898 6.32951L153.919 6.25258L154.201 6.2265L155.03 6.21346L155.657 6.09871L156.042 5.95788L156.103 5.86921L155.962 5.72838L154.506 4.82211L153.496 3.94193L152.627 2.99785L151.859 1.9012L150.682 0L149.677 1.58173L148.384 3.41903L147.091 4.59261L145.798 5.56147L145.313 5.8679L145.38 5.97874L145.717 6.10653L146.161 6.18346L146.767 6.23432H147.199L147.28 6.28517L147.227 6.36211L146.877 6.57466L145.975 7.03366L144.694 7.48483L143.548 7.79909L143.09 7.90993L143.009 7.99469L143.17 8.0964L143.817 8.41066L144.464 8.63234L145.258 8.751L146.215 8.80185H146.997L146.847 8.98832L146.081 9.36256L145.38 9.68595L144.356 10.0432L143.21 10.3575L142.213 10.544L141.512 10.6887L141.283 10.7565V10.8843L141.444 11.0369L141.995 11.445L142.696 11.7515L143.343 11.9901L144.151 12.1426L145.094 12.2444H146.2L145.688 12.5677L145.015 12.9928L144.314 13.2993L143.237 13.6566L142.186 13.9291L141.62 14.0647L141.512 14.2173L141.728 14.319L142.025 14.4546L142.591 14.5563H143.292L143.023 14.8119L142.375 15.1861L141.054 15.6112L139.653 15.9855L138.656 16.1719L138.279 16.2567V16.4784L138.684 16.8526L139.358 17.2099L140.113 17.3781L140.813 17.5163L141.999 17.6011L143.238 17.5333L144.483 17.3781L144.855 17.2438V17.4655L144.483 17.7719L143.697 18.2648L142.161 18.9025L140.382 19.3875L138.281 19.7083L136.057 19.8478L136.098 20.0526L136.381 20.346L137.049 20.8311L137.848 21.2522L138.647 21.5391L139.708 21.839L141.032 22.0307L141.963 22.075H142.579L142.497 22.1455L142.194 22.2602L141.167 22.6553L140.09 22.9787L139.025 23.1743L137.948 23.3099L137.031 23.3699H136.358L136.344 23.4886L136.545 23.752L136.989 24.0154L137.783 24.4066L138.484 24.6869L139.211 24.9164L139.71 25.0181L139.777 25.069L139.602 25.1707L138.686 25.451L137.608 25.7823L136.409 26.0717L135.44 26.2582L134.78 26.3769L134.538 26.4108L134.619 26.5294L135.212 26.8267L136.425 27.1749L137.705 27.3966L138.379 27.4566H139.753L140.588 27.4057L141.761 27.2531L142.615 27.0667L143.041 27.0158L143.135 27.0497L143.121 27.1853L142.905 27.4579L142.407 27.806L142.246 27.9169L142.327 27.9677L142.758 28.0525L143.149 28.0955H144.187L145.34 27.9847L146.775 27.7799L147.826 27.4487L148.432 27.1932L148.776 27.0145L148.756 27.7161L148.615 29.5912L148.434 31.3007L148.037 34.6845C148.037 34.6845 147.976 35.8529 147.902 36.0315C147.291 37.5063 144.619 37.9171 144.619 37.9171C142.644 38.1609 141.883 37.9405 141.747 37.8923C141.728 37.8858 141.709 37.8806 141.691 37.8767C136.741 36.9326 135.035 37.4072 135.035 37.4072C131.404 37.9171 130.507 39.2445 130.507 39.2445C130.304 39.7544 128.876 39.9252 128.876 39.9252L126.426 40.1886C126.375 40.1938 126.325 40.2095 126.281 40.2329C125.62 40.6124 126.347 40.7402 126.347 40.7402C129.08 41.0127 129.61 40.6046 129.61 40.6046C130.101 40.3529 132.652 39.0528 133.029 38.8599C133.06 38.8442 133.095 38.8325 133.131 38.8246C134.098 38.6447 133.736 39.1259 133.631 39.2497C133.614 39.2693 133.6 39.2915 133.59 39.3136C132.721 41.254 129.929 42.1107 129.635 42.1954C129.617 42.2006 129.599 42.2072 129.583 42.215C128.568 42.6792 129.61 42.7131 129.61 42.7131C132.705 42.9074 134.517 39.5471 134.694 39.2041C134.703 39.1858 134.71 39.1663 134.714 39.1454C134.861 38.4752 136.157 38.4895 136.323 38.4947C136.334 38.4947 136.347 38.4947 136.358 38.4973C139.85 38.9042 140.46 39.1415 140.46 39.1415C141.684 39.414 140.46 39.5497 140.46 39.5497L139.086 39.7179C139.078 39.7179 139.07 39.7205 139.062 39.7218C134.589 40.5068 135.141 42.8487 135.141 42.8487C135.205 43.5633 135.688 42.8487 135.688 42.8487C136.872 41.0114 139.155 40.9097 139.155 40.9097C141.071 40.7402 139.481 41.4874 139.481 41.4874C138.298 42.1002 138.706 44.6169 138.706 44.6169C138.828 45.2976 138.339 45.5688 138.339 45.5688C136.425 46.8637 135.726 47.3579 135.591 47.4557C135.574 47.4687 135.559 47.4818 135.545 47.4974C134.583 48.521 135.618 48.3685 135.82 48.3306C135.84 48.3267 135.86 48.3215 135.881 48.3137C139.971 46.8532 139.768 45.2963 139.768 45.2963C140.013 42.7105 140.543 42.0989 140.543 42.0989C142.15 39.8848 144.203 39.7009 144.535 39.6853C144.566 39.684 144.599 39.6788 144.628 39.6696C145.609 39.3788 144.939 39.9617 144.872 40.0191C144.868 40.023 144.864 40.0256 144.86 40.0295L143.235 41.5878C142.047 42.5788 142.354 43.6233 142.441 43.8541C142.452 43.8828 142.469 43.9102 142.49 43.9349C143.113 44.6599 143.154 43.9349 143.154 43.9349C143.038 42.7209 143.933 41.9868 144.04 41.902C144.048 41.8955 144.056 41.8903 144.062 41.8825L147.599 38.5599C148.129 38.0162 148.334 38.5599 148.334 38.5599C148.77 41.1118 148.331 41.6556 148.231 41.743C148.212 41.7586 148.198 41.7782 148.185 41.7964C147.357 43.0326 146 43.6924 145.857 43.7589C145.848 43.7628 145.84 43.7667 145.832 43.7719L141.93 46.0096C139.855 47.1427 140.118 49.0309 140.169 49.3086C140.174 49.3308 140.18 49.353 140.191 49.3751C140.426 49.8394 140.682 49.5107 140.762 49.3856C140.778 49.3608 140.79 49.3334 140.796 49.306C141.411 46.655 142.622 46.5207 142.622 46.5207C143.16 46.3799 143.071 46.5885 143.071 46.5885C142.622 47.7113 143.071 48.1533 143.071 48.1533C143.596 48.7831 143.831 48.3998 143.903 48.225C143.92 48.182 143.925 48.135 143.915 48.0894C143.651 46.7254 143.798 46.1908 143.883 46.0161C143.903 45.9744 143.934 45.9378 143.976 45.9079L145.968 44.48C146.733 43.9362 146.458 44.7525 146.458 44.7525C145.56 46.9641 145.928 47.3722 145.928 47.3722C146.176 47.7569 146.608 47.4739 146.717 47.3918C146.734 47.38 146.748 47.3657 146.762 47.3514C147.627 46.4229 147.388 45.7579 147.327 45.6262C147.321 45.6119 147.313 45.5988 147.303 45.5871C146.795 44.8973 147.601 44.4044 147.712 44.3418C147.719 44.3366 147.727 44.334 147.737 44.33C149.234 43.6702 149.438 42.0311 149.438 42.0311C149.56 41.6908 150.008 41.9294 150.008 41.9294C152.171 42.7457 151.639 44.3353 151.639 44.3353C151.215 46.8324 149.191 47.5039 148.967 47.5704C148.951 47.5756 148.936 47.5809 148.922 47.5874C144.503 49.5551 145.316 51.1824 145.316 51.1824C145.515 51.6506 145.765 51.4054 145.854 51.2946C145.876 51.2685 145.89 51.2385 145.898 51.2072C146.383 49.4612 149.313 48.2563 149.313 48.2563C150.21 47.8143 150.129 48.4949 150.129 48.4949C150.088 49.3451 150.618 49.9919 150.618 49.9919C150.901 50.284 151.148 52.8489 151.148 52.8489C151.251 53.0641 151.453 53.0067 151.586 52.9363C151.669 52.892 151.725 52.8189 151.737 52.7381C152.08 50.7313 151.63 49.8224 151.562 49.6998C151.558 49.6894 151.551 49.679 151.548 49.6685C150.948 48.1507 151.514 47.7126 151.514 47.7126C153.19 46.3616 153.407 44.8934 153.384 44.1266C153.378 43.8984 153.676 43.7563 153.908 43.8802C155.136 44.5361 154.971 44.8803 154.971 44.8803C155.338 46.921 154.558 47.38 154.558 47.38C153.762 48.0816 154.175 48.5914 154.175 48.5914C154.458 49.0857 154.883 48.7192 154.98 48.6253C154.993 48.6136 155.004 48.6006 155.015 48.5862C156.681 46.2938 156.179 46.0917 156.179 46.0917C155.631 45.6953 156.134 45.8296 156.309 45.8831C156.345 45.8935 156.378 45.9092 156.406 45.9287C157.047 46.3669 157.28 47.38 157.28 47.38C157.554 47.9212 157.147 50.417 157.1 50.6961C157.097 50.713 157.095 50.7313 157.097 50.7495C157.116 51.1107 157.217 51.219 157.217 51.219C157.611 51.7705 157.816 51.4054 157.873 51.2659C157.883 51.2385 157.89 51.2098 157.891 51.1798C157.968 48.8744 158.257 48.8457 158.257 48.8457C158.615 48.6736 158.731 48.6932 158.731 48.6932C159.908 48.6932 160.867 50.1562 161.053 50.4613C161.076 50.4992 161.109 50.5318 161.148 50.5578C162.228 51.2489 161.728 50.3388 161.728 50.3388C160.641 47.7752 159.173 48.2211 159.173 48.2211C158.592 48.3476 158.499 47.8156 158.487 47.7152C158.487 47.7047 158.487 47.6943 158.487 47.6839C158.542 46.4933 157.833 45.7396 157.833 45.7396C155.287 43.0443 154.139 42.5658 153.995 42.5136C153.983 42.5084 153.97 42.5032 153.958 42.4966C151.834 41.43 151.287 40.6033 151.287 40.6033C150.126 38.8859 151.389 37.8988 151.389 37.8988C151.897 37.4907 152.485 37.8623 152.608 37.9497C152.626 37.9627 152.644 37.9731 152.666 37.9823C155.329 39.1546 156.242 41.2696 156.318 41.4587C156.323 41.4678 156.326 41.4769 156.331 41.4861C157.088 42.897 158.668 44.5204 158.904 44.759C158.923 44.7786 158.947 44.7956 158.972 44.8099C159.858 45.3185 159.732 46.3277 159.669 46.6355C159.655 46.7072 159.675 46.7815 159.724 46.8415C159.905 47.0606 160.068 46.9106 160.147 46.8063C160.182 46.7607 160.197 46.7085 160.197 46.655L160.183 45.8088C160.179 45.5688 160.516 45.4306 160.737 45.5858C161.311 45.9874 161.523 47.221 161.523 47.221C161.794 47.6187 161.977 47.3761 162.044 47.2496C162.063 47.2131 162.074 47.174 162.075 47.1349C162.105 45.1894 160.382 44.7382 160.382 44.7382C159.713 44.5569 159.366 44.1501 159.294 44.0588C159.286 44.0484 159.278 44.0379 159.272 44.0262L158.714 43.0574C158.604 42.8683 158.773 42.6453 159.025 42.6518C160.171 42.6818 161.153 43.0208 161.375 43.103C161.408 43.1147 161.444 43.1226 161.479 43.1252C162.491 43.2047 161.606 42.7118 161.606 42.7118C161.337 42.1289 158.897 41.8955 158.307 41.8473C158.224 41.8407 158.146 41.8108 158.091 41.7586C157.466 41.1757 157.192 40.2877 157.083 39.7987C157.042 39.6162 157.221 39.4479 157.443 39.4649C160.756 39.7192 163.201 42.3258 163.317 42.451C163.32 42.4549 163.323 42.4575 163.327 42.4614L164.669 43.7667C164.741 43.8358 164.769 43.9297 164.741 44.0184C164.277 45.4384 165.724 47.4126 166.023 47.7986C166.057 47.843 166.104 47.8782 166.161 47.899C167.152 48.2811 166.687 47.5078 166.687 47.5078C165.759 45.9209 165.799 44.643 165.873 44.1175C165.893 43.9688 166.053 43.8606 166.231 43.8697C168.675 43.9871 169.47 44.9964 169.664 45.3185C169.703 45.3837 169.771 45.4358 169.853 45.4619C170.762 45.737 170.176 45.085 170.176 45.085C168.645 42.9817 166.59 43.0456 166.297 43.0665C166.27 43.0678 166.245 43.0678 166.218 43.0652C165.416 42.9726 165.168 42.6896 165.111 42.6075C165.099 42.5905 165.086 42.5736 165.069 42.5592L164.37 41.9046C164.37 41.9046 164.359 41.8942 164.353 41.8903L162.064 40.0321C162.045 40.0178 162.025 40.0034 162.003 39.993C161.389 39.6814 162.099 39.7544 162.099 39.7544C164.164 39.7779 166.85 40.5211 167.175 40.6124C167.199 40.6189 167.221 40.6228 167.246 40.6241C168.034 40.6919 168.004 41.3361 168.004 41.3361C168.105 41.7403 168.421 42.198 168.523 42.3389C168.543 42.3676 168.57 42.3923 168.601 42.4132C169.214 42.82 169.259 42.378 169.259 42.2411C169.259 42.2189 169.256 42.1967 169.25 42.1759L169.15 41.8212C169.14 41.7873 169.123 41.7547 169.1 41.726L168.756 41.3074C168.743 41.2931 168.729 41.2787 168.714 41.2657C168.229 40.8706 168.554 40.6724 168.554 40.6724C168.859 40.3021 169.314 40.7702 169.397 40.8615C169.406 40.8732 169.417 40.8823 169.43 40.8928L170.379 41.6595C170.379 41.6595 170.391 41.6712 170.398 41.6764C171.22 42.4849 172.041 42.5853 172.041 42.5853L172.776 42.687C173.479 42.5853 172.807 42.2528 172.807 42.2528C171.092 41.6986 170.727 41.1249 170.674 41.0192C170.666 41.0049 170.659 40.9919 170.649 40.9788C170.09 40.2408 169.05 39.9787 168.961 39.9578C168.956 39.9578 168.95 39.9552 168.945 39.9539L167.547 39.5484L165.544 39.0385C164.553 38.7673 165.322 38.5547 165.507 38.5117C165.532 38.5065 165.555 38.5026 165.58 38.5013L167.883 38.4009C168.851 38.3031 169.903 38.955 169.988 39.0098C169.993 39.0124 169.997 39.015 170.002 39.0176L171.983 40.1351C172.993 40.7728 174.339 40.8497 174.339 40.8497C175.818 40.9162 176.476 40.7532 176.628 40.7076C176.65 40.7011 176.672 40.6919 176.692 40.6815C177.408 40.3112 176.664 40.2121 176.664 40.2121H176.634Z" fill="white"/>
<path d="M137.077 43.6224C137.077 43.6224 139.126 43.5496 137.128 43.0024C137.128 43.0024 132.096 42.874 132.015 44.4846C132.015 44.4846 131.853 45.6443 132.746 44.4846C132.746 44.4846 133.304 43.5422 137.079 43.6224H137.077Z" fill="white"/>
<path d="M150.441 1.62878L149.822 2.67846L148.818 3.9802L147.954 4.72738L147.512 5.10614L147.371 5.23283H147.551H148.094L148.597 5.10614L149.199 4.84114L149.018 5.40993L148.617 5.9283L148.154 6.38333L147.371 6.93919L146.527 7.3451L145.804 7.64759L145.442 7.7872L145.984 7.85054H146.587L147.452 7.74971L148.355 7.55969L149.018 7.29339L149.259 7.15507L149.381 7.168L149.28 7.45886L148.737 8.09098L148.035 8.71019L147.19 9.34232L146.245 9.84776L145.241 10.2653L144.256 10.582L143.693 10.7087L143.794 10.8225L144.517 10.9104H145.563L146.727 10.8225L147.591 10.6324L148.275 10.4178V10.5316L148.134 10.7203L148.014 10.8354L148.275 10.8095L148.778 10.6454L149.5 10.2653L150.043 9.77279L150.441 9.43151L151.028 9.79735L152.213 10.392L153.219 10.7203L154.162 10.9104H155.247L156.051 10.7966L156.514 10.6583L156.292 10.5691L155.529 10.3416L154.685 10.0132L153.881 9.49486L152.836 8.78646L152.294 8.41933L151.832 8.09098L151.67 8.12847L151.711 8.25516L151.952 8.88729L152.435 9.39273L152.816 9.79735L152.897 9.93696L152.535 9.78571L151.731 9.40566L151.028 8.87436L150.585 8.35599L150.304 8.74768L149.662 9.15229L148.998 9.48193L148.134 9.78571L148.818 9.22856L149.5 8.4956L150.023 7.98886L150.284 7.33217L150.545 6.57336L150.585 5.99164L150.927 6.26957L151.369 6.52294L152.012 6.75046L152.454 6.87714L152.575 6.82543L152.454 6.62377L151.873 5.95286L151.249 5.18241L150.847 4.56192L150.707 3.95564L151.049 4.10689L151.611 4.38482L152.093 4.53736L152.253 4.55028L152.294 4.4236L152.012 4.14567L151.128 3.03265L150.585 2.08381L150.441 1.62878Z" fill="#259462"/>
<path d="M148.055 11.5812L147.19 12.5171L145.784 13.7943L144.397 14.7806L142.97 15.5006L141.745 15.944L140.96 16.1586L140.84 16.2465L141.765 16.3228L143.211 16.2465L144.597 16.019L145.763 15.6907L146.828 15.3119L147.452 15.0585L147.411 15.2731L147.29 15.4761L147.089 15.6648L147.472 15.6273L148.255 15.3365L148.879 15.0585L149.622 14.451L150.103 13.7943V13.3509V13.073L149.219 13.5784L148.355 13.952L147.472 14.2868L146.768 14.5143L147.13 14.1485L147.431 13.7439L147.812 13.06L148.073 12.3516L148.174 11.8462L148.055 11.5812Z" fill="#259462"/>
<path d="M150.927 11.024L151.188 11.8087L151.67 12.4538L152.555 13.073L153.579 13.5034L155.026 13.7051H156.132H156.292L155.328 13.3509L154.304 12.8455L153.198 12.4538L152.273 11.96L151.69 11.5812L150.927 11.024Z" fill="#259462"/>
<path d="M152.012 13.8059H151.893V13.952L152.253 14.3126L153.459 15.0715L154.364 15.4761L155.63 15.8419L156.955 16.1845L158.403 16.3228H159.488H160.05L159.366 16.1457L158.142 15.7915L157.377 15.489L156.514 15.1852L156.172 14.8944L155.972 14.6785L155.549 14.6281L154.725 14.5906L153.781 14.4639L152.917 14.2493L152.415 14.0218L152.012 13.8059Z" fill="#259462"/>
<path d="M146.727 16.7533L145.903 17.5367L144.879 18.2205L143.634 18.8139L142.207 19.3077L140.518 19.7368L139.132 20.0536L138.69 20.1544L138.891 20.3315L139.816 20.6857L141.363 20.8253H142.97L144.537 20.6986L145.844 20.4336L146.97 20.1802V20.3186L146.747 20.6986L146.527 21.1291L146.506 21.217L146.97 21.0528L147.913 20.6611L148.798 20.0794L149.279 19.6115L149.682 19.0414L149.802 18.6368V18.448L149.52 18.5993L148.737 18.8901L147.793 19.181L146.929 19.3581L146.326 19.4718L146.387 19.3581L146.869 19.1435L147.692 18.713L148.395 18.1184L148.656 17.7396L148.818 17.3984L148.757 17.2962L148.536 17.3854L148.093 17.6129L147.391 17.9167L146.648 18.2205L146.065 18.448L146.306 18.0938L146.648 17.5755L146.889 17.0946L146.949 16.7533H146.727Z" fill="#259462"/>
<path d="M151.893 15.4761L152.053 16.4624L152.696 17.3854L153.561 18.1067L154.826 18.8151L156.172 19.411L156.534 19.5739H156.052L154.646 19.1318L153.36 18.6005L152.336 18.0188L151.471 17.3867L150.929 17.0196V17.4242L151.231 18.1455L151.753 18.7401L153.079 19.5752L154.285 20.0173L156.536 20.5228L158.249 20.7257H159.912L161.258 20.5745L162.123 20.3211L162.465 20.1311L161.279 19.9915L160.394 19.8519L158.868 19.411L157.562 18.9289L156.356 18.373L155.372 17.8042C155.372 17.8042 154.388 17.1967 154.307 17.1721C154.226 17.1475 153.544 16.7546 153.544 16.7546L152.598 16.2103L152.236 15.7682L151.894 15.4774L151.893 15.4761Z" fill="#259462"/>
<path d="M150.144 20.8757L149.059 21.482L147.954 21.9629L146.346 22.4567L145.041 22.6971L143.614 22.9363L144.095 22.6209L144.246 22.4438L143.875 22.5446L143.051 22.8484L141.503 23.1651L139.856 23.4301L138.992 23.518L139.555 23.7468L140.399 23.9239H141.664L142.871 23.8476L143.674 23.7843L143.935 23.7468L143.654 23.9239L142.97 24.3285L142.288 24.7202L141.342 25.099L140.399 25.4157L139.393 25.7699L138.992 25.9211L138.79 26.0349H139.012H140.037L141.223 25.9599L142.428 25.8074L143.492 25.554L144.98 25.1378L146.164 24.7073L146.607 24.5056L146.587 24.9723L146.427 25.554L146.105 26.0349L146.045 26.1745H146.245L146.97 26.0349L147.853 25.6807L148.938 25.0873L149.581 24.5056L149.802 24.0752L149.581 24.1631L148.978 24.4423L148.275 24.6065L147.954 24.6439L147.773 24.6065L147.994 24.3531L148.174 23.8981L148.255 23.4172L148.296 23.1134L149.239 22.4813L149.903 21.8246L150.144 21.217V20.8757Z" fill="#259462"/>
<path d="M151.47 22.52L151.31 23.1263V23.6447V24.2897L151.711 24.7706L152.474 25.3782L153.459 25.7828L154.423 26.0853H154.585L153.941 25.4919L153.318 24.8469L152.454 23.9743L151.992 23.2905L151.47 22.52Z" fill="#259462"/>
<path d="M154.203 21.4574L155.65 22.1025L157.378 22.6208L159.488 23.1017L161.638 23.5257L160.753 23.7222L159.648 23.823L158.543 23.7597L157.217 23.5257L155.77 23.0138C155.77 23.0138 154.845 22.3817 154.745 22.3442C154.646 22.3067 154.203 21.6862 154.203 21.6862V21.4587V21.4574Z" fill="#259462"/>
<path d="M158.423 24.7332L159.628 25.0356L160.814 25.3898L161.757 25.7195L162.601 26.0349L161.878 26.0853H160.713L159.869 25.8966L159.146 25.5295L158.623 25.0356L158.423 24.7332Z" fill="#259462"/>
</g>
<line x1="0.00156093" y1="32.6469" x2="286.001" y2="32.1856" stroke="white" stroke-width="2"/>
<defs>
<clipPath id="clip0_194_3">
<rect width="50.7007" height="52.5443" fill="white" transform="translate(126.406)"/>
</clipPath>
</defs>
</svg>
