<svg width="286" height="53" viewBox="0 0 286 53" fill="none" xmlns="http://www.w3.org/2000/svg">
<g clip-path="url(#clip0_286_744)">
<path d="M174.631 40.2121C171.767 40.4351 171.315 39.9552 171.248 39.8313C171.237 39.8105 171.223 39.7896 171.205 39.7713C169.225 37.685 167.045 37.6093 167.045 37.6093C162.555 37.4242 161.179 37.9314 160.96 38.0279C160.933 38.0397 160.905 38.0475 160.876 38.054C158.831 38.4491 157.838 38.2483 157.838 38.2483C153.643 37.5807 152.76 36.4136 152.169 36.0706C151.288 35.5595 151.293 34.6858 151.293 34.6858L150.511 26.978L151.159 27.2714L152.27 27.6795L152.938 27.8451L153.968 28.0238L155.202 28.1125L156.52 28.0746L157.101 27.986L157.203 27.9221L156.739 27.5778L156.374 27.2466L156.273 27.0171L156.657 27.081L157.608 27.2336L158.821 27.4253L160.034 27.4761L161.248 27.45L162.683 27.2075L164.179 26.7733L164.847 26.4929V26.4043L164.564 26.3664L164.018 26.2778L161.614 25.7418L160.058 25.2437L159.614 25.1029L159.594 25.0142L160.139 24.9255L161.149 24.5943L161.937 24.2201L162.611 23.838L162.961 23.5824L163.014 23.4638L162.974 23.4038L162.717 23.3777L162.098 23.3608L161.249 23.3099L160.669 23.233L159.767 23.0635L158.702 22.8001L157.45 22.375L156.695 22.0777L156.736 22.0268L157.316 22.0359L158.218 22.0098L158.851 21.959L159.551 21.8821L160.05 21.7712L160.589 21.6434L161.209 21.4387L161.882 21.1323L162.609 20.6641L163.068 20.2821L163.365 19.9848L163.405 19.8492L163.216 19.8231L162.624 19.7892L161.707 19.7461L161.019 19.7096L160.036 19.5844L159.039 19.3797L157.907 19.0733L156.626 18.6143L155.602 18.0614L154.983 17.6533L154.767 17.4668L154.889 17.4238L155.199 17.5085L155.724 17.5854L156.6 17.6285H157.705L158.77 17.5007L159.861 17.2282L160.266 17.0756L160.777 16.7783L161.182 16.4719L161.276 16.3362L161.182 16.2254L160.858 16.1654L160.386 16.1224L158.501 15.7312L157.208 15.323L156.17 14.8888L155.772 14.6554L155.793 14.5667L156.621 14.5289L157.086 14.4142L157.733 14.2864L158.138 14.1456L158.219 14.0686L157.957 13.9917L157.189 13.8639L156.077 13.5835L154.884 13.1245L153.854 12.6525L153.308 12.2704L153.895 12.2835L154.825 12.1948L155.776 12.0292L156.423 11.7997L157.13 11.5324L157.655 11.1881L157.877 10.9208L157.836 10.7422L157.533 10.6405L156.36 10.4357L154.683 9.9637L153.632 9.55555L152.702 9.10959L152.317 8.80316L152.337 8.72622L153.005 8.80316L153.673 8.79012L154.583 8.67537L155.289 8.45891L155.896 8.24245L156.301 7.97513L156.24 7.91123L155.816 7.80952L154.057 7.28663L153.168 6.98019L152.198 6.52119L151.895 6.32951L151.915 6.25258L152.198 6.2265L153.027 6.21346L153.654 6.09871L154.039 5.95788L154.1 5.86921L153.959 5.72838L152.503 4.82211L151.493 3.94193L150.624 2.99785L149.856 1.9012L148.679 0L147.674 1.58173L146.381 3.41903L145.088 4.59261L143.795 5.56147L143.31 5.8679L143.377 5.97874L143.713 6.10653L144.157 6.18346L144.764 6.23432H145.196L145.277 6.28517L145.224 6.36211L144.873 6.57466L143.971 7.03366L142.691 7.48483L141.545 7.79909L141.087 7.90993L141.005 7.99469L141.166 8.0964L141.814 8.41066L142.461 8.63234L143.255 8.751L144.212 8.80185H144.994L144.844 8.98832L144.078 9.36256L143.377 9.68595L142.353 10.0432L141.207 10.3575L140.21 10.544L139.509 10.6887L139.279 10.7565V10.8843L139.44 11.0369L139.992 11.445L140.693 11.7515L141.34 11.9901L142.148 12.1426L143.091 12.2444H144.196L143.685 12.5677L143.011 12.9928L142.311 13.2993L141.234 13.6566L140.183 13.9291L139.617 14.0647L139.509 14.2173L139.725 14.319L140.022 14.4546L140.588 14.5563H141.288L141.019 14.8119L140.372 15.1861L139.051 15.6112L137.65 15.9855L136.653 16.1719L136.276 16.2567V16.4784L136.681 16.8526L137.355 17.2099L138.11 17.3781L138.81 17.5163L139.995 17.6011L141.235 17.5333L142.48 17.3781L142.852 17.2438V17.4655L142.48 17.7719L141.693 18.2648L140.158 18.9025L138.379 19.3875L136.277 19.7083L134.054 19.8478L134.095 20.0526L134.378 20.346L135.045 20.8311L135.844 21.2522L136.643 21.5391L137.705 21.839L139.029 22.0307L139.959 22.075H140.575L140.494 22.1455L140.191 22.2602L139.164 22.6553L138.086 22.9787L137.022 23.1743L135.944 23.3099L135.028 23.3699H134.354L134.34 23.4886L134.542 23.752L134.986 24.0154L135.78 24.4066L136.481 24.6869L137.208 24.9164L137.706 25.0181L137.774 25.069L137.599 25.1707L136.682 25.451L135.605 25.7823L134.406 26.0717L133.437 26.2582L132.777 26.3769L132.535 26.4108L132.616 26.5294L133.208 26.8267L134.422 27.1749L135.702 27.3966L136.376 27.4566H137.75L138.585 27.4057L139.758 27.2531L140.611 27.0667L141.038 27.0158L141.132 27.0497L141.118 27.1853L140.902 27.4579L140.403 27.806L140.242 27.9169L140.324 27.9677L140.755 28.0525L141.146 28.0955H142.184L143.337 27.9847L144.772 27.7799L145.822 27.4487L146.429 27.1932L146.773 27.0145L146.753 27.7161L146.612 29.5912L146.431 31.3007L146.034 34.6845C146.034 34.6845 145.973 35.8529 145.899 36.0315C145.288 37.5063 142.616 37.9171 142.616 37.9171C140.641 38.1609 139.88 37.9405 139.744 37.8923C139.725 37.8858 139.706 37.8806 139.687 37.8767C134.737 36.9326 133.032 37.4072 133.032 37.4072C129.401 37.9171 128.504 39.2445 128.504 39.2445C128.301 39.7544 126.873 39.9252 126.873 39.9252L124.423 40.1886C124.372 40.1938 124.322 40.2095 124.278 40.2329C123.616 40.6124 124.343 40.7402 124.343 40.7402C127.076 41.0127 127.606 40.6046 127.606 40.6046C128.097 40.3529 130.649 39.0528 131.026 38.8599C131.057 38.8442 131.091 38.8325 131.127 38.8246C132.095 38.6447 131.732 39.1259 131.628 39.2497C131.611 39.2693 131.596 39.2915 131.587 39.3136C130.718 41.254 127.925 42.1107 127.631 42.1954C127.614 42.2006 127.596 42.2072 127.58 42.215C126.565 42.6792 127.606 42.7131 127.606 42.7131C130.702 42.9074 132.514 39.5471 132.691 39.2041C132.7 39.1858 132.707 39.1663 132.711 39.1454C132.858 38.4752 134.154 38.4895 134.32 38.4947C134.331 38.4947 134.343 38.4947 134.354 38.4973C137.847 38.9042 138.457 39.1415 138.457 39.1415C139.681 39.414 138.457 39.5497 138.457 39.5497L137.083 39.7179C137.075 39.7179 137.067 39.7205 137.059 39.7218C132.586 40.5068 133.138 42.8487 133.138 42.8487C133.202 43.5633 133.685 42.8487 133.685 42.8487C134.869 41.0114 137.151 40.9097 137.151 40.9097C139.068 40.7402 137.478 41.4874 137.478 41.4874C136.295 42.1002 136.703 44.6169 136.703 44.6169C136.825 45.2976 136.335 45.5688 136.335 45.5688C134.422 46.8637 133.723 47.3579 133.588 47.4557C133.571 47.4687 133.555 47.4818 133.541 47.4974C132.58 48.521 133.615 48.3685 133.817 48.3306C133.837 48.3267 133.857 48.3215 133.878 48.3137C137.968 46.8532 137.764 45.2963 137.764 45.2963C138.01 42.7105 138.54 42.0989 138.54 42.0989C140.147 39.8848 142.2 39.7009 142.531 39.6853C142.563 39.684 142.595 39.6788 142.625 39.6696C143.605 39.3788 142.936 39.9617 142.869 40.0191C142.864 40.023 142.861 40.0256 142.857 40.0295L141.232 41.5878C140.044 42.5788 140.35 43.6233 140.438 43.8541C140.449 43.8828 140.466 43.9102 140.486 43.9349C141.11 44.6599 141.151 43.9349 141.151 43.9349C141.035 42.7209 141.929 41.9868 142.037 41.902C142.045 41.8955 142.053 41.8903 142.059 41.8825L145.596 38.5599C146.126 38.0162 146.331 38.5599 146.331 38.5599C146.767 41.1118 146.327 41.6556 146.227 41.743C146.209 41.7586 146.195 41.7782 146.182 41.7964C145.353 43.0326 143.996 43.6924 143.854 43.7589C143.845 43.7628 143.837 43.7667 143.829 43.7719L139.927 46.0096C137.852 47.1427 138.115 49.0309 138.166 49.3086C138.171 49.3308 138.177 49.353 138.188 49.3751C138.423 49.8394 138.679 49.5107 138.759 49.3856C138.774 49.3608 138.787 49.3334 138.793 49.306C139.408 46.655 140.619 46.5207 140.619 46.5207C141.157 46.3799 141.068 46.5885 141.068 46.5885C140.619 47.7113 141.068 48.1533 141.068 48.1533C141.593 48.7831 141.828 48.3998 141.9 48.225C141.917 48.182 141.922 48.135 141.912 48.0894C141.648 46.7254 141.795 46.1908 141.879 46.0161C141.9 45.9744 141.931 45.9378 141.973 45.9079L143.965 44.48C144.73 43.9362 144.454 44.7525 144.454 44.7525C143.557 46.9641 143.924 47.3722 143.924 47.3722C144.173 47.7569 144.605 47.4739 144.714 47.3918C144.731 47.38 144.745 47.3657 144.759 47.3514C145.624 46.4229 145.385 45.7579 145.324 45.6262C145.317 45.6119 145.31 45.5988 145.3 45.5871C144.792 44.8973 145.597 44.4044 145.708 44.3418C145.716 44.3366 145.724 44.334 145.733 44.33C147.231 43.6702 147.434 42.0311 147.434 42.0311C147.556 41.6908 148.005 41.9294 148.005 41.9294C150.167 42.7457 149.636 44.3353 149.636 44.3353C149.212 46.8324 147.187 47.5039 146.964 47.5704C146.948 47.5756 146.933 47.5809 146.918 47.5874C142.5 49.5551 143.313 51.1824 143.313 51.1824C143.512 51.6506 143.762 51.4054 143.851 51.2946C143.873 51.2685 143.887 51.2385 143.895 51.2072C144.379 49.4612 147.309 48.2563 147.309 48.2563C148.207 47.8143 148.125 48.4949 148.125 48.4949C148.085 49.3451 148.615 49.9919 148.615 49.9919C148.898 50.284 149.145 52.8489 149.145 52.8489C149.248 53.0641 149.45 53.0067 149.583 52.9363C149.665 52.892 149.722 52.8189 149.734 52.7381C150.077 50.7313 149.626 49.8224 149.559 49.6998C149.554 49.6894 149.548 49.679 149.545 49.6685C148.945 48.1507 149.511 47.7126 149.511 47.7126C151.187 46.3616 151.404 44.8934 151.381 44.1266C151.374 43.8984 151.673 43.7563 151.904 43.8802C153.133 44.5361 152.968 44.8803 152.968 44.8803C153.335 46.921 152.555 47.38 152.555 47.38C151.759 48.0816 152.172 48.5914 152.172 48.5914C152.455 49.0857 152.88 48.7192 152.977 48.6253C152.989 48.6136 153 48.6006 153.011 48.5862C154.678 46.2938 154.176 46.0917 154.176 46.0917C153.627 45.6953 154.131 45.8296 154.306 45.8831C154.342 45.8935 154.375 45.9092 154.403 45.9287C155.044 46.3669 155.277 47.38 155.277 47.38C155.55 47.9212 155.144 50.417 155.097 50.6961C155.094 50.713 155.092 50.7313 155.094 50.7495C155.113 51.1107 155.214 51.219 155.214 51.219C155.608 51.7705 155.813 51.4054 155.869 51.2659C155.88 51.2385 155.887 51.2098 155.888 51.1798C155.965 48.8744 156.254 48.8457 156.254 48.8457C156.612 48.6736 156.728 48.6932 156.728 48.6932C157.905 48.6932 158.863 50.1562 159.049 50.4613C159.073 50.4992 159.106 50.5318 159.145 50.5578C160.225 51.2489 159.725 50.3388 159.725 50.3388C158.638 47.7752 157.17 48.2211 157.17 48.2211C156.589 48.3476 156.496 47.8156 156.484 47.7152C156.484 47.7047 156.484 47.6943 156.484 47.6839C156.539 46.4933 155.83 45.7396 155.83 45.7396C153.283 43.0443 152.136 42.5658 151.992 42.5136C151.979 42.5084 151.967 42.5032 151.954 42.4966C149.831 41.43 149.284 40.6033 149.284 40.6033C148.122 38.8859 149.386 37.8988 149.386 37.8988C149.894 37.4907 150.482 37.8623 150.605 37.9497C150.622 37.9627 150.641 37.9731 150.663 37.9823C153.326 39.1546 154.239 41.2696 154.315 41.4587C154.32 41.4678 154.323 41.4769 154.328 41.4861C155.084 42.897 156.665 44.5204 156.901 44.759C156.92 44.7786 156.943 44.7956 156.968 44.8099C157.855 45.3185 157.728 46.3277 157.666 46.6355C157.652 46.7072 157.672 46.7815 157.721 46.8415C157.902 47.0606 158.064 46.9106 158.144 46.8063C158.179 46.7607 158.194 46.7085 158.194 46.655L158.18 45.8088C158.175 45.5688 158.513 45.4306 158.734 45.5858C159.307 45.9874 159.52 47.221 159.52 47.221C159.791 47.6187 159.973 47.3761 160.041 47.2496C160.059 47.2131 160.07 47.174 160.072 47.1349C160.102 45.1894 158.379 44.7382 158.379 44.7382C157.71 44.5569 157.362 44.1501 157.291 44.0588C157.283 44.0484 157.275 44.0379 157.269 44.0262L156.711 43.0574C156.601 42.8683 156.77 42.6453 157.022 42.6518C158.168 42.6818 159.15 43.0208 159.372 43.103C159.404 43.1147 159.44 43.1226 159.476 43.1252C160.488 43.2047 159.603 42.7118 159.603 42.7118C159.334 42.1289 156.893 41.8955 156.304 41.8473C156.221 41.8407 156.143 41.8108 156.088 41.7586C155.463 41.1757 155.189 40.2877 155.08 39.7987C155.039 39.6162 155.217 39.4479 155.439 39.4649C158.752 39.7192 161.198 42.3258 161.313 42.451C161.317 42.4549 161.32 42.4575 161.324 42.4614L162.666 43.7667C162.738 43.8358 162.766 43.9297 162.738 44.0184C162.273 45.4384 163.721 47.4126 164.02 47.7986C164.054 47.843 164.101 47.8782 164.157 47.899C165.149 48.2811 164.684 47.5078 164.684 47.5078C163.756 45.9209 163.796 44.643 163.87 44.1175C163.89 43.9688 164.049 43.8606 164.228 43.8697C166.671 43.9871 167.467 44.9964 167.661 45.3185C167.7 45.3837 167.767 45.4358 167.85 45.4619C168.759 45.737 168.172 45.085 168.172 45.085C166.642 42.9817 164.587 43.0456 164.293 43.0665C164.267 43.0678 164.242 43.0678 164.215 43.0652C163.413 42.9726 163.165 42.6896 163.108 42.6075C163.096 42.5905 163.083 42.5736 163.066 42.5592L162.367 41.9046C162.367 41.9046 162.356 41.8942 162.35 41.8903L160.061 40.0321C160.042 40.0178 160.022 40.0034 160 39.993C159.386 39.6814 160.095 39.7544 160.095 39.7544C162.161 39.7779 164.847 40.5211 165.172 40.6124C165.195 40.6189 165.217 40.6228 165.242 40.6241C166.03 40.6919 166.001 41.3361 166.001 41.3361C166.102 41.7403 166.418 42.198 166.52 42.3389C166.54 42.3676 166.567 42.3923 166.598 42.4132C167.211 42.82 167.256 42.378 167.256 42.2411C167.256 42.2189 167.253 42.1967 167.247 42.1759L167.147 41.8212C167.137 41.7873 167.12 41.7547 167.097 41.726L166.753 41.3074C166.74 41.2931 166.726 41.2787 166.71 41.2657C166.226 40.8706 166.551 40.6724 166.551 40.6724C166.856 40.3021 167.311 40.7702 167.394 40.8615C167.403 40.8732 167.414 40.8823 167.427 40.8928L168.376 41.6595C168.376 41.6595 168.388 41.6712 168.394 41.6764C169.217 42.4849 170.038 42.5853 170.038 42.5853L170.772 42.687C171.476 42.5853 170.804 42.2528 170.804 42.2528C169.089 41.6986 168.724 41.1249 168.671 41.0192C168.663 41.0049 168.655 40.9919 168.646 40.9788C168.086 40.2408 167.047 39.9787 166.958 39.9578C166.953 39.9578 166.947 39.9552 166.942 39.9539L165.544 39.5484L163.541 39.0385C162.55 38.7673 163.319 38.5547 163.504 38.5117C163.529 38.5065 163.552 38.5026 163.577 38.5013L165.88 38.4009C166.848 38.3031 167.9 38.955 167.985 39.0098C167.989 39.0124 167.994 39.015 167.999 39.0176L169.98 40.1351C170.99 40.7728 172.336 40.8497 172.336 40.8497C173.815 40.9162 174.473 40.7532 174.625 40.7076C174.647 40.7011 174.669 40.6919 174.689 40.6815C175.405 40.3112 174.661 40.2121 174.661 40.2121H174.631Z" fill="url(#paint0_linear_286_744)"/>
<path d="M135.074 43.6224C135.074 43.6224 137.123 43.5496 135.125 43.0024C135.125 43.0024 130.092 42.874 130.011 44.4846C130.011 44.4846 129.85 45.6443 130.743 44.4846C130.743 44.4846 131.301 43.5422 135.076 43.6224H135.074Z" fill="url(#paint1_linear_286_744)"/>
<path d="M148.438 1.62866L147.819 2.67833L146.815 3.98008L145.951 4.72726L145.509 5.10602L145.368 5.23271H145.548H146.09L146.594 5.10602L147.196 4.84102L147.015 5.40981L146.614 5.92818L146.151 6.38321L145.368 6.93907L144.524 7.34498L143.801 7.64747L143.438 7.78708L143.981 7.85042H144.584L145.448 7.74959L146.352 7.55956L147.015 7.29327L147.256 7.15495L147.378 7.16788L147.276 7.45873L146.734 8.09086L146.031 8.71007L145.187 9.34219L144.242 9.84764L143.238 10.2652L142.252 10.5819L141.69 10.7086L141.791 10.8223L142.514 10.9102H143.56L144.724 10.8223L145.588 10.6323L146.272 10.4177V10.5315L146.131 10.7202L146.011 10.8353L146.272 10.8094L146.774 10.6452L147.497 10.2652L148.04 9.77266L148.438 9.43139L149.025 9.79723L150.21 10.3919L151.216 10.7202L152.159 10.9102H153.244L154.048 10.7965L154.511 10.6582L154.289 10.569L153.525 10.3415L152.681 10.0131L151.878 9.49473L150.833 8.78634L150.291 8.41921L149.829 8.09086L149.667 8.12835L149.708 8.25504L149.949 8.88717L150.432 9.39261L150.813 9.79723L150.894 9.93684L150.532 9.78559L149.728 9.40554L149.025 8.87424L148.582 8.35587L148.301 8.74755L147.659 9.15217L146.995 9.48181L146.131 9.78559L146.815 9.22844L147.497 8.49548L148.02 7.98874L148.281 7.33205L148.542 6.57323L148.582 5.99152L148.924 6.26945L149.366 6.52282L150.009 6.75033L150.451 6.87702L150.572 6.82531L150.451 6.62365L149.869 5.95274L149.246 5.18229L148.843 4.5618L148.703 3.95552L149.045 4.10677L149.608 4.3847L150.09 4.53723L150.25 4.55016L150.291 4.42348L150.009 4.14555L149.125 3.03253L148.582 2.08369L148.438 1.62866Z" fill="#284E72"/>
<path d="M146.051 11.5813L145.187 12.5172L143.78 13.7944L142.394 14.7807L140.967 15.5008L139.742 15.9442L138.957 16.1587L138.837 16.2466L139.762 16.3229L141.208 16.2466L142.594 16.0191L143.76 15.6908L144.825 15.312L145.448 15.0587L145.408 15.2732L145.287 15.4762L145.086 15.6649L145.469 15.6274L146.252 15.3366L146.875 15.0587L147.618 14.4511L148.1 13.7944V13.351V13.0731L147.216 13.5785L146.351 13.9521L145.469 14.2869L144.764 14.5144L145.127 14.1486L145.428 13.744L145.809 13.0601L146.07 12.3517L146.171 11.8463L146.051 11.5813Z" fill="#284E72"/>
<path d="M148.924 11.0242L149.185 11.8088L149.667 12.4539L150.552 13.0731L151.576 13.5036L153.023 13.7052H154.128H154.289L153.325 13.351L152.3 12.8456L151.195 12.4539L150.27 11.9601L149.687 11.5813L148.924 11.0242Z" fill="#284E72"/>
<path d="M150.009 13.8059H149.889V13.952L150.25 14.3126L151.456 15.0715L152.361 15.4761L153.626 15.8419L154.952 16.1845L156.4 16.3228H157.485H158.047L157.363 16.1457L156.138 15.7915L155.374 15.489L154.511 15.1852L154.169 14.8944L153.968 14.6785L153.546 14.6281L152.722 14.5906L151.778 14.4639L150.914 14.2493L150.412 14.0218L150.009 13.8059Z" fill="#284E72"/>
<path d="M144.724 16.7534L143.9 17.5368L142.876 18.2206L141.63 18.814L140.203 19.3078L138.515 19.737L137.129 20.0537L136.687 20.1545L136.888 20.3316L137.813 20.6858L139.359 20.8254H140.967L142.534 20.6987L143.841 20.4337L144.966 20.1804V20.3187L144.744 20.6987L144.523 21.1292L144.503 21.2171L144.966 21.0529L145.91 20.6612L146.794 20.0795L147.276 19.6116L147.679 19.0415L147.799 18.6369V18.4481L147.517 18.5994L146.734 18.8902L145.79 19.1811L144.926 19.3582L144.323 19.472L144.383 19.3582L144.865 19.1436L145.689 18.7131L146.392 18.1185L146.653 17.7397L146.815 17.3985L146.754 17.2964L146.533 17.3855L146.09 17.6131L145.388 17.9168L144.645 18.2206L144.062 18.4481L144.303 18.0939L144.645 17.5756L144.886 17.0947L144.946 16.7534H144.724Z" fill="#284E72"/>
<path d="M149.89 15.4761L150.05 16.4624L150.693 17.3854L151.558 18.1067L152.823 18.8151L154.169 19.411L154.531 19.5739H154.049L152.643 19.1318L151.357 18.6005L150.333 18.0188L149.468 17.3867L148.926 17.0196V17.4242L149.227 18.1455L149.75 18.7401L151.076 19.5752L152.282 20.0173L154.533 20.5228L156.246 20.7257H157.909L159.255 20.5745L160.12 20.3211L160.462 20.1311L159.275 19.9915L158.391 19.8519L156.864 19.411L155.559 18.9289L154.352 18.373L153.368 17.8042C153.368 17.8042 152.384 17.1967 152.304 17.1721C152.223 17.1475 151.54 16.7546 151.54 16.7546L150.595 16.2103L150.233 15.7682L149.891 15.4774L149.89 15.4761Z" fill="#284E72"/>
<path d="M148.141 20.8757L147.056 21.482L145.95 21.9629L144.343 22.4567L143.037 22.6971L141.61 22.9363L142.092 22.6209L142.243 22.4438L141.872 22.5446L141.048 22.8484L139.499 23.1651L137.853 23.4301L136.989 23.518L137.552 23.7468L138.396 23.9239H139.661L140.867 23.8476L141.671 23.7843L141.932 23.7468L141.651 23.9239L140.967 24.3285L140.284 24.7202L139.339 25.099L138.396 25.4157L137.39 25.7699L136.989 25.9211L136.787 26.0349H137.009H138.034L139.22 25.9599L140.424 25.8074L141.489 25.554L142.977 25.1378L144.161 24.7073L144.604 24.5056L144.584 24.9723L144.424 25.554L144.102 26.0349L144.042 26.1745H144.242L144.966 26.0349L145.849 25.6807L146.934 25.0873L147.578 24.5056L147.799 24.0752L147.578 24.1631L146.975 24.4423L146.272 24.6065L145.95 24.6439L145.77 24.6065L145.991 24.3531L146.171 23.8981L146.252 23.4172L146.292 23.1134L147.236 22.4813L147.9 21.8246L148.141 21.217V20.8757Z" fill="#284E72"/>
<path d="M149.467 22.52L149.306 23.1263V23.6447V24.2897L149.707 24.7706L150.471 25.3782L151.456 25.7828L152.42 26.0853H152.582L151.938 25.4919L151.315 24.8469L150.45 23.9743L149.989 23.2905L149.467 22.52Z" fill="#284E72"/>
<path d="M152.199 21.4575L153.647 22.1026L155.375 22.6209L157.485 23.1018L159.635 23.5258L158.75 23.7223L157.645 23.8232L156.54 23.7598L155.214 23.5258L153.766 23.0139C153.766 23.0139 152.841 22.3818 152.742 22.3443C152.642 22.3068 152.199 21.6863 152.199 21.6863V21.4588V21.4575Z" fill="#284E72"/>
<path d="M156.42 24.7332L157.624 25.0356L158.81 25.3898L159.754 25.7195L160.598 26.0349L159.875 26.0853H158.709L157.865 25.8966L157.143 25.5295L156.62 25.0356L156.42 24.7332Z" fill="#284E72"/>
</g>
<path d="M123.572 29.1403C122.171 29.1403 120.829 28.9566 119.545 28.5891C118.261 28.2049 117.228 27.7122 116.444 27.1108L117.82 24.054C118.57 24.5885 119.454 25.0312 120.471 25.382C121.504 25.7161 122.547 25.8831 123.597 25.8831C124.397 25.8831 125.039 25.8079 125.523 25.6576C126.023 25.4905 126.39 25.265 126.623 24.9811C126.857 24.6971 126.973 24.3714 126.973 24.0039C126.973 23.5362 126.79 23.1687 126.423 22.9015C126.056 22.6175 125.573 22.392 124.972 22.225C124.372 22.0412 123.705 21.8742 122.972 21.7238C122.255 21.5568 121.529 21.3564 120.796 21.1225C120.079 20.8887 119.42 20.588 118.82 20.2205C118.22 19.853 117.728 19.3686 117.344 18.7673C116.978 18.1659 116.794 17.3976 116.794 16.4621C116.794 15.4599 117.061 14.5496 117.595 13.7311C118.145 12.8959 118.962 12.2361 120.046 11.7517C121.146 11.2506 122.522 11 124.172 11C125.273 11 126.356 11.1336 127.423 11.4009C128.491 11.6514 129.433 12.0356 130.25 12.5535L128.999 15.6353C128.182 15.1676 127.365 14.8252 126.548 14.608C125.731 14.3742 124.931 14.2572 124.147 14.2572C123.364 14.2572 122.722 14.3491 122.221 14.5329C121.721 14.7166 121.363 14.9588 121.146 15.2595C120.929 15.5434 120.821 15.8775 120.821 16.2617C120.821 16.7127 121.004 17.0802 121.371 17.3641C121.738 17.6314 122.221 17.8486 122.822 18.0156C123.422 18.1826 124.08 18.3497 124.797 18.5167C125.531 18.6837 126.256 18.8758 126.973 19.093C127.707 19.3101 128.374 19.6025 128.974 19.9699C129.574 20.3374 130.058 20.8218 130.425 21.4232C130.808 22.0245 131 22.7845 131 23.7032C131 24.6888 130.725 25.5908 130.175 26.4093C129.624 27.2277 128.799 27.8875 127.699 28.3887C126.615 28.8898 125.239 29.1403 123.572 29.1403Z" fill="white"/>
<path d="M92.6196 28.8398V11.3008H95.9709L106.3 23.9289H104.674V11.3008H108.676V28.8398H105.35L94.9956 16.2117H96.6212V28.8398H92.6196Z" fill="white"/>
<path d="M66.1682 28.8398L73.9713 11.3008H77.9729L85.801 28.8398H81.5493L75.1468 13.3554H76.7474L70.3199 28.8398H66.1682ZM70.0698 25.0814L71.1452 21.9996H80.1488L81.2492 25.0814H70.0698Z" fill="white"/>
<path d="M48.2754 28.8398V11.3008H52.327V25.5324H61.1055V28.8398H48.2754Z" fill="white"/>
<path d="M21.8242 28.8398L29.6273 11.3008H33.6289L41.457 28.8398H37.2053L30.8028 13.3554H32.4034L25.9759 28.8398H21.8242ZM25.7258 25.0814L26.8012 21.9996H35.8048L36.9052 25.0814H25.7258Z" fill="white"/>
<path d="M0 28.8398V11.3008H8.55339C10.7543 11.3008 12.4049 11.7184 13.5054 12.5536C14.6225 13.3888 15.181 14.4912 15.181 15.8609C15.181 16.7796 14.9559 17.5814 14.5058 18.2663C14.0556 18.9344 13.4387 19.4522 12.655 19.8197C11.8714 20.1872 10.971 20.3709 9.95395 20.3709L10.4291 19.3437C11.5296 19.3437 12.505 19.5274 13.3553 19.8949C14.2056 20.2457 14.8642 20.7718 15.3311 21.4734C15.8146 22.175 16.0564 23.0352 16.0564 24.0541C16.0564 25.5575 15.4645 26.7351 14.2807 27.587C13.0969 28.4222 11.3545 28.8398 9.05359 28.8398H0ZM4.0266 25.783H8.75347C9.80389 25.783 10.5959 25.6159 11.1294 25.2819C11.6796 24.9311 11.9547 24.3799 11.9547 23.6282C11.9547 22.8932 11.6796 22.3504 11.1294 21.9996C10.5959 21.6321 9.80389 21.4483 8.75347 21.4483H3.72648V18.4918H8.05319C9.03692 18.4918 9.78721 18.3247 10.3041 17.9907C10.8376 17.6399 11.1044 17.1137 11.1044 16.4121C11.1044 15.7273 10.8376 15.2178 10.3041 14.8837C9.78721 14.533 9.03692 14.3576 8.05319 14.3576H4.0266V25.783Z" fill="white"/>
<path d="M266.21 28.8398L274.028 11.3008H278.037L285.879 28.8398H281.619L275.205 13.3554H276.809L270.369 28.8398H266.21ZM270.119 25.0814L271.196 21.9996H280.216L281.319 25.0814H270.119Z" fill="white"/>
<path d="M245.079 28.8398V11.3008H252.671C254.241 11.3008 255.594 11.5597 256.73 12.0775C257.866 12.5786 258.743 13.3052 259.361 14.2574C259.979 15.2095 260.288 16.3453 260.288 17.6649C260.288 18.9678 259.979 20.0953 259.361 21.0475C258.743 21.9829 257.866 22.7011 256.73 23.2022C255.594 23.7034 254.241 23.9539 252.671 23.9539H247.334L249.138 22.175V28.8398H245.079ZM256.229 28.8398L251.844 22.4756H256.179L260.614 28.8398H256.229ZM249.138 22.626L247.334 20.7217H252.446C253.699 20.7217 254.634 20.4545 255.252 19.9199C255.87 19.3687 256.179 18.617 256.179 17.6649C256.179 16.6961 255.87 15.9444 255.252 15.4099C254.634 14.8754 253.699 14.6081 252.446 14.6081H247.334L249.138 12.6788V22.626Z" fill="white"/>
<path d="M231.847 28.8398V11.3008H235.906V28.8398H231.847Z" fill="white"/>
<path d="M207.677 28.8398V11.3008H216.246C218.451 11.3008 220.105 11.7184 221.207 12.5536C222.326 13.3888 222.886 14.4912 222.886 15.8609C222.886 16.7796 222.66 17.5814 222.209 18.2663C221.758 18.9344 221.14 19.4522 220.355 19.8197C219.57 20.1872 218.668 20.3709 217.649 20.3709L218.125 19.3437C219.228 19.3437 220.205 19.5274 221.057 19.8949C221.909 20.2457 222.568 20.7718 223.036 21.4734C223.521 22.175 223.763 23.0352 223.763 24.0541C223.763 25.5575 223.17 26.7351 221.984 27.587C220.798 28.4222 219.052 28.8398 216.747 28.8398H207.677ZM211.711 25.783H216.447C217.499 25.783 218.292 25.6159 218.827 25.2819C219.378 24.9311 219.654 24.3799 219.654 23.6282C219.654 22.8932 219.378 22.3504 218.827 21.9996C218.292 21.6321 217.499 21.4483 216.447 21.4483H211.41V18.4918H215.745C216.73 18.4918 217.482 18.3247 218 17.9907C218.534 17.6399 218.802 17.1137 218.802 16.4121C218.802 15.7273 218.534 15.2178 218 14.8837C217.482 14.533 216.73 14.3576 215.745 14.3576H211.711V25.783Z" fill="white"/>
<path d="M194.445 28.8398V11.3008H198.504V28.8398H194.445Z" fill="white"/>
<path d="M179.218 29.1403C177.815 29.1403 176.47 28.9566 175.184 28.5891C173.898 28.2049 172.862 27.7122 172.077 27.1108L173.455 24.054C174.207 24.5885 175.092 25.0312 176.111 25.382C177.147 25.7161 178.191 25.8831 179.243 25.8831C180.045 25.8831 180.688 25.8079 181.172 25.6576C181.673 25.4905 182.041 25.265 182.275 24.9811C182.509 24.6971 182.626 24.3714 182.626 24.0039C182.626 23.5362 182.442 23.1687 182.074 22.9015C181.707 22.6175 181.222 22.392 180.621 22.225C180.02 22.0412 179.352 21.8742 178.617 21.7238C177.898 21.5568 177.172 21.3564 176.437 21.1225C175.719 20.8887 175.059 20.588 174.457 20.2205C173.856 19.853 173.363 19.3686 172.979 18.7673C172.612 18.1659 172.428 17.3976 172.428 16.4621C172.428 15.4599 172.695 14.5496 173.23 13.7311C173.781 12.8959 174.599 12.2361 175.685 11.7517C176.788 11.2506 178.166 11 179.819 11C180.922 11 182.008 11.1336 183.077 11.4009C184.146 11.6514 185.089 12.0356 185.908 12.5535L184.655 15.6353C183.837 15.1676 183.018 14.8252 182.2 14.608C181.381 14.3742 180.579 14.2572 179.794 14.2572C179.009 14.2572 178.366 14.3491 177.865 14.5329C177.364 14.7166 177.005 14.9588 176.788 15.2595C176.57 15.5434 176.462 15.8775 176.462 16.2617C176.462 16.7127 176.646 17.0802 177.013 17.3641C177.381 17.6314 177.865 17.8486 178.466 18.0156C179.068 18.1826 179.727 18.3497 180.446 18.5167C181.181 18.6837 181.907 18.8758 182.626 19.093C183.361 19.3101 184.029 19.6025 184.63 19.9699C185.231 20.3374 185.716 20.8218 186.083 21.4232C186.467 22.0245 186.66 22.7845 186.66 23.7032C186.66 24.6888 186.384 25.5908 185.833 26.4093C185.282 27.2277 184.455 27.8875 183.352 28.3887C182.266 28.8898 180.888 29.1403 179.218 29.1403Z" fill="white"/>
<defs>
<linearGradient id="paint0_linear_286_744" x1="149.5" y1="0" x2="149.5" y2="53" gradientUnits="userSpaceOnUse">
<stop stop-color="#B795FF"/>
<stop offset="0.5" stop-color="#F4FE86"/>
<stop offset="1" stop-color="#89FCEE"/>
</linearGradient>
<linearGradient id="paint1_linear_286_744" x1="133" y1="43" x2="133" y2="45" gradientUnits="userSpaceOnUse">
<stop stop-color="#B795FF"/>
<stop offset="0.5" stop-color="#F4FE86"/>
<stop offset="1" stop-color="#89FCEE"/>
</linearGradient>
<clipPath id="clip0_286_744">
<rect width="50.7007" height="52.5443" fill="white" transform="translate(124.402)"/>
</clipPath>
</defs>
</svg>
